<mxfile host="app.diagrams.net" modified="2024-04-11T00:52:28.018Z" agent="Mozilla/5.0 (Windows NT 10.0; Win64; x64) AppleWebKit/537.36 (KHTML, like Gecko) Chrome/123.0.0.0 Safari/537.36" etag="Utofjd-qF1nWslPcEiTo" version="24.2.2" type="github">
  <diagram name="Page-1" id="7a6c530e-6e37-e111-ec74-82921da8cc10">
    <mxGraphModel dx="3187.5" dy="2012.5" grid="1" gridSize="10" guides="1" tooltips="1" connect="1" arrows="1" fold="1" page="1" pageScale="1.5" pageWidth="1169" pageHeight="827" background="#184380" math="0" shadow="0">
      <root>
        <mxCell id="0" style=";html=1;" />
        <mxCell id="1" style=";html=1;" parent="0" />
        <UserObject label="Servers for Gangsta&#39;s Paradise" link="https://discord.com/channels/899586018183872573/1222591422503321641" linkTarget="_blank" id="IPUG4N9_TtiLt6nAQQPi-66">
          <mxCell style="whiteSpace=wrap;html=1;rounded=1;shadow=0;strokeColor=default;strokeWidth=2;fillColor=#009BFF;fontSize=20;fontColor=#FFFFFF;align=center;arcSize=3;verticalAlign=top;spacingTop=4;" vertex="1" parent="1">
            <mxGeometry x="-100" y="-560.5" width="840" height="535.5" as="geometry" />
          </mxCell>
        </UserObject>
        <UserObject label="Servers for Gangsta&#39;s Paradise" link="https://discord.com/channels/899586018183872573/1222591422503321641" linkTarget="_blank" id="IPUG4N9_TtiLt6nAQQPi-65">
          <mxCell style="whiteSpace=wrap;html=1;rounded=1;shadow=0;strokeColor=default;strokeWidth=2;fillColor=#009BFF;fontSize=20;fontColor=#FFFFFF;align=center;arcSize=3;verticalAlign=top;spacingTop=4;" vertex="1" parent="1">
            <mxGeometry x="-120" y="-592.75" width="840" height="535.5" as="geometry" />
          </mxCell>
        </UserObject>
        <mxCell id="23046e2b9bb16c14-116" value="Gangsta&#39;s Paradise" style="whiteSpace=wrap;html=1;rounded=1;shadow=0;strokeColor=none;strokeWidth=2;fillColor=#009BFF;fontSize=20;fontColor=#FFFFFF;align=center;arcSize=3;verticalAlign=top;spacingTop=4;" parent="1" vertex="1">
          <mxGeometry x="-1670" y="-1190" width="1500" height="1430" as="geometry" />
        </mxCell>
        <mxCell id="23046e2b9bb16c14-113" value="&lt;span style=&quot;font-weight: normal;&quot;&gt;&lt;font style=&quot;font-size: 18px;&quot;&gt;Legend&lt;/font&gt;&lt;/span&gt;" style="text;strokeColor=none;fillColor=none;html=1;fontSize=24;fontStyle=1;verticalAlign=middle;align=center;rounded=0;shadow=0;fontColor=#FFFFFF;" parent="1" vertex="1">
          <mxGeometry x="-683" y="110" width="120" height="40" as="geometry" />
        </mxCell>
        <mxCell id="23046e2b9bb16c14-114" value="Subtitle" style="text;html=1;strokeColor=none;fillColor=none;align=center;verticalAlign=middle;whiteSpace=wrap;rounded=0;shadow=0;fontSize=10;fontColor=#009BFF;" parent="1" vertex="1">
          <mxGeometry x="114" y="90" width="1526" height="20" as="geometry" />
        </mxCell>
        <mxCell id="LRXPZS-r5NiS0eYnUJOr-1" value="Closed" style="rounded=1;whiteSpace=wrap;html=1;shadow=0;strokeWidth=2;fillColor=#F04D22;fontSize=12;fontColor=#FFFFFF;align=center;strokeColor=none;arcSize=6;verticalAlign=top;" parent="1" vertex="1">
          <mxGeometry x="-610" y="-1095" width="390" height="680" as="geometry" />
        </mxCell>
        <mxCell id="LRXPZS-r5NiS0eYnUJOr-2" value="GP-CORE" style="rounded=1;whiteSpace=wrap;html=1;shadow=0;strokeWidth=2;fillColor=#008a00;fontSize=12;align=center;strokeColor=#005700;arcSize=6;verticalAlign=top;fontColor=#ffffff;glass=0;" parent="1" vertex="1">
          <mxGeometry x="-1597.5" y="-1095" width="537" height="1020" as="geometry" />
        </mxCell>
        <UserObject label="Payed" link="https://shop.my-gp.de/" linkTarget="_blank" id="LRXPZS-r5NiS0eYnUJOr-3">
          <mxCell style="rounded=1;whiteSpace=wrap;html=1;shadow=0;strokeWidth=2;fillColor=#a20025;fontSize=12;fontColor=#ffffff;align=center;strokeColor=#6F0000;arcSize=6;verticalAlign=top;" parent="1" vertex="1">
            <mxGeometry x="-1039.88" y="-1095" width="409.38" height="680" as="geometry" />
          </mxCell>
        </UserObject>
        <mxCell id="LRXPZS-r5NiS0eYnUJOr-211" style="edgeStyle=orthogonalEdgeStyle;rounded=0;orthogonalLoop=1;jettySize=auto;html=1;exitX=0;exitY=0.5;exitDx=0;exitDy=0;" parent="1" source="LRXPZS-r5NiS0eYnUJOr-4" target="LRXPZS-r5NiS0eYnUJOr-209" edge="1">
          <mxGeometry relative="1" as="geometry">
            <Array as="points">
              <mxPoint x="-1630" y="-850" />
              <mxPoint x="-1630" y="9" />
            </Array>
          </mxGeometry>
        </mxCell>
        <mxCell id="LRXPZS-r5NiS0eYnUJOr-4" value="ATHENA" style="rounded=1;whiteSpace=wrap;html=1;shadow=0;strokeWidth=2;fillColor=#60a917;fontSize=12;align=center;strokeColor=#2D7600;arcSize=6;verticalAlign=top;fontColor=#ffffff;" parent="1" vertex="1">
          <mxGeometry x="-1580.5" y="-1045" width="510" height="390" as="geometry" />
        </mxCell>
        <mxCell id="LRXPZS-r5NiS0eYnUJOr-6" value="MODIFICATIONS" style="rounded=1;whiteSpace=wrap;html=1;shadow=0;strokeWidth=2;fillColor=none;fontSize=11;fontColor=#FFFFFF;align=center;strokeColor=#FFFFFF;dashed=1;verticalAlign=top;" parent="1" vertex="1">
          <mxGeometry x="-1320.5" y="-1015" width="220" height="320" as="geometry" />
        </mxCell>
        <mxCell id="LRXPZS-r5NiS0eYnUJOr-8" value="" style="shadow=0;dashed=0;html=1;strokeColor=none;shape=mxgraph.mscae.enterprise.lock;fillColor=#FFFFFF;rounded=0;fontSize=12;fontColor=#000000;align=center;" parent="1" vertex="1">
          <mxGeometry x="-591" y="-1085" width="18" height="20" as="geometry" />
        </mxCell>
        <mxCell id="LRXPZS-r5NiS0eYnUJOr-10" value="" style="shape=image;html=1;verticalAlign=top;verticalLabelPosition=bottom;labelBackgroundColor=#ffffff;imageAspect=0;aspect=fixed;image=https://cdn4.iconfinder.com/data/icons/aiga-symbol-signs/441/aiga_cashier-128.png" parent="1" vertex="1">
          <mxGeometry x="-1018.88" y="-1085" width="20" height="20" as="geometry" />
        </mxCell>
        <mxCell id="LRXPZS-r5NiS0eYnUJOr-27" value="Second Storage" style="shadow=1;strokeWidth=1;rounded=1;absoluteArcSize=1;arcSize=2;fillColor=none;" parent="1" vertex="1">
          <mxGeometry x="-1307.5" y="-895" width="87" height="20" as="geometry" />
        </mxCell>
        <mxCell id="LRXPZS-r5NiS0eYnUJOr-31" value="PLUGINS" style="rounded=1;whiteSpace=wrap;html=1;shadow=0;strokeWidth=2;fillColor=#fa6800;fontSize=12;align=center;strokeColor=#C73500;arcSize=6;verticalAlign=top;fontColor=#000000;" parent="1" vertex="1">
          <mxGeometry x="-599" y="-1055" width="369" height="565" as="geometry" />
        </mxCell>
        <mxCell id="LRXPZS-r5NiS0eYnUJOr-35" value="PLUGINS" style="rounded=1;whiteSpace=wrap;html=1;shadow=0;strokeWidth=2;fillColor=#e51400;fontSize=12;align=center;strokeColor=#B20000;arcSize=6;verticalAlign=top;fontColor=#ffffff;" parent="1" vertex="1">
          <mxGeometry x="-1025.88" y="-895" width="375.38" height="460" as="geometry" />
        </mxCell>
        <mxCell id="LRXPZS-r5NiS0eYnUJOr-111" style="edgeStyle=orthogonalEdgeStyle;rounded=0;orthogonalLoop=1;jettySize=auto;html=1;exitX=1;exitY=0.5;exitDx=0;exitDy=0;entryX=0.5;entryY=0;entryDx=0;entryDy=0;" parent="1" source="LRXPZS-r5NiS0eYnUJOr-36" target="LRXPZS-r5NiS0eYnUJOr-109" edge="1">
          <mxGeometry relative="1" as="geometry" />
        </mxCell>
        <mxCell id="LRXPZS-r5NiS0eYnUJOr-156" style="edgeStyle=orthogonalEdgeStyle;rounded=0;orthogonalLoop=1;jettySize=auto;html=1;exitX=1;exitY=0.5;exitDx=0;exitDy=0;entryX=0.5;entryY=0;entryDx=0;entryDy=0;" parent="1" source="LRXPZS-r5NiS0eYnUJOr-36" target="LRXPZS-r5NiS0eYnUJOr-154" edge="1">
          <mxGeometry relative="1" as="geometry" />
        </mxCell>
        <mxCell id="LRXPZS-r5NiS0eYnUJOr-36" value="Shared Items" style="shadow=1;strokeWidth=1;rounded=1;absoluteArcSize=1;arcSize=2;fillColor=none;strokeColor=#FF6666;sketch=1;curveFitting=1;jiggle=2;" parent="1" vertex="1">
          <mxGeometry x="-1009.82" y="-862" width="107" height="25" as="geometry" />
        </mxCell>
        <mxCell id="LRXPZS-r5NiS0eYnUJOr-37" value="GENERATORS" style="rounded=1;whiteSpace=wrap;html=1;shadow=0;strokeWidth=2;fillColor=#e51400;fontSize=12;align=center;strokeColor=#B20000;arcSize=6;verticalAlign=top;fontColor=#ffffff;" parent="1" vertex="1">
          <mxGeometry x="-1025.88" y="-1040" width="253" height="130" as="geometry" />
        </mxCell>
        <mxCell id="LRXPZS-r5NiS0eYnUJOr-38" value="clothing" style="shadow=1;strokeWidth=1;rounded=1;absoluteArcSize=1;arcSize=2;gradientColor=none;fillColor=none;" parent="1" vertex="1">
          <mxGeometry x="-1008.01" y="-1005" width="60" height="20" as="geometry" />
        </mxCell>
        <mxCell id="LRXPZS-r5NiS0eYnUJOr-39" value="Multilanguage" style="shadow=1;strokeWidth=1;rounded=1;absoluteArcSize=1;arcSize=2;fillColor=none;" parent="1" vertex="1">
          <mxGeometry x="-1205.5" y="-985" width="86" height="20" as="geometry" />
        </mxCell>
        <mxCell id="LRXPZS-r5NiS0eYnUJOr-42" value="PLUGINS" style="rounded=1;whiteSpace=wrap;html=1;shadow=0;strokeWidth=2;fillColor=#60a917;fontSize=12;align=center;strokeColor=#2D7600;arcSize=6;verticalAlign=top;fontColor=#ffffff;" parent="1" vertex="1">
          <mxGeometry x="-1323.5" y="-645" width="250" height="330" as="geometry" />
        </mxCell>
        <mxCell id="LRXPZS-r5NiS0eYnUJOr-150" style="edgeStyle=orthogonalEdgeStyle;rounded=0;orthogonalLoop=1;jettySize=auto;html=1;exitX=1;exitY=0.5;exitDx=0;exitDy=0;entryX=0.5;entryY=0;entryDx=0;entryDy=0;" parent="1" source="LRXPZS-r5NiS0eYnUJOr-44" target="LRXPZS-r5NiS0eYnUJOr-148" edge="1">
          <mxGeometry relative="1" as="geometry" />
        </mxCell>
        <mxCell id="LRXPZS-r5NiS0eYnUJOr-44" value="Shared Items&#xa;(free)" style="shadow=1;strokeWidth=1;rounded=1;absoluteArcSize=1;arcSize=2;fillColor=none;strokeColor=#FF6666;" parent="1" vertex="1">
          <mxGeometry x="-1307.5" y="-615" width="107" height="40" as="geometry" />
        </mxCell>
        <mxCell id="LRXPZS-r5NiS0eYnUJOr-57" value="" style="endArrow=none;html=1;strokeWidth=2;rounded=0;entryX=1;entryY=0.5;entryDx=0;entryDy=0;exitX=0;exitY=0.5;exitDx=0;exitDy=0;" parent="1" source="LRXPZS-r5NiS0eYnUJOr-51" edge="1">
          <mxGeometry width="50" height="50" relative="1" as="geometry">
            <mxPoint x="-1450.5" y="-445" as="sourcePoint" />
            <mxPoint x="-1460.5" y="-445" as="targetPoint" />
          </mxGeometry>
        </mxCell>
        <mxCell id="LRXPZS-r5NiS0eYnUJOr-63" value="Third Party" style="rounded=1;whiteSpace=wrap;html=1;shadow=0;strokeWidth=2;fillColor=#a20025;fontSize=12;fontColor=#ffffff;align=center;strokeColor=#6F0000;arcSize=6;verticalAlign=top;" parent="1" vertex="1">
          <mxGeometry x="-1038.63" y="-405" width="409.38" height="330" as="geometry" />
        </mxCell>
        <mxCell id="LRXPZS-r5NiS0eYnUJOr-64" value="Free" style="rounded=1;whiteSpace=wrap;html=1;shadow=0;strokeWidth=2;fillColor=#008a00;fontSize=12;fontColor=#ffffff;align=center;strokeColor=#005700;arcSize=6;verticalAlign=top;" parent="1" vertex="1">
          <mxGeometry x="-608.69" y="-405" width="390" height="330" as="geometry" />
        </mxCell>
        <mxCell id="LRXPZS-r5NiS0eYnUJOr-66" value="PLUGINS" style="rounded=1;whiteSpace=wrap;html=1;shadow=0;strokeWidth=2;fillColor=#e51400;fontSize=12;align=center;strokeColor=#B20000;arcSize=6;verticalAlign=top;fontColor=#ffffff;" parent="1" vertex="1">
          <mxGeometry x="-1022.51" y="-285" width="372.01" height="180" as="geometry" />
        </mxCell>
        <mxCell id="LRXPZS-r5NiS0eYnUJOr-67" value="Attachment Editor&#xa;2" style="shadow=1;strokeWidth=1;rounded=1;absoluteArcSize=1;arcSize=2;fillColor=none;" parent="1" vertex="1">
          <mxGeometry x="-1008.01" y="-253" width="107" height="40" as="geometry" />
        </mxCell>
        <mxCell id="LRXPZS-r5NiS0eYnUJOr-68" value="Autopilot" style="shadow=1;strokeWidth=1;rounded=1;absoluteArcSize=1;arcSize=2;fillColor=none;strokeColor=#FF6666;" parent="1" vertex="1">
          <mxGeometry x="-584.19" y="-1028" width="107" height="25" as="geometry" />
        </mxCell>
        <mxCell id="LRXPZS-r5NiS0eYnUJOr-69" value="Cablecar" style="shadow=1;strokeWidth=1;rounded=1;absoluteArcSize=1;arcSize=2;fillColor=none;strokeColor=#FF6666;sketch=1;curveFitting=1;jiggle=2;" parent="1" vertex="1">
          <mxGeometry x="-466.19000000000005" y="-728" width="107" height="25" as="geometry" />
        </mxCell>
        <mxCell id="LRXPZS-r5NiS0eYnUJOr-71" value="Basic Auth" style="shadow=1;strokeWidth=1;rounded=1;absoluteArcSize=1;arcSize=2;fillColor=none;" parent="1" vertex="1">
          <mxGeometry x="-1547.5" y="-985" width="87" height="20" as="geometry" />
        </mxCell>
        <mxCell id="LRXPZS-r5NiS0eYnUJOr-72" value="Char Selector" style="shadow=1;strokeWidth=1;rounded=1;absoluteArcSize=1;arcSize=2;fillColor=none;" parent="1" vertex="1">
          <mxGeometry x="-1450.5" y="-865" width="87" height="20" as="geometry" />
        </mxCell>
        <mxCell id="LRXPZS-r5NiS0eYnUJOr-73" value="Chat" style="shadow=1;strokeWidth=1;rounded=1;absoluteArcSize=1;arcSize=2;fillColor=none;" parent="1" vertex="1">
          <mxGeometry x="-1546" y="-955" width="87" height="20" as="geometry" />
        </mxCell>
        <UserObject label="Commands" link="https://athenaframework.com/tutorials/free/setup/command-list" linkTarget="_blank" id="LRXPZS-r5NiS0eYnUJOr-74">
          <mxCell style="shadow=1;strokeWidth=1;rounded=1;absoluteArcSize=1;arcSize=2;fillColor=none;" parent="1" vertex="1">
            <mxGeometry x="-1450.5" y="-955" width="87" height="20" as="geometry" />
          </mxCell>
        </UserObject>
        <mxCell id="LRXPZS-r5NiS0eYnUJOr-75" value="" style="endArrow=none;html=1;rounded=0;entryX=0;entryY=0.5;entryDx=0;entryDy=0;exitX=1;exitY=0.5;exitDx=0;exitDy=0;" parent="1" source="LRXPZS-r5NiS0eYnUJOr-73" target="LRXPZS-r5NiS0eYnUJOr-74" edge="1">
          <mxGeometry width="50" height="50" relative="1" as="geometry">
            <mxPoint x="-1530.5" y="-775" as="sourcePoint" />
            <mxPoint x="-1480.5" y="-825" as="targetPoint" />
          </mxGeometry>
        </mxCell>
        <mxCell id="LRXPZS-r5NiS0eYnUJOr-76" value="Death" style="shadow=1;strokeWidth=1;rounded=1;absoluteArcSize=1;arcSize=2;fillColor=none;" parent="1" vertex="1">
          <mxGeometry x="-1546" y="-925" width="87" height="20" as="geometry" />
        </mxCell>
        <mxCell id="LRXPZS-r5NiS0eYnUJOr-77" value="Hud" style="shadow=1;strokeWidth=1;rounded=1;absoluteArcSize=1;arcSize=2;fillColor=none;" parent="1" vertex="1">
          <mxGeometry x="-1207" y="-750" width="87" height="20" as="geometry" />
        </mxCell>
        <mxCell id="LRXPZS-r5NiS0eYnUJOr-79" value="" style="endArrow=none;html=1;strokeWidth=1;rounded=0;entryX=0.75;entryY=0;entryDx=0;entryDy=0;exitX=0;exitY=0.5;exitDx=0;exitDy=0;curved=0;flowAnimation=0;endFill=0;startArrow=classic;startFill=1;" parent="1" source="LRXPZS-r5NiS0eYnUJOr-27" edge="1">
          <mxGeometry width="50" height="50" relative="1" as="geometry">
            <mxPoint x="-1287" y="-885.4999999999999" as="sourcePoint" />
            <mxPoint x="-1347.125" y="-615.5" as="targetPoint" />
            <Array as="points">
              <mxPoint x="-1350" y="-885.5" />
            </Array>
          </mxGeometry>
        </mxCell>
        <mxCell id="LRXPZS-r5NiS0eYnUJOr-227" style="edgeStyle=orthogonalEdgeStyle;rounded=0;orthogonalLoop=1;jettySize=auto;html=1;exitX=0;exitY=0.5;exitDx=0;exitDy=0;entryX=0.5;entryY=1;entryDx=0;entryDy=0;" parent="1" source="LRXPZS-r5NiS0eYnUJOr-80" target="LRXPZS-r5NiS0eYnUJOr-6" edge="1">
          <mxGeometry relative="1" as="geometry">
            <Array as="points">
              <mxPoint x="-1320" y="-495" />
              <mxPoint x="-1320" y="-670" />
              <mxPoint x="-1210" y="-670" />
            </Array>
          </mxGeometry>
        </mxCell>
        <mxCell id="LRXPZS-r5NiS0eYnUJOr-80" value="Overrides" style="shadow=1;strokeWidth=1;rounded=1;absoluteArcSize=1;arcSize=2;fillColor=none;strokeColor=#FF6666;" parent="1" vertex="1">
          <mxGeometry x="-1307.5" y="-515" width="107" height="40" as="geometry" />
        </mxCell>
        <mxCell id="LRXPZS-r5NiS0eYnUJOr-82" value="Utils" style="shadow=1;strokeWidth=1;rounded=1;absoluteArcSize=1;arcSize=2;fillColor=none;strokeColor=#FF6666;" parent="1" vertex="1">
          <mxGeometry x="-1306.5" y="-565" width="107" height="40" as="geometry" />
        </mxCell>
        <mxCell id="LRXPZS-r5NiS0eYnUJOr-83" value="Will be removed" style="shadow=1;strokeWidth=1;rounded=1;absoluteArcSize=1;arcSize=2;fillColor=none;dashed=1;" parent="1" vertex="1">
          <mxGeometry x="-660.57" y="150" width="107" height="40" as="geometry" />
        </mxCell>
        <mxCell id="LRXPZS-r5NiS0eYnUJOr-84" value="Gangsta&#39;s Paradise&#xa;Specific Plugin" style="shadow=1;strokeWidth=1;rounded=1;absoluteArcSize=1;arcSize=2;fillColor=none;strokeColor=#FF6666;" parent="1" vertex="1">
          <mxGeometry x="-543.07" y="150" width="107" height="40" as="geometry" />
        </mxCell>
        <mxCell id="LRXPZS-r5NiS0eYnUJOr-85" value="Plugin" style="shadow=1;strokeWidth=1;rounded=1;absoluteArcSize=1;arcSize=2;fillColor=none;" parent="1" vertex="1">
          <mxGeometry x="-427.57" y="150" width="107" height="40" as="geometry" />
        </mxCell>
        <mxCell id="LRXPZS-r5NiS0eYnUJOr-86" value="Weather" style="shadow=1;strokeWidth=1;rounded=1;absoluteArcSize=1;arcSize=2;fillColor=none;" parent="1" vertex="1">
          <mxGeometry x="-1547.5" y="-865" width="87" height="20" as="geometry" />
        </mxCell>
        <mxCell id="LRXPZS-r5NiS0eYnUJOr-87" value="Discord Auth" style="shadow=1;strokeWidth=1;rounded=1;absoluteArcSize=1;arcSize=2;fillColor=none;" parent="1" vertex="1">
          <mxGeometry x="-1450.5" y="-985" width="87" height="20" as="geometry" />
        </mxCell>
        <mxCell id="LRXPZS-r5NiS0eYnUJOr-89" value="PLUGINS" style="rounded=1;whiteSpace=wrap;html=1;shadow=0;strokeWidth=2;fillColor=#60a917;fontSize=12;align=center;strokeColor=#2D7600;arcSize=6;verticalAlign=top;fontColor=#ffffff;" parent="1" vertex="1">
          <mxGeometry x="-595.8800000000001" y="-345" width="367.19" height="240" as="geometry" />
        </mxCell>
        <mxCell id="LRXPZS-r5NiS0eYnUJOr-90" value="Example &#xa;Multiviews" style="shadow=1;strokeWidth=1;rounded=1;absoluteArcSize=1;arcSize=2;fillColor=none;" parent="1" vertex="1">
          <mxGeometry x="-585.69" y="-315" width="107" height="40" as="geometry" />
        </mxCell>
        <mxCell id="LRXPZS-r5NiS0eYnUJOr-91" value="FireFighters" style="shadow=1;strokeWidth=1;rounded=1;absoluteArcSize=1;arcSize=2;fillColor=none;sketch=1;curveFitting=1;jiggle=2;" parent="1" vertex="1">
          <mxGeometry x="-892.0100000000002" y="-253" width="107" height="40" as="geometry" />
        </mxCell>
        <mxCell id="LRXPZS-r5NiS0eYnUJOr-92" value="Agenda Airport" style="shadow=1;strokeWidth=1;rounded=1;absoluteArcSize=1;arcSize=2;fillColor=none;strokeColor=#FF6666;" parent="1" vertex="1">
          <mxGeometry x="-584.19" y="-994" width="107" height="25" as="geometry" />
        </mxCell>
        <mxCell id="LRXPZS-r5NiS0eYnUJOr-93" value="Agenda Intro" style="shadow=1;strokeWidth=1;rounded=1;absoluteArcSize=1;arcSize=2;fillColor=none;strokeColor=#FF6666;" parent="1" vertex="1">
          <mxGeometry x="-467.19000000000005" y="-994" width="107" height="25" as="geometry" />
        </mxCell>
        <mxCell id="LRXPZS-r5NiS0eYnUJOr-94" value="Animations" style="shadow=1;strokeWidth=1;rounded=1;absoluteArcSize=1;arcSize=2;fillColor=none;strokeColor=#FF6666;sketch=1;curveFitting=1;jiggle=2;" parent="1" vertex="1">
          <mxGeometry x="-584.19" y="-964" width="107" height="25" as="geometry" />
        </mxCell>
        <mxCell id="LRXPZS-r5NiS0eYnUJOr-95" value="ATM" style="shadow=1;strokeWidth=1;rounded=1;absoluteArcSize=1;arcSize=2;fillColor=none;strokeColor=#FF6666;sketch=1;curveFitting=1;jiggle=2;" parent="1" vertex="1">
          <mxGeometry x="-467.19000000000005" y="-964" width="107" height="25" as="geometry" />
        </mxCell>
        <mxCell id="LRXPZS-r5NiS0eYnUJOr-96" value="In development" style="shadow=1;strokeWidth=1;rounded=1;absoluteArcSize=1;arcSize=2;fillColor=none;strokeColor=#FF6666;sketch=1;curveFitting=1;jiggle=2;" parent="1" vertex="1">
          <mxGeometry x="-303.57" y="157.5" width="107" height="25" as="geometry" />
        </mxCell>
        <mxCell id="LRXPZS-r5NiS0eYnUJOr-97" value="Blips" style="shadow=1;strokeWidth=1;rounded=1;absoluteArcSize=1;arcSize=2;fillColor=none;strokeColor=#FF6666;" parent="1" vertex="1">
          <mxGeometry x="-584.19" y="-929" width="107" height="25" as="geometry" />
        </mxCell>
        <mxCell id="LRXPZS-r5NiS0eYnUJOr-98" value="Bot" style="shadow=1;strokeWidth=1;rounded=1;absoluteArcSize=1;arcSize=2;fillColor=none;strokeColor=#FF6666;" parent="1" vertex="1">
          <mxGeometry x="-467.19000000000005" y="-929" width="107" height="25" as="geometry" />
        </mxCell>
        <mxCell id="LRXPZS-r5NiS0eYnUJOr-100" value="Cards" style="shadow=1;strokeWidth=1;rounded=1;absoluteArcSize=1;arcSize=2;fillColor=none;strokeColor=#FF6666;" parent="1" vertex="1">
          <mxGeometry x="-1009.8200000000002" y="-829" width="107" height="25" as="geometry" />
        </mxCell>
        <mxCell id="LRXPZS-r5NiS0eYnUJOr-102" value="Chars" style="shadow=1;strokeWidth=1;rounded=1;absoluteArcSize=1;arcSize=2;fillColor=none;strokeColor=#FF6666;" parent="1" vertex="1">
          <mxGeometry x="-584.19" y="-894" width="107" height="25" as="geometry" />
        </mxCell>
        <mxCell id="LRXPZS-r5NiS0eYnUJOr-103" value="Cinema" style="shadow=1;strokeWidth=1;rounded=1;absoluteArcSize=1;arcSize=2;fillColor=none;strokeColor=#FF6666;" parent="1" vertex="1">
          <mxGeometry x="-467.19000000000005" y="-894" width="107" height="25" as="geometry" />
        </mxCell>
        <mxCell id="LRXPZS-r5NiS0eYnUJOr-104" value="Resources/Mods" style="rounded=1;whiteSpace=wrap;html=1;shadow=0;strokeWidth=2;fillColor=#e51400;fontSize=12;align=center;strokeColor=#B20000;arcSize=6;verticalAlign=top;fontColor=#ffffff;" parent="1" vertex="1">
          <mxGeometry x="-1020.26" y="-375" width="369.76" height="80" as="geometry" />
        </mxCell>
        <mxCell id="LRXPZS-r5NiS0eYnUJOr-105" value="Clothing Dump" style="shadow=1;strokeWidth=1;rounded=1;absoluteArcSize=1;arcSize=2;fillColor=none;" parent="1" vertex="1">
          <mxGeometry x="-1008.01" y="-345" width="107" height="40" as="geometry" />
        </mxCell>
        <mxCell id="LRXPZS-r5NiS0eYnUJOr-106" value="Tuning Dump" style="shadow=1;strokeWidth=1;rounded=1;absoluteArcSize=1;arcSize=2;fillColor=none;" parent="1" vertex="1">
          <mxGeometry x="-892.0100000000002" y="-345" width="107" height="40" as="geometry" />
        </mxCell>
        <mxCell id="LRXPZS-r5NiS0eYnUJOr-107" value="Controls" style="shadow=1;strokeWidth=1;rounded=1;absoluteArcSize=1;arcSize=2;fillColor=none;strokeColor=#FF6666;sketch=1;curveFitting=1;jiggle=2;" parent="1" vertex="1">
          <mxGeometry x="-584.19" y="-858" width="107" height="25" as="geometry" />
        </mxCell>
        <mxCell id="LRXPZS-r5NiS0eYnUJOr-108" value="Com" style="shadow=1;strokeWidth=1;rounded=1;absoluteArcSize=1;arcSize=2;fillColor=none;strokeColor=#FF6666;sketch=1;curveFitting=1;jiggle=2;" parent="1" vertex="1">
          <mxGeometry x="-467.19000000000005" y="-858" width="107" height="25" as="geometry" />
        </mxCell>
        <mxCell id="LRXPZS-r5NiS0eYnUJOr-113" style="edgeStyle=orthogonalEdgeStyle;rounded=0;orthogonalLoop=1;jettySize=auto;html=1;exitX=0.5;exitY=1;exitDx=0;exitDy=0;entryX=0.5;entryY=0;entryDx=0;entryDy=0;endArrow=none;endFill=0;" parent="1" source="LRXPZS-r5NiS0eYnUJOr-109" target="LRXPZS-r5NiS0eYnUJOr-112" edge="1">
          <mxGeometry relative="1" as="geometry" />
        </mxCell>
        <mxCell id="LRXPZS-r5NiS0eYnUJOr-109" value="Clothing" style="shadow=1;strokeWidth=1;rounded=1;absoluteArcSize=1;arcSize=2;fillColor=none;strokeColor=#FF6666;sketch=1;curveFitting=1;jiggle=2;" parent="1" vertex="1">
          <mxGeometry x="-887.44" y="-829" width="107" height="25" as="geometry" />
        </mxCell>
        <mxCell id="LRXPZS-r5NiS0eYnUJOr-166" style="edgeStyle=orthogonalEdgeStyle;rounded=0;orthogonalLoop=1;jettySize=auto;html=1;exitX=0.5;exitY=1;exitDx=0;exitDy=0;entryX=0.5;entryY=0;entryDx=0;entryDy=0;endArrow=none;endFill=0;" parent="1" source="LRXPZS-r5NiS0eYnUJOr-112" target="LRXPZS-r5NiS0eYnUJOr-151" edge="1">
          <mxGeometry relative="1" as="geometry" />
        </mxCell>
        <mxCell id="LRXPZS-r5NiS0eYnUJOr-112" value="Objects" style="shadow=1;strokeWidth=1;rounded=1;absoluteArcSize=1;arcSize=2;fillColor=none;strokeColor=#FF6666;sketch=1;curveFitting=1;jiggle=2;" parent="1" vertex="1">
          <mxGeometry x="-887.44" y="-793" width="107" height="25" as="geometry" />
        </mxCell>
        <mxCell id="LRXPZS-r5NiS0eYnUJOr-114" value="Death" style="shadow=1;strokeWidth=1;rounded=1;absoluteArcSize=1;arcSize=2;fillColor=none;strokeColor=#FF6666;sketch=1;curveFitting=1;jiggle=2;" parent="1" vertex="1">
          <mxGeometry x="-584.69" y="-828" width="107" height="25" as="geometry" />
        </mxCell>
        <mxCell id="LRXPZS-r5NiS0eYnUJOr-115" value="Default Clothes" style="shadow=1;strokeWidth=1;rounded=1;absoluteArcSize=1;arcSize=2;fillColor=none;strokeColor=#FF6666;sketch=1;curveFitting=1;jiggle=2;" parent="1" vertex="1">
          <mxGeometry x="-584.69" y="-793" width="107" height="25" as="geometry" />
        </mxCell>
        <mxCell id="LRXPZS-r5NiS0eYnUJOr-116" value="Default Gestures" style="shadow=1;strokeWidth=1;rounded=1;absoluteArcSize=1;arcSize=2;fillColor=none;strokeColor=#FF6666;sketch=1;curveFitting=1;jiggle=2;" parent="1" vertex="1">
          <mxGeometry x="-584.19" y="-760.5" width="107" height="25" as="geometry" />
        </mxCell>
        <mxCell id="LRXPZS-r5NiS0eYnUJOr-117" value="Discord" style="shadow=1;strokeWidth=1;rounded=1;absoluteArcSize=1;arcSize=2;fillColor=none;strokeColor=#FF6666;" parent="1" vertex="1">
          <mxGeometry x="-584.19" y="-728" width="107" height="25" as="geometry" />
        </mxCell>
        <mxCell id="LRXPZS-r5NiS0eYnUJOr-118" value="Effects" style="shadow=1;strokeWidth=1;rounded=1;absoluteArcSize=1;arcSize=2;fillColor=none;strokeColor=#FF6666;" parent="1" vertex="1">
          <mxGeometry x="-467.19000000000005" y="-828" width="107" height="25" as="geometry" />
        </mxCell>
        <mxCell id="LRXPZS-r5NiS0eYnUJOr-119" value="Event Char" style="shadow=1;strokeWidth=1;rounded=1;absoluteArcSize=1;arcSize=2;fillColor=none;strokeColor=#FF6666;" parent="1" vertex="1">
          <mxGeometry x="-467.19000000000005" y="-793" width="107" height="25" as="geometry" />
        </mxCell>
        <mxCell id="LRXPZS-r5NiS0eYnUJOr-142" style="edgeStyle=orthogonalEdgeStyle;rounded=0;orthogonalLoop=1;jettySize=auto;html=1;exitX=1;exitY=0.5;exitDx=0;exitDy=0;entryX=0;entryY=0.5;entryDx=0;entryDy=0;endArrow=none;endFill=0;" parent="1" source="LRXPZS-r5NiS0eYnUJOr-120" target="LRXPZS-r5NiS0eYnUJOr-140" edge="1">
          <mxGeometry relative="1" as="geometry" />
        </mxCell>
        <mxCell id="LRXPZS-r5NiS0eYnUJOr-120" value="Events" style="shadow=1;strokeWidth=1;rounded=1;absoluteArcSize=1;arcSize=2;fillColor=none;strokeColor=#FF6666;" parent="1" vertex="1">
          <mxGeometry x="-467.19000000000005" y="-760.5" width="107" height="25" as="geometry" />
        </mxCell>
        <mxCell id="LRXPZS-r5NiS0eYnUJOr-122" value="Pedsyncer" style="shadow=1;strokeWidth=1;rounded=1;absoluteArcSize=1;arcSize=2;fillColor=none;strokeColor=#FF6666;" parent="1" vertex="1">
          <mxGeometry x="-1009.8200000000002" y="-793" width="107" height="25" as="geometry" />
        </mxCell>
        <mxCell id="LRXPZS-r5NiS0eYnUJOr-124" value="" style="endArrow=none;html=1;strokeWidth=2;rounded=0;entryX=0.5;entryY=1;entryDx=0;entryDy=0;exitX=0.5;exitY=0;exitDx=0;exitDy=0;" parent="1" source="LRXPZS-r5NiS0eYnUJOr-123" edge="1">
          <mxGeometry width="50" height="50" relative="1" as="geometry">
            <mxPoint x="-1440.5" y="-435" as="sourcePoint" />
            <mxPoint x="-1397" y="-425" as="targetPoint" />
          </mxGeometry>
        </mxCell>
        <mxCell id="LRXPZS-r5NiS0eYnUJOr-132" style="edgeStyle=orthogonalEdgeStyle;rounded=0;orthogonalLoop=1;jettySize=auto;html=1;exitX=0.5;exitY=1;exitDx=0;exitDy=0;entryX=0.5;entryY=0;entryDx=0;entryDy=0;endArrow=none;endFill=0;" parent="1" source="LRXPZS-r5NiS0eYnUJOr-125" target="LRXPZS-r5NiS0eYnUJOr-126" edge="1">
          <mxGeometry relative="1" as="geometry" />
        </mxCell>
        <mxCell id="LRXPZS-r5NiS0eYnUJOr-125" value="Police" style="shadow=1;strokeWidth=1;rounded=1;absoluteArcSize=1;arcSize=2;fillColor=none;strokeColor=#FF6666;" parent="1" vertex="1">
          <mxGeometry x="-349.51" y="-994" width="107" height="25" as="geometry" />
        </mxCell>
        <mxCell id="LRXPZS-r5NiS0eYnUJOr-133" style="edgeStyle=orthogonalEdgeStyle;rounded=0;orthogonalLoop=1;jettySize=auto;html=1;exitX=0.5;exitY=1;exitDx=0;exitDy=0;entryX=0.5;entryY=0;entryDx=0;entryDy=0;endArrow=none;endFill=0;" parent="1" source="LRXPZS-r5NiS0eYnUJOr-126" target="LRXPZS-r5NiS0eYnUJOr-127" edge="1">
          <mxGeometry relative="1" as="geometry" />
        </mxCell>
        <mxCell id="LRXPZS-r5NiS0eYnUJOr-126" value="Store" style="shadow=1;strokeWidth=1;rounded=1;absoluteArcSize=1;arcSize=2;fillColor=none;strokeColor=#FF6666;dashed=1;" parent="1" vertex="1">
          <mxGeometry x="-349.51" y="-963" width="107" height="25" as="geometry" />
        </mxCell>
        <mxCell id="LRXPZS-r5NiS0eYnUJOr-135" style="edgeStyle=orthogonalEdgeStyle;rounded=0;orthogonalLoop=1;jettySize=auto;html=1;exitX=0.5;exitY=1;exitDx=0;exitDy=0;entryX=0.5;entryY=0;entryDx=0;entryDy=0;endArrow=none;endFill=0;" parent="1" source="LRXPZS-r5NiS0eYnUJOr-127" target="LRXPZS-r5NiS0eYnUJOr-134" edge="1">
          <mxGeometry relative="1" as="geometry" />
        </mxCell>
        <mxCell id="LRXPZS-r5NiS0eYnUJOr-127" value="Rent" style="shadow=1;strokeWidth=1;rounded=1;absoluteArcSize=1;arcSize=2;fillColor=none;strokeColor=#FF6666;" parent="1" vertex="1">
          <mxGeometry x="-349.51" y="-927" width="107" height="25" as="geometry" />
        </mxCell>
        <mxCell id="LRXPZS-r5NiS0eYnUJOr-129" value="" style="edgeStyle=orthogonalEdgeStyle;rounded=0;orthogonalLoop=1;jettySize=auto;html=1;" parent="1" source="LRXPZS-r5NiS0eYnUJOr-128" target="LRXPZS-r5NiS0eYnUJOr-125" edge="1">
          <mxGeometry relative="1" as="geometry" />
        </mxCell>
        <mxCell id="LRXPZS-r5NiS0eYnUJOr-128" value="Faction" style="shadow=1;strokeWidth=1;rounded=1;absoluteArcSize=1;arcSize=2;fillColor=none;strokeColor=#FF6666;" parent="1" vertex="1">
          <mxGeometry x="-465.69000000000005" y="-1028" width="107" height="25" as="geometry" />
        </mxCell>
        <mxCell id="LRXPZS-r5NiS0eYnUJOr-134" value="Automat" style="shadow=1;strokeWidth=1;rounded=1;absoluteArcSize=1;arcSize=2;fillColor=none;strokeColor=#FF6666;" parent="1" vertex="1">
          <mxGeometry x="-349.51" y="-894" width="107" height="25" as="geometry" />
        </mxCell>
        <mxCell id="LRXPZS-r5NiS0eYnUJOr-136" value="Fladbed" style="shadow=1;strokeWidth=1;rounded=1;absoluteArcSize=1;arcSize=2;fillColor=none;" parent="1" vertex="1">
          <mxGeometry x="-468.19000000000005" y="-315" width="107" height="40" as="geometry" />
        </mxCell>
        <mxCell id="LRXPZS-r5NiS0eYnUJOr-137" value="Objects" style="shadow=1;strokeWidth=1;rounded=1;absoluteArcSize=1;arcSize=2;gradientColor=none;fillColor=none;" parent="1" vertex="1">
          <mxGeometry x="-938.63" y="-1005" width="60" height="20" as="geometry" />
        </mxCell>
        <mxCell id="LRXPZS-r5NiS0eYnUJOr-138" value="Tuning" style="shadow=1;strokeWidth=1;rounded=1;absoluteArcSize=1;arcSize=2;gradientColor=none;fillColor=none;" parent="1" vertex="1">
          <mxGeometry x="-868.5100000000002" y="-1005" width="60" height="20" as="geometry" />
        </mxCell>
        <mxCell id="LRXPZS-r5NiS0eYnUJOr-139" value="Translation" style="shadow=1;strokeWidth=1;rounded=1;absoluteArcSize=1;arcSize=2;gradientColor=none;fillColor=none;" parent="1" vertex="1">
          <mxGeometry x="-1008.0100000000001" y="-975" width="60" height="20" as="geometry" />
        </mxCell>
        <mxCell id="LRXPZS-r5NiS0eYnUJOr-140" value="Helloween" style="shadow=1;strokeWidth=1;rounded=1;absoluteArcSize=1;arcSize=2;fillColor=none;strokeColor=#FF6666;" parent="1" vertex="1">
          <mxGeometry x="-349.51" y="-760.5" width="107" height="25" as="geometry" />
        </mxCell>
        <mxCell id="LRXPZS-r5NiS0eYnUJOr-143" value="Hotels" style="shadow=1;strokeWidth=1;rounded=1;absoluteArcSize=1;arcSize=2;fillColor=none;strokeColor=#FF6666;" parent="1" vertex="1">
          <mxGeometry x="-1009.8200000000002" y="-763" width="107" height="25" as="geometry" />
        </mxCell>
        <mxCell id="LRXPZS-r5NiS0eYnUJOr-146" value="Icons" style="shadow=1;strokeWidth=1;rounded=1;absoluteArcSize=1;arcSize=2;fillColor=none;strokeColor=#FF6666;sketch=1;curveFitting=1;jiggle=2;" parent="1" vertex="1">
          <mxGeometry x="-349.51" y="-728" width="107" height="25" as="geometry" />
        </mxCell>
        <mxCell id="LRXPZS-r5NiS0eYnUJOr-147" value="Interiors &#xa;Teleporter" style="shadow=1;strokeWidth=1;rounded=1;absoluteArcSize=1;arcSize=2;fillColor=none;" parent="1" vertex="1">
          <mxGeometry x="-350.51" y="-315" width="107" height="40" as="geometry" />
        </mxCell>
        <mxCell id="LRXPZS-r5NiS0eYnUJOr-148" value="Item Examples" style="shadow=1;strokeWidth=1;rounded=1;absoluteArcSize=1;arcSize=2;fillColor=none;strokeColor=#FF6666;" parent="1" vertex="1">
          <mxGeometry x="-1193" y="-565" width="107" height="40" as="geometry" />
        </mxCell>
        <mxCell id="LRXPZS-r5NiS0eYnUJOr-167" style="edgeStyle=orthogonalEdgeStyle;rounded=0;orthogonalLoop=1;jettySize=auto;html=1;exitX=0.5;exitY=1;exitDx=0;exitDy=0;entryX=0.5;entryY=0;entryDx=0;entryDy=0;endArrow=none;endFill=0;" parent="1" source="LRXPZS-r5NiS0eYnUJOr-151" target="LRXPZS-r5NiS0eYnUJOr-152" edge="1">
          <mxGeometry relative="1" as="geometry" />
        </mxCell>
        <mxCell id="LRXPZS-r5NiS0eYnUJOr-151" value="Crafting" style="shadow=1;strokeWidth=1;rounded=1;absoluteArcSize=1;arcSize=2;fillColor=none;strokeColor=#FF6666;sketch=1;curveFitting=1;jiggle=2;" parent="1" vertex="1">
          <mxGeometry x="-887.44" y="-763" width="107" height="25" as="geometry" />
        </mxCell>
        <mxCell id="LRXPZS-r5NiS0eYnUJOr-168" style="edgeStyle=orthogonalEdgeStyle;rounded=0;orthogonalLoop=1;jettySize=auto;html=1;exitX=0.5;exitY=1;exitDx=0;exitDy=0;entryX=0.5;entryY=0;entryDx=0;entryDy=0;endArrow=none;endFill=0;" parent="1" source="LRXPZS-r5NiS0eYnUJOr-152" target="LRXPZS-r5NiS0eYnUJOr-153" edge="1">
          <mxGeometry relative="1" as="geometry" />
        </mxCell>
        <mxCell id="LRXPZS-r5NiS0eYnUJOr-152" value="Effects" style="shadow=1;strokeWidth=1;rounded=1;absoluteArcSize=1;arcSize=2;fillColor=none;strokeColor=#FF6666;sketch=1;curveFitting=1;jiggle=2;" parent="1" vertex="1">
          <mxGeometry x="-887.44" y="-728" width="107" height="25" as="geometry" />
        </mxCell>
        <mxCell id="LRXPZS-r5NiS0eYnUJOr-169" style="edgeStyle=orthogonalEdgeStyle;rounded=0;orthogonalLoop=1;jettySize=auto;html=1;exitX=0.5;exitY=1;exitDx=0;exitDy=0;entryX=0.5;entryY=0;entryDx=0;entryDy=0;endArrow=none;endFill=0;" parent="1" source="LRXPZS-r5NiS0eYnUJOr-153" target="LRXPZS-r5NiS0eYnUJOr-159" edge="1">
          <mxGeometry relative="1" as="geometry" />
        </mxCell>
        <mxCell id="LRXPZS-r5NiS0eYnUJOr-153" value="metaldetector" style="shadow=1;strokeWidth=1;rounded=1;absoluteArcSize=1;arcSize=2;fillColor=none;strokeColor=#FF6666;sketch=1;curveFitting=1;jiggle=2;" parent="1" vertex="1">
          <mxGeometry x="-887.44" y="-695.5" width="107" height="25" as="geometry" />
        </mxCell>
        <mxCell id="LRXPZS-r5NiS0eYnUJOr-171" style="edgeStyle=orthogonalEdgeStyle;rounded=0;orthogonalLoop=1;jettySize=auto;html=1;exitX=0.5;exitY=1;exitDx=0;exitDy=0;entryX=0.5;entryY=0;entryDx=0;entryDy=0;endArrow=none;endFill=0;" parent="1" source="LRXPZS-r5NiS0eYnUJOr-154" target="LRXPZS-r5NiS0eYnUJOr-155" edge="1">
          <mxGeometry relative="1" as="geometry" />
        </mxCell>
        <mxCell id="LRXPZS-r5NiS0eYnUJOr-154" value="Phonecell" style="shadow=1;strokeWidth=1;rounded=1;absoluteArcSize=1;arcSize=2;fillColor=none;strokeColor=#FF6666;sketch=1;curveFitting=1;jiggle=2;" parent="1" vertex="1">
          <mxGeometry x="-767.5700000000002" y="-829" width="107" height="25" as="geometry" />
        </mxCell>
        <mxCell id="LRXPZS-r5NiS0eYnUJOr-155" value="Random Spawn" style="shadow=1;strokeWidth=1;rounded=1;absoluteArcSize=1;arcSize=2;fillColor=none;strokeColor=#FF6666;sketch=1;curveFitting=1;jiggle=2;" parent="1" vertex="1">
          <mxGeometry x="-767.5700000000002" y="-793" width="107" height="25" as="geometry" />
        </mxCell>
        <mxCell id="LRXPZS-r5NiS0eYnUJOr-175" style="edgeStyle=orthogonalEdgeStyle;rounded=0;orthogonalLoop=1;jettySize=auto;html=1;exitX=0.5;exitY=1;exitDx=0;exitDy=0;entryX=0.5;entryY=0;entryDx=0;entryDy=0;endArrow=none;endFill=0;" parent="1" source="LRXPZS-r5NiS0eYnUJOr-157" target="LRXPZS-r5NiS0eYnUJOr-158" edge="1">
          <mxGeometry relative="1" as="geometry" />
        </mxCell>
        <mxCell id="LRXPZS-r5NiS0eYnUJOr-157" value="Speedcam" style="shadow=1;strokeWidth=1;rounded=1;absoluteArcSize=1;arcSize=2;fillColor=none;strokeColor=#FF6666;sketch=1;curveFitting=1;jiggle=2;" parent="1" vertex="1">
          <mxGeometry x="-767.5700000000002" y="-763" width="107" height="25" as="geometry" />
        </mxCell>
        <mxCell id="LRXPZS-r5NiS0eYnUJOr-176" style="edgeStyle=orthogonalEdgeStyle;rounded=0;orthogonalLoop=1;jettySize=auto;html=1;exitX=0.5;exitY=1;exitDx=0;exitDy=0;entryX=0.5;entryY=0;entryDx=0;entryDy=0;endArrow=none;endFill=0;" parent="1" source="LRXPZS-r5NiS0eYnUJOr-158" target="LRXPZS-r5NiS0eYnUJOr-164" edge="1">
          <mxGeometry relative="1" as="geometry" />
        </mxCell>
        <mxCell id="LRXPZS-r5NiS0eYnUJOr-158" value="Storages" style="shadow=1;strokeWidth=1;rounded=1;absoluteArcSize=1;arcSize=2;fillColor=none;strokeColor=#FF6666;sketch=1;curveFitting=1;jiggle=2;" parent="1" vertex="1">
          <mxGeometry x="-767.5700000000002" y="-728" width="107" height="25" as="geometry" />
        </mxCell>
        <mxCell id="LRXPZS-r5NiS0eYnUJOr-159" value="Stores" style="shadow=1;strokeWidth=1;rounded=1;absoluteArcSize=1;arcSize=2;fillColor=none;strokeColor=#FF6666;sketch=1;curveFitting=1;jiggle=2;" parent="1" vertex="1">
          <mxGeometry x="-888.6300000000001" y="-663" width="107" height="25" as="geometry" />
        </mxCell>
        <mxCell id="LRXPZS-r5NiS0eYnUJOr-161" value="HUD" style="shadow=1;strokeWidth=1;rounded=1;absoluteArcSize=1;arcSize=2;fillColor=none;strokeColor=#FF6666;sketch=1;curveFitting=1;jiggle=2;" parent="1" vertex="1">
          <mxGeometry x="-349.5100000000002" y="-858" width="107" height="25" as="geometry" />
        </mxCell>
        <mxCell id="LRXPZS-r5NiS0eYnUJOr-165" style="edgeStyle=orthogonalEdgeStyle;rounded=0;orthogonalLoop=1;jettySize=auto;html=1;exitX=1;exitY=0.5;exitDx=0;exitDy=0;entryX=0;entryY=0.5;entryDx=0;entryDy=0;" parent="1" source="LRXPZS-r5NiS0eYnUJOr-162" target="LRXPZS-r5NiS0eYnUJOr-159" edge="1">
          <mxGeometry relative="1" as="geometry" />
        </mxCell>
        <mxCell id="LRXPZS-r5NiS0eYnUJOr-162" value="Shop" style="shadow=1;strokeWidth=1;rounded=1;absoluteArcSize=1;arcSize=2;fillColor=none;strokeColor=#FF6666;sketch=1;curveFitting=1;jiggle=2;" parent="1" vertex="1">
          <mxGeometry x="-1009.82" y="-662.5" width="107" height="25" as="geometry" />
        </mxCell>
        <mxCell id="LRXPZS-r5NiS0eYnUJOr-164" value="Tuning" style="shadow=1;strokeWidth=1;rounded=1;absoluteArcSize=1;arcSize=2;fillColor=none;strokeColor=#FF6666;sketch=1;curveFitting=1;jiggle=2;" parent="1" vertex="1">
          <mxGeometry x="-767.5700000000002" y="-695.5" width="107" height="25" as="geometry" />
        </mxCell>
        <mxCell id="LRXPZS-r5NiS0eYnUJOr-174" style="edgeStyle=orthogonalEdgeStyle;rounded=0;orthogonalLoop=1;jettySize=auto;html=1;exitX=0.5;exitY=1;exitDx=0;exitDy=0;entryX=0.5;entryY=1.141;entryDx=0;entryDy=0;entryPerimeter=0;endArrow=none;endFill=0;" parent="1" source="LRXPZS-r5NiS0eYnUJOr-155" target="LRXPZS-r5NiS0eYnUJOr-155" edge="1">
          <mxGeometry relative="1" as="geometry" />
        </mxCell>
        <mxCell id="LRXPZS-r5NiS0eYnUJOr-177" value="Keys" style="shadow=1;strokeWidth=1;rounded=1;absoluteArcSize=1;arcSize=2;fillColor=none;strokeColor=#FF6666;sketch=1;curveFitting=1;jiggle=2;" parent="1" vertex="1">
          <mxGeometry x="-1009.88" y="-728" width="107" height="25" as="geometry" />
        </mxCell>
        <mxCell id="LRXPZS-r5NiS0eYnUJOr-178" value="Leben" style="shadow=1;strokeWidth=1;rounded=1;absoluteArcSize=1;arcSize=2;fillColor=none;strokeColor=#FF6666;" parent="1" vertex="1">
          <mxGeometry x="-349.51" y="-826" width="107" height="25" as="geometry" />
        </mxCell>
        <mxCell id="LRXPZS-r5NiS0eYnUJOr-179" value="Lockpicker" style="shadow=1;strokeWidth=1;rounded=1;absoluteArcSize=1;arcSize=2;fillColor=none;strokeColor=#FF6666;" parent="1" vertex="1">
          <mxGeometry x="-349.51" y="-793" width="107" height="25" as="geometry" />
        </mxCell>
        <mxCell id="LRXPZS-r5NiS0eYnUJOr-180" value="Log" style="shadow=1;strokeWidth=1;rounded=1;absoluteArcSize=1;arcSize=2;fillColor=none;strokeColor=#FF6666;" parent="1" vertex="1">
          <mxGeometry x="-584.19" y="-695.5" width="107" height="25" as="geometry" />
        </mxCell>
        <mxCell id="LRXPZS-r5NiS0eYnUJOr-181" value="Luckywheel" style="shadow=1;strokeWidth=1;rounded=1;absoluteArcSize=1;arcSize=2;fillColor=none;strokeColor=#FF6666;" parent="1" vertex="1">
          <mxGeometry x="-468.5" y="-695" width="107" height="25" as="geometry" />
        </mxCell>
        <mxCell id="LRXPZS-r5NiS0eYnUJOr-182" value="Map" style="shadow=1;strokeWidth=1;rounded=1;absoluteArcSize=1;arcSize=2;fillColor=none;strokeColor=#FF6666;" parent="1" vertex="1">
          <mxGeometry x="-349.51" y="-695" width="107" height="25" as="geometry" />
        </mxCell>
        <mxCell id="LRXPZS-r5NiS0eYnUJOr-183" value="Mods" style="shadow=1;strokeWidth=1;rounded=1;absoluteArcSize=1;arcSize=2;fillColor=none;strokeColor=#FF6666;" parent="1" vertex="1">
          <mxGeometry x="-584.19" y="-662.5" width="107" height="25" as="geometry" />
        </mxCell>
        <mxCell id="LRXPZS-r5NiS0eYnUJOr-184" value="NoClip" style="shadow=1;strokeWidth=1;rounded=1;absoluteArcSize=1;arcSize=2;fillColor=none;strokeColor=#FF6666;" parent="1" vertex="1">
          <mxGeometry x="-467.19000000000005" y="-662.5" width="107" height="25" as="geometry" />
        </mxCell>
        <mxCell id="LRXPZS-r5NiS0eYnUJOr-185" value="Peds" style="shadow=1;strokeWidth=1;rounded=1;absoluteArcSize=1;arcSize=2;fillColor=none;strokeColor=#FF6666;" parent="1" vertex="1">
          <mxGeometry x="-349.51" y="-662.5" width="107" height="25" as="geometry" />
        </mxCell>
        <mxCell id="LRXPZS-r5NiS0eYnUJOr-186" value="Privacy" style="shadow=1;strokeWidth=1;rounded=1;absoluteArcSize=1;arcSize=2;fillColor=none;strokeColor=#FF6666;" parent="1" vertex="1">
          <mxGeometry x="-584.19" y="-630" width="107" height="25" as="geometry" />
        </mxCell>
        <mxCell id="LRXPZS-r5NiS0eYnUJOr-187" value="RLS" style="shadow=1;strokeWidth=1;rounded=1;absoluteArcSize=1;arcSize=2;fillColor=none;strokeColor=#FF6666;sketch=1;curveFitting=1;jiggle=2;" parent="1" vertex="1">
          <mxGeometry x="-769.8800000000001" y="-662.5" width="107" height="25" as="geometry" />
        </mxCell>
        <mxCell id="LRXPZS-r5NiS0eYnUJOr-188" value="Voice" style="shadow=1;strokeWidth=1;rounded=1;absoluteArcSize=1;arcSize=2;fillColor=none;strokeColor=#FF6666;sketch=1;curveFitting=1;jiggle=2;" parent="1" vertex="1">
          <mxGeometry x="-1009.88" y="-630" width="107" height="25" as="geometry" />
        </mxCell>
        <mxCell id="LRXPZS-r5NiS0eYnUJOr-189" value="Tablet" style="shadow=1;strokeWidth=1;rounded=1;absoluteArcSize=1;arcSize=2;fillColor=none;strokeColor=#FF6666;" parent="1" vertex="1">
          <mxGeometry x="-584.19" y="-595" width="107" height="25" as="geometry" />
        </mxCell>
        <mxCell id="LRXPZS-r5NiS0eYnUJOr-190" value="Phone" style="shadow=1;strokeWidth=1;rounded=1;absoluteArcSize=1;arcSize=2;fillColor=none;strokeColor=#FF6666;sketch=1;curveFitting=1;jiggle=2;" parent="1" vertex="1">
          <mxGeometry x="-887.44" y="-630" width="107" height="25" as="geometry" />
        </mxCell>
        <mxCell id="LRXPZS-r5NiS0eYnUJOr-191" value="WalkieTalkie" style="shadow=1;strokeWidth=1;rounded=1;absoluteArcSize=1;arcSize=2;fillColor=none;strokeColor=#FF6666;sketch=1;curveFitting=1;jiggle=2;" parent="1" vertex="1">
          <mxGeometry x="-767.5700000000002" y="-630" width="107" height="25" as="geometry" />
        </mxCell>
        <mxCell id="LRXPZS-r5NiS0eYnUJOr-192" value="Trash" style="shadow=1;strokeWidth=1;rounded=1;absoluteArcSize=1;arcSize=2;fillColor=none;strokeColor=#FF6666;" parent="1" vertex="1">
          <mxGeometry x="-465.69000000000005" y="-630" width="107" height="25" as="geometry" />
        </mxCell>
        <mxCell id="LRXPZS-r5NiS0eYnUJOr-193" value="Tinder" style="shadow=1;strokeWidth=1;rounded=1;absoluteArcSize=1;arcSize=2;fillColor=none;strokeColor=#FF6666;" parent="1" vertex="1">
          <mxGeometry x="-465.69000000000005" y="-595" width="107" height="25" as="geometry" />
        </mxCell>
        <mxCell id="LRXPZS-r5NiS0eYnUJOr-194" value="TTS" style="shadow=1;strokeWidth=1;rounded=1;absoluteArcSize=1;arcSize=2;fillColor=none;strokeColor=#FF6666;" parent="1" vertex="1">
          <mxGeometry x="-584.19" y="-565" width="107" height="25" as="geometry" />
        </mxCell>
        <mxCell id="LRXPZS-r5NiS0eYnUJOr-195" value="Weapons" style="shadow=1;strokeWidth=1;rounded=1;absoluteArcSize=1;arcSize=2;fillColor=none;strokeColor=#FF6666;sketch=1;curveFitting=1;jiggle=2;" parent="1" vertex="1">
          <mxGeometry x="-1008.01" y="-595" width="107" height="25" as="geometry" />
        </mxCell>
        <mxCell id="LRXPZS-r5NiS0eYnUJOr-196" value="Attachments" style="shadow=1;strokeWidth=1;rounded=1;absoluteArcSize=1;arcSize=2;fillColor=none;strokeColor=#FF6666;sketch=1;curveFitting=1;jiggle=2;" parent="1" vertex="1">
          <mxGeometry x="-887.44" y="-595" width="107" height="25" as="geometry" />
        </mxCell>
        <mxCell id="LRXPZS-r5NiS0eYnUJOr-197" value="Vehicle Damage" style="shadow=1;strokeWidth=1;rounded=1;absoluteArcSize=1;arcSize=2;fillColor=none;strokeColor=#FF6666;sketch=1;curveFitting=1;jiggle=2;" parent="1" vertex="1">
          <mxGeometry x="-1008.01" y="-555" width="107" height="25" as="geometry" />
        </mxCell>
        <mxCell id="LRXPZS-r5NiS0eYnUJOr-198" value="Wallet" style="shadow=1;strokeWidth=1;rounded=1;absoluteArcSize=1;arcSize=2;fillColor=none;strokeColor=#FF6666;sketch=1;curveFitting=1;jiggle=2;" parent="1" vertex="1">
          <mxGeometry x="-1009.8199999999999" y="-695.5" width="107" height="25" as="geometry" />
        </mxCell>
        <mxCell id="LRXPZS-r5NiS0eYnUJOr-199" value="Watermark" style="shadow=1;strokeWidth=1;rounded=1;absoluteArcSize=1;arcSize=2;fillColor=none;strokeColor=#FF6666;" parent="1" vertex="1">
          <mxGeometry x="-465.69000000000005" y="-565" width="107" height="25" as="geometry" />
        </mxCell>
        <mxCell id="LRXPZS-r5NiS0eYnUJOr-201" value="World" style="shadow=1;strokeWidth=1;rounded=1;absoluteArcSize=1;arcSize=2;fillColor=none;strokeColor=#FF6666;" parent="1" vertex="1">
          <mxGeometry x="-349.51" y="-630" width="107" height="25" as="geometry" />
        </mxCell>
        <mxCell id="LRXPZS-r5NiS0eYnUJOr-202" value="Fishing Job" style="shadow=1;strokeWidth=1;rounded=1;absoluteArcSize=1;arcSize=2;fillColor=none;" parent="1" vertex="1">
          <mxGeometry x="-1008.01" y="-205" width="107" height="40" as="geometry" />
        </mxCell>
        <mxCell id="LRXPZS-r5NiS0eYnUJOr-205" value="No Flip" style="shadow=1;strokeWidth=1;rounded=1;absoluteArcSize=1;arcSize=2;fillColor=none;strokeColor=#FF6666;sketch=1;curveFitting=1;jiggle=2;" parent="1" vertex="1">
          <mxGeometry x="-887.5" y="-555" width="107" height="25" as="geometry" />
        </mxCell>
        <mxCell id="LRXPZS-r5NiS0eYnUJOr-206" value="webhook" style="shadow=1;strokeWidth=1;rounded=1;absoluteArcSize=1;arcSize=2;fillColor=none;strokeColor=#FF6666;" parent="1" vertex="1">
          <mxGeometry x="-1193" y="-515" width="107" height="40" as="geometry" />
        </mxCell>
        <mxCell id="LRXPZS-r5NiS0eYnUJOr-207" value="Dependencies" style="rounded=1;whiteSpace=wrap;html=1;shadow=0;strokeWidth=2;fillColor=#008a00;fontSize=12;align=center;strokeColor=#005700;arcSize=6;verticalAlign=top;fontColor=#ffffff;glass=0;" parent="1" vertex="1">
          <mxGeometry x="-1596.19" y="-60" width="1377.5" height="150" as="geometry" />
        </mxCell>
        <mxCell id="LRXPZS-r5NiS0eYnUJOr-208" value="" style="shape=image;verticalLabelPosition=bottom;labelBackgroundColor=#ffffff;verticalAlign=top;aspect=fixed;imageAspect=0;image=data:image/svg+xml,PHN2ZyB4bWxuczpjYz0iaHR0cDovL2NyZWF0aXZlY29tbW9ucy5vcmcvbnMjIiB4bWxuczpkYz0iaHR0cDovL3B1cmwub3JnL2RjL2VsZW1lbnRzLzEuMS8iIHhtbG5zOmlua3NjYXBlPSJodHRwOi8vd3d3Lmlua3NjYXBlLm9yZy9uYW1lc3BhY2VzL2lua3NjYXBlIiB4bWxuczpyZGY9Imh0dHA6Ly93d3cudzMub3JnLzE5OTkvMDIvMjItcmRmLXN5bnRheC1ucyMiIHhtbG5zOnNvZGlwb2RpPSJodHRwOi8vc29kaXBvZGkuc291cmNlZm9yZ2UubmV0L0RURC9zb2RpcG9kaS0wLmR0ZCIgeG1sbnM6c3ZnPSJodHRwOi8vd3d3LnczLm9yZy8yMDAwL3N2ZyIgeG1sbnM9Imh0dHA6Ly93d3cudzMub3JnLzIwMDAvc3ZnIiB4bWxuczp4bGluaz0iaHR0cDovL3d3dy53My5vcmcvMTk5OS94bGluayIgdmVyc2lvbj0iMS4xIiBpZD0ic3ZnMTAxMjg5IiBpbmtzY2FwZTp2ZXJzaW9uPSIwLjkyLjMgKDI0MDU1NDYsIDIwMTgtMDMtMTEpIiBzb2RpcG9kaTpkb2NuYW1lPSJtb25nb2RiLnN2ZyIgeD0iMHB4IiB5PSIwcHgiIHZpZXdCb3g9IjAgMCAxMDEuMjggNjQuNDYiIHN0eWxlPSJlbmFibGUtYmFja2dyb3VuZDpuZXcgMCAwIDEwMS4yOCA2NC40NjsiIHhtbDpzcGFjZT0icHJlc2VydmUiPiYjeGE7PHNvZGlwb2RpOm5hbWVkdmlldyBib3JkZXJjb2xvcj0iIzY2NjY2NiIgYm9yZGVyb3BhY2l0eT0iMSIgZml0LW1hcmdpbi1ib3R0b209IjAiIGZpdC1tYXJnaW4tbGVmdD0iMCIgZml0LW1hcmdpbi1yaWdodD0iMCIgZml0LW1hcmdpbi10b3A9IjAiIGdyaWR0b2xlcmFuY2U9IjEwIiBndWlkZXRvbGVyYW5jZT0iMTAiIGlkPSJuYW1lZHZpZXcxMDEyOTEiIGlua3NjYXBlOmN1cnJlbnQtbGF5ZXI9InN2ZzEwMTI4OSIgaW5rc2NhcGU6Y3g9IjY3LjUyMzY1MyIgaW5rc2NhcGU6Y3k9IjQzLjE3NTI0NCIgaW5rc2NhcGU6cGFnZW9wYWNpdHk9IjAiIGlua3NjYXBlOnBhZ2VzaGFkb3c9IjIiIGlua3NjYXBlOndpbmRvdy1oZWlnaHQ9IjEwMTciIGlua3NjYXBlOndpbmRvdy1tYXhpbWl6ZWQ9IjEiIGlua3NjYXBlOndpbmRvdy13aWR0aD0iMTkyMCIgaW5rc2NhcGU6d2luZG93LXg9Ii04IiBpbmtzY2FwZTp3aW5kb3cteT0iLTgiIGlua3NjYXBlOnpvb209IjkuODQ1NDgxNCIgb2JqZWN0dG9sZXJhbmNlPSIxMCIgcGFnZWNvbG9yPSIjZmZmZmZmIiBzaG93Z3JpZD0iZmFsc2UiPiYjeGE7CTwvc29kaXBvZGk6bmFtZWR2aWV3PiYjeGE7PGcgaWQ9ImcxMDEyODciIHRyYW5zZm9ybT0idHJhbnNsYXRlKC0wLjY0NTM3OTIxLC0wLjk0MzY1ODU5KSI+JiN4YTsJPHRpdGxlIGlkPSJ0aXRsZTEwMTIxNyI+UGFnZS0xPC90aXRsZT4mI3hhOwk8ZyBpZD0iZ3JvdXAzOTM5LTEiIHRyYW5zZm9ybT0idHJhbnNsYXRlKDAuNTc1NTk0LC0wLjU4MDQ2NikiPiYjeGE7CQk8dGl0bGUgaWQ9InRpdGxlMTAxMjE5Ij5Nb25nb0RCPC90aXRsZT4mI3hhOwkJPGcgaWQ9Imdyb3VwMzk0MC0yIj4mI3hhOwkJCTx0aXRsZSBpZD0idGl0bGUxMDEyMjEiPkxheWVyIDE8L3RpdGxlPiYjeGE7CQkJPGcgaWQ9Imdyb3VwMzk0MS0zIj4mI3hhOwkJCQk8dGl0bGUgaWQ9InRpdGxlMTAxMjIzIj5zdmdfMTwvdGl0bGU+JiN4YTsJCQkJPGcgaWQ9Imdyb3VwMzk0Mi00IiB0cmFuc2Zvcm09InRyYW5zbGF0ZSgzOS4zOTksLTIwLjUxMTUpIj4mI3hhOwkJCQkJPHRpdGxlIGlkPSJ0aXRsZTEwMTIyNSI+Zzg2MjwvdGl0bGU+JiN4YTsJCQkJCTxnIGlkPSJzaGFwZTM5NDMtNSIgdHJhbnNmb3JtPSJ0cmFuc2xhdGUoOS43MDgzNywtNS44MDEwNykiPiYjeGE7CQkJCQkJPHRpdGxlIGlkPSJ0aXRsZTEwMTIyNyI+cGF0aDI8L3RpdGxlPiYjeGE7CQkJCQkJPHBhdGggaWQ9InBhdGgxMDEyMjkiIGlua3NjYXBlOmNvbm5lY3Rvci1jdXJ2YXR1cmU9IjAiIHN0eWxlPSJmaWxsOiM1OTk2MzY7IiBkPSJNMC4xNCwyNy45NmMwLjM0LDAuNjIsMC43OSwxLjYsMS4xOCwyLjIgICAgICAgIGMwLjI2LDAuNDEsMC41NSwwLjc3LDAuODksMS4xYzAuOTgsMC45OSwxLjkxLDIuMDIsMi43NSwzLjEyYzEuOTksMi42MSwzLjMzLDUuNTEsNC4yOSw4LjY1YzAuNTgsMS45MiwwLjg5LDMuODksMC45MSw1Ljg4ICAgICAgICBjMC4xLDUuOTQtMS45NCwxMS4wNS02LjA2LDE1LjI5Yy0wLjY3LDAuNjctMS4zOSwxLjI5LTIuMTYsMS44NWMtMC40MSwwLTAuNi0wLjMyLTAuNzctMC42Yy0wLjMxLTAuNTMtMC41LTEuMTMtMC41OS0xLjczICAgICAgICBjLTAuMTUtMC43Mi0wLjI0LTEuNDQtMC4yLTIuMThjMC0wLjEyLDAtMC4yMiwwLTAuMzRDMC4zNiw2MS4xMywwLDI4LjEyLDAuMTQsMjcuOTZ6Ii8+JiN4YTsJCQkJCTwvZz4mI3hhOwkJCQkJPGcgaWQ9InNoYXBlMzk0NC03IiB0cmFuc2Zvcm09InRyYW5zbGF0ZSgwLC01LjM5MzU3KSI+JiN4YTsJCQkJCQk8dGl0bGUgaWQ9InRpdGxlMTAxMjMyIj5wYXRoODwvdGl0bGU+JiN4YTsJCQkJCQk8cGF0aCBpZD0icGF0aDEwMTIzNCIgaW5rc2NhcGU6Y29ubmVjdG9yLWN1cnZhdHVyZT0iMCIgc3R5bGU9ImZpbGw6IzZDQUM0ODsiIGQ9Ik05Ljg1LDI3LjQ4Yy0wLjA1LTAuMS0wLjA5LTAuMDMtMC4xNCwwLjAyICAgICAgICBjMC4wMiwwLjQ4LTAuMTUsMC45MS0wLjQxLDEuMzJjLTAuMjksMC40MS0wLjY3LDAuNzItMS4wNSwxLjA1Yy0yLjE0LDEuODUtMy44Miw0LjA4LTUuMTYsNi41NyAgICAgICAgYy0xLjc3LDMuMzYtMi43MSw2Ljk1LTIuOTcsMTAuNzRDMCw0OC41NSwwLjU1LDUzLjM2LDAuOTgsNTQuNzZjMS4xOCwzLjY5LDMuMjksNi43OCw2LjAyLDkuNDYgICAgICAgIGMwLjY3LDAuNjUsMS4zOSwxLjI1LDIuMTMsMS44M2MwLjIyLDAsMC4yNC0wLjIsMC4yOS0wLjM0YzAuMS0wLjMxLDAuMTctMC42MiwwLjIyLTAuOTNjMC4yMS0xLjIsMC4zMy0yLjQsMC40OC0zLjYgICAgICAgIEMxMC4xMiw2MS4wNCw5LjkyLDI3LjYsOS44NSwyNy40OHoiLz4mI3hhOwkJCQkJPC9nPiYjeGE7CQkJCQk8ZyBpZD0ic2hhcGUzOTQ1LTkiIHRyYW5zZm9ybT0idHJhbnNsYXRlKDkuMTMzMDcpIj4mI3hhOwkJCQkJCTx0aXRsZSBpZD0idGl0bGUxMDEyMzciPnBhdGgxMDwvdGl0bGU+JiN4YTsJCQkJCQk8cGF0aCBpZD0icGF0aDEwMTIzOSIgaW5rc2NhcGU6Y29ubmVjdG9yLWN1cnZhdHVyZT0iMCIgc3R5bGU9ImZpbGw6I0MyQkZCRjsiIGQ9Ik0xLjg5LDYxLjcxYzAuMDUtMC41NSwwLjMyLTEuMDEsMC42LTEuNDcgICAgICAgIGMtMC4yOC0wLjEyLTAuNS0wLjM2LTAuNjctMC42MmMtMC4xNC0wLjI0LTAuMjYtMC41My0wLjM2LTAuNzljLTAuMzMtMS4wMS0wLjQxLTIuMDYtMC41LTMuMDlsMCwwYzAtMC4xLDAtMC4yMiwwLTAuMzFsMCwwICAgICAgICBjMC0wLjEsMC0wLjIyLDAtMC4zMmMtMC4xMiwwLjEtMC4xNCwwLjkyLTAuMTQsMS4wNGMtMC4wOCwxLjEtMC4yMiwyLjE4LTAuNDQsMy4yM0MwLjMxLDU5LjgxLDAuMjYsNjAuMjQsMCw2MC42MyAgICAgICAgYzAsMC4wNSwwLDAuMDksMC4wMiwwLjE3YzAuNDQsMS4yNywwLjU2LDIuNTYsMC42MywzLjg4YzAsMC4xNywwLDAuMzEsMCwwLjQ4YzAsMC41Ny0wLjAzLDAuNDUsMC40NSwwLjY1ICAgICAgICBjMC4xOSwwLjA3LDAuNDEsMC4wOSwwLjYsMC4yNGMwLjE1LDAsMC4xNy0wLjEyLDAuMTctMC4yMkMxLjg1LDY1LjU3LDEuOCw2NS4zLDEuOCw2NS4wNGMwLTAuNzQtMC4wMy0xLjQ2LDAtMi4yMSAgICAgICAgQzEuNzcsNjIuNDUsMS44NSw2Mi4wNywxLjg5LDYxLjcxeiIvPiYjeGE7CQkJCQk8L2c+JiN4YTsJCQkJPC9nPiYjeGE7CQkJCTxnIGlkPSJncm91cDM5NDYtMTEiPiYjeGE7CQkJCQk8dGl0bGUgaWQ9InRpdGxlMTAxMjQzIj5nODgwPC90aXRsZT4mI3hhOwkJCQkJPGcgaWQ9InNoYXBlMzk0Ny0xMiIgdHJhbnNmb3JtPSJ0cmFuc2xhdGUoMCwtNi4xMTU1NikiPiYjeGE7CQkJCQkJPHRpdGxlIGlkPSJ0aXRsZTEwMTI0NSI+cGF0aDQ8L3RpdGxlPiYjeGE7CQkJCQkJPHBhdGggaWQ9InBhdGgxMDEyNDciIGlua3NjYXBlOmNvbm5lY3Rvci1jdXJ2YXR1cmU9IjAiIHN0eWxlPSJmaWxsOiM0NzQ3NEE7IiBkPSJNMy44NSw2MS40N2MwLDAuODgsMCwxLjc2LDAsMi42MiAgICAgICAgYzAsMC4xMSwwLDAuMjEsMC4wMiwwLjMxYzAuMDMsMC4zMiwwLjIyLDAuNTEsMC41MiwwLjU5YzAuMjYsMC4wNywwLjUzLDAuMTIsMC43OSwwLjE2YzAuMTYsMC4wMSwwLjIxLDAuMDgsMC4yMywwLjI0ICAgICAgICBjMC4wMSwwLjU5LTAuMDQsMC42Ni0wLjYxLDAuNjJjLTEuMzMtMC4wNy0yLjY2LTAuMDktMy45OSwwYy0wLjA1LDAtMC4xLDAtMC4xNCwwYy0wLjQxLDAuMDItMC40NS0wLjAyLTAuNDUtMC40MyAgICAgICAgYzAtMC4wNywwLjAyLTAuMTYsMC4wMi0wLjIzYzAtMC4xMywwLjA5LTAuMTksMC4yMS0wLjE5YzAuMjgtMC4wMywwLjUzLTAuMSwwLjc5LTAuMTVjMC4zNy0wLjA5LDAuNTctMC4zMSwwLjYxLTAuNjcgICAgICAgIGMwLjA1LTAuNCwwLjA1LTAuODIsMC4wNS0xLjIxYzAuMDUtMS41NCwwLjAzLTMuMSwwLjAyLTQuNjNjMC0wLjMtMC4xMi0wLjUyLTAuMzgtMC42NmMtMC4zMS0wLjE3LTAuNjQtMC4zMS0wLjk5LTAuNDIgICAgICAgIGMtMC4xLTAuMDMtMC4yLTAuMDUtMC4yOS0wLjFDMC4wMiw1Ny4yLDAsNTYuOTgsMC4yNCw1Ni44NGMwLjA5LTAuMDUsMC4xOS0wLjA5LDAuMy0wLjExYzEuMDUtMC4xNSwyLjA3LTAuNDEsMy4wNy0wLjc3ICAgICAgICBjMC4yMS0wLjA3LDAuMjYtMC4wNiwwLjI4LDAuMTVjMC4wMSwwLjE0LDAsMC4yOC0wLjAyLDAuNGMtMC4wMywwLjIyLTAuMDMsMC40NS0wLjAzLDAuNjZjMCwwLjA4LDAuMDEsMC4xNywwLjEsMC4yMiAgICAgICAgYzAuMDksMC4wNSwwLjE3LDAsMC4yNC0wLjA1YzAuMzYtMC4yOCwwLjczLTAuNTQsMS4xMi0wLjc2YzAuNTctMC4zMSwxLjE4LTAuNTksMS44My0wLjY4YzAuOC0wLjEsMS40OSwwLjExLDIuMSwwLjYzICAgICAgICBjMC4yNSwwLjIyLDAuNDYsMC40OCwwLjY1LDAuNzZjMC4xNywwLjI0LDAuMTksMC4yNiwwLjQyLDAuMDhjMC42NS0wLjQ4LDEuMzQtMC45MSwyLjA5LTEuMjJjMC43Ny0wLjMzLDEuNTctMC4zOCwyLjM2LTAuMTEgICAgICAgIGMwLjgyLDAuMywxLjM3LDAuODcsMS43LDEuNjRjMC4yNywwLjYzLDAuMzksMS4yOCwwLjM5LDEuOTRjMCwxLjAyLDAsMi4wNCwwLDMuMDdjMCwwLjUyLDAsMS4wNCwwLDEuNTYgICAgICAgIGMwLDAuMzEsMC4xNCwwLjUyLDAuNDQsMC42NmMwLjMyLDAuMTMsMC42OSwwLjE5LDEuMDMsMC4yNWMwLjIzLDAuMDYsMC4yMywwLjA2LDAuMjMsMC4yOGMtMC4wNCwwLjU3LTAuMDksMC42MS0wLjY0LDAuNTcgICAgICAgIGMtMS4zOC0wLjA5LTIuNzgtMC4wNy00LjE3LDBjLTAuMjcsMC4wMi0wLjI3LDAuMDItMC4yOS0wLjI2YzAtMC4wMywwLTAuMDUsMC0wLjA4Yy0wLjAyLTAuNDctMC4wMi0wLjQ3LDAuNDMtMC41NyAgICAgICAgYzAuMTYtMC4wNCwwLjMtMC4wNywwLjQ1LTAuMTNjMC4zNS0wLjEsMC41Mi0wLjMyLDAuNTQtMC42N2MwLjAxLTAuNDMsMC4wMy0wLjg2LDAuMDUtMS4yOWMwLTEuMTMsMC4wMy0yLjI3LTAuMDQtMy4zOSAgICAgICAgYy0wLjAxLTAuMjktMC4wNi0wLjU5LTAuMTktMC44OGMtMC40My0xLjA2LTEuMzgtMS40NC0yLjI5LTEuMzNjLTAuNjksMC4wNy0xLjMsMC4zNC0xLjg3LDAuNzQgICAgICAgIGMtMC4xMiwwLjA5LTAuMjEsMC4xOS0wLjE5LDAuMzZjMC4xNiwxLjExLDAuMDUsMi4yMSwwLjA3LDMuMzJjMC4wMiwwLjc5LDAsMS42MSwwLDIuNGMwLDAuNDMsMC4xNywwLjY0LDAuNTksMC43NCAgICAgICAgYzAuMjYsMC4wNywwLjUyLDAuMTMsMC43OSwwLjE4YzAuMTIsMC4wMSwwLjE5LDAuMDcsMC4xOSwwLjJjMCwwLjA2LDAsMC4xMSwwLDAuMTRjLTAuMDIsMC40OS0wLjA1LDAuNTItMC41MywwLjUgICAgICAgIGMtMS4zOS0wLjA3LTIuNzctMC4wNS00LjEzLDBjLTAuNDcsMC4wMi0wLjUyLTAuMDMtMC40OS0wLjUxYzAuMDItMC4yOCwwLjA2LTAuMywwLjMxLTAuMzVjMC4xOS0wLjAzLDAuMzgtMC4wNywwLjU3LTAuMSAgICAgICAgYzAuNTItMC4xMSwwLjctMC4zLDAuNzMtMC44M2MwLjAyLTAuMzgsMC4wNS0wLjc4LDAuMDUtMS4xNmMwLjAyLTEuMTYsMC4wNS0yLjMyLTAuMDMtMy40N2MtMC4wNC0wLjQzLTAuMTQtMC44NS0wLjM3LTEuMjUgICAgICAgIGMtMC4zNC0wLjY0LTAuODktMC45Ni0xLjYyLTFjLTAuNzQtMC4wNS0xLjQsMC4yMy0yLjAyLDAuNTdjLTAuNDMsMC4yNC0wLjYyLDAuNTUtMC41OSwxLjA2ICAgICAgICBDMy44Nyw1OS44MSwzLjg0LDYwLjY0LDMuODUsNjEuNDdDMy44NCw2MS40NywzLjg1LDYxLjQ3LDMuODUsNjEuNDdDMy44NSw2MS40NywzLjg1LDYxLjQ3LDMuODUsNjEuNDd6Ii8+JiN4YTsJCQkJCTwvZz4mI3hhOwkJCQkJPGcgaWQ9Imdyb3VwMzk0OC0xNCIgdHJhbnNmb3JtPSJ0cmFuc2xhdGUoMjAuMzY3OSkiPiYjeGE7CQkJCQkJPHRpdGxlIGlkPSJ0aXRsZTEwMTI1MCI+Zzg3MDwvdGl0bGU+JiN4YTsJCQkJCQk8ZyBpZD0ic2hhcGUzOTQ5LTE1IiB0cmFuc2Zvcm09InRyYW5zbGF0ZSgxMS45NzIsLTUuOTYwMDYpIj4mI3hhOwkJCQkJCQk8dGl0bGUgaWQ9InRpdGxlMTAxMjUyIj5wYXRoNjwvdGl0bGU+JiN4YTsJCQkJCQkJPHBhdGggaWQ9InBhdGgxMDEyNTQiIGlua3NjYXBlOmNvbm5lY3Rvci1jdXJ2YXR1cmU9IjAiIHN0eWxlPSJmaWxsOiM0NzQ3NEE7IiBkPSJNNC4wNiw2MS40MmMwLDAuODEsMCwxLjYyLDAsMi40MyAgICAgICAgIGMwLDAuMTcsMC4wMiwwLjM1LDAuMDMsMC41MmMwLjA0LDAuMjYsMC4xOCwwLjQxLDAuNDIsMC40OGMwLjI5LDAuMDksMC42LDAuMTQsMC45MSwwLjE2YzAuMTgsMC4wMiwwLjIxLDAuMDksMC4yMywwLjIyICAgICAgICAgYzAsMC4wNCwwLDAuMDcsMCwwLjEyYy0wLjAyLDAuNjEtMC4wOSwwLjY4LTAuNjcsMC42NGMtMS4zMi0wLjA4LTIuNjMtMC4wNy0zLjk0LDBjLTAuMTgsMC0wLjM1LDAuMDItMC41MiwwLjAyICAgICAgICAgYy0wLjExLDAtMC4xNC0wLjA1LTAuMTYtMC4xMmMtMC4wNS0wLjI0LTAuMDUtMC40OCwwLTAuNzNjMC4wMi0wLjEsMC4wOS0wLjEzLDAuMTktMC4xNWMwLjI0LTAuMDQsMC40Ny0wLjA5LDAuNzEtMC4xNCAgICAgICAgIGMwLjQzLTAuMSwwLjU5LTAuMjgsMC42MS0wLjcyYzAuMDMtMC40OSwwLjA1LTAuOTcsMC4wNS0xLjQ2YzAtMS40MSwwLTIuODMsMC00LjI1YzAtMC4zMS0wLjEyLTAuNS0wLjQtMC42NCAgICAgICAgIGMtMC4zMS0wLjE3LTAuNjQtMC4yOS0wLjk4LTAuNDFjLTAuMTEtMC4wMy0wLjIxLTAuMDctMC4zLTAuMTJDMC4wMiw1Ny4xMSwwLDU2Ljg5LDAuMjEsNTYuNzJjMC4xLTAuMDksMC4yLTAuMTIsMC4zNC0wLjE0ICAgICAgICAgYzEuMTEtMC4xNywyLjE4LTAuNDIsMy4yMi0wLjgzYzAuMTItMC4wNSwwLjE3LTAuMDIsMC4yMiwwLjA5YzAuMDUsMC4xLDAuMDcsMC4yMiwwLjA1LDAuMzRjLTAuMDEsMC4yOC0wLjAzLDAuNTQtMC4wNSwwLjgxICAgICAgICAgYzAsMC4xMS0wLjA1LDAuMjQsMC4wNCwwLjNjMC4xLDAuMDcsMC4xNy0wLjA5LDAuMjUtMC4xNGMwLjUyLTAuNDIsMS4wOC0wLjgsMS42OC0xLjA3YzAuNTQtMC4yNCwxLjA5LTAuNDIsMS43MS0wLjM4ICAgICAgICAgYzEuMTYsMC4wNywxLjk5LDAuNjUsMi41MiwxLjY3YzAuMjgsMC41NCwwLjQsMS4xMywwLjQ1LDEuNzNjMC4wNCwwLjQyLDAuMDUsMC44NSwwLjA1LDEuMjhjMCwxLjE5LDAuMDIsMi4zNywwLjAyLDMuNTYgICAgICAgICBjMCwwLjA4LDAsMC4xNywwLDAuMjZjMC4wMiwwLjI5LDAuMTIsMC40OCwwLjQyLDAuNThjMC4zMSwwLjExLDAuNiwwLjE4LDAuOTMsMC4yM2MwLjI3LDAuMDMsMC4yOSwwLjA5LDAuMzEsMC4zNCAgICAgICAgIGMwLDAuMDQsMCwwLjA2LDAsMC4wOWMtMC4wNCwwLjU5LTAuMDcsMC42MS0wLjY2LDAuNTdjLTEuMjktMC4wNy0yLjU5LTAuMDctMy44NywwYy0wLjE3LDAuMDItMC4zNCwwLTAuNTIsMC4wMiAgICAgICAgIGMtMC4xLDAtMC4xNy0wLjAyLTAuMTktMC4xMmMtMC4wMy0wLjIzLTAuMDYtMC40NS0wLjAxLTAuNjljMC4wMS0wLjExLDAuMDctMC4xNiwwLjE5LTAuMThjMC4yNi0wLjAzLDAuNTMtMC4wNywwLjc5LTAuMTMgICAgICAgICBjMC4yOC0wLjA3LDAuNDMtMC4yNSwwLjQ3LTAuNTJjMC4wMi0wLjE2LDAuMDMtMC4zMywwLjAzLTAuNDljMC0xLjIxLDAtMi40Mi0wLjAxLTMuNjFjMC0wLjQxLTAuMDItMC44My0wLjExLTEuMjQgICAgICAgICBjLTAuMi0wLjktMC44OC0xLjUtMS43OS0xLjYxYy0wLjgtMC4wOC0xLjUxLDAuMTItMi4xOCwwLjU2Yy0wLjMzLDAuMi0wLjQ3LDAuNS0wLjQ3LDAuODZjMCwwLjYsMCwxLjIxLDAsMS44MyAgICAgICAgIGMwLDAuMjYsMCwwLjUyLDAsMC43OEM0LjA0LDYxLjQyLDQuMDQsNjEuNDIsNC4wNiw2MS40MkM0LjA2LDYxLjQyLDQuMDYsNjEuNDIsNC4wNiw2MS40MnoiLz4mI3hhOwkJCQkJCTwvZz4mI3hhOwkJCQkJCTxnIGlkPSJzaGFwZTM5NTAtMTciIHRyYW5zZm9ybT0idHJhbnNsYXRlKDUwLjgwNzYsLTYuMTE1NTIpIj4mI3hhOwkJCQkJCQk8dGl0bGUgaWQ9InRpdGxlMTAxMjU3Ij5wYXRoMTI8L3RpdGxlPiYjeGE7CQkJCQkJCTxwYXRoIGlkPSJwYXRoMTAxMjU5IiBpbmtzY2FwZTpjb25uZWN0b3ItY3VydmF0dXJlPSIwIiBzdHlsZT0iZmlsbDojQzJCRkJGOyIgZD0iTTE1LjgyLDU2LjY4ICAgICAgICAgYy0wLjE5LTEuMjYtMC42NS0yLjM4LTEuNDYtMy4zN2MtMC43My0wLjg4LTEuNjEtMS41My0yLjY2LTEuOTdjLTEuMDktMC40NS0yLjI1LTAuNTgtMy40Mi0wLjYyICAgICAgICAgYy0wLjQ5LTAuMDItNy4wOSwwLjA5LTcuNTcsMGMtMC4xMi0wLjAyLTAuMjEsMC4wMi0wLjI4LDAuMTJjLTAuMDgsMC4xNC0wLjE3LDAuMjYtMC4yMiwwLjRDMCw1MS43MSwwLDUxLjY3LDAuNSw1MS43NCAgICAgICAgIGMwLjQyLDAuMDcsMC44MSwwLjEsMS4yMSwwLjIzYzAuMzYsMC4xMiwwLjYyLDAuMzIsMC43MSwwLjcyYzAuMDMsMC4xOSwwLjA3LDYuMjcsMC4wNyw5LjExYzAsMC42Ny0wLjAyLDEuMzQtMC4wNywyLjAyICAgICAgICAgYy0wLjAyLDAuMTUtMC4wNCwwLjMxLTAuMDksMC40NWMtMC4wNywwLjItMC4xOSwwLjM4LTAuNCwwLjQ2Yy0wLjIyLDAuMTEtMC40NiwwLjE4LTAuNzIsMC4xOSAgICAgICAgIGMtMC40NywwLjA1LTAuNTQsMC4wNy0wLjY5LDAuNTljLTAuMDIsMC4wNy0wLjA0LDAuMTQtMC4wNSwwLjE5Yy0wLjA0LDAuMjItMC4wMiwwLjI2LDAuMiwwLjI2ICAgICAgICAgYzEuMDQsMC4wMiw0LjMxLDAuMDUsNS4xNywwLjA1YzAuNDgtMC4wMiwxLjI2LDAuMDQsMi4wMi0wLjAzYzAuNDctMC4wNiwwLjkzLTAuMDksMS40LTAuMThjMS41OS0wLjI5LDMuMDEtMC45NSw0LjIyLTIgICAgICAgICBjMC43LTAuNjIsMS4yNC0xLjM1LDEuNjUtMi4xOGMwLjQ5LTAuOTYsMC42OS0yLjAyLDAuNzUtMy4wOUMxNS45Niw1Ny45MywxNS45Myw1Ny4zLDE1LjgyLDU2LjY4TDE1LjgyLDU2LjY4eiBNMTMuMzIsNTkuMTQgICAgICAgICBjLTAuMDcsMS4xLTAuMjksMi4xNy0wLjg2LDMuMTRjLTAuNzMsMS4yNi0xLjc3LDIuMTQtMy4yLDIuNDVjLTAuNjIsMC4xNC0xLjI0LDAuMTktMS44OCwwLjExICAgICAgICAgYy0wLjQ3LTAuMDYtMC45Mi0wLjExLTEuMzUtMC4yNmMtMC43OC0wLjI4LTEuMDUtMC43Ni0xLjA3LTEuNTFjLTAuMDQtMS4wOCwwLTguNy0wLjAyLTEwLjQxYzAtMC42MywwLjI4LTAuNzYsMC43My0wLjc4ICAgICAgICAgYzAuNjctMC4wNSwxLjM2LTAuMDQsMi4wMywwLjAzYzAuNzMsMC4wNywxLjQyLDAuMjUsMi4xLDAuNTJjMC41LDAuMjEsMC45NiwwLjUsMS4zNiwwLjg1YzAuOTMsMC43OSwxLjU1LDEuOCwxLjg4LDIuOTcgICAgICAgICBDMTMuMzIsNTcuMiwxMy4zNyw1OC4xNywxMy4zMiw1OS4xNHoiLz4mI3hhOwkJCQkJCTwvZz4mI3hhOwkJCQkJCTxnIGlkPSJzaGFwZTM5NTEtMTkiIHRyYW5zZm9ybT0idHJhbnNsYXRlKDY3Ljg5MzIsLTYuMDExOSkiPiYjeGE7CQkJCQkJCTx0aXRsZSBpZD0idGl0bGUxMDEyNjIiPnBhdGgxNDwvdGl0bGU+JiN4YTsJCQkJCQkJPHBhdGggaWQ9InBhdGgxMDEyNjQiIGlua3NjYXBlOmNvbm5lY3Rvci1jdXJ2YXR1cmU9IjAiIHN0eWxlPSJmaWxsOiNDMkJGQkY7IiBkPSJNMTMuMDksNjAuNzJjMC0wLjEsMC0wLjE5LTAuMDEtMC4yOSAgICAgICAgIGMtMC4xNi0wLjk1LTAuNjYtMS42Ny0xLjQ0LTIuMjNjLTAuNS0wLjM2LTEuMDctMC42LTEuNjUtMC43OGMtMC4xMS0wLjAzLTAuMTktMC4wNi0wLjMtMC4wOGMwLjAyLTAuMDksMC4wNy0wLjExLDAuMTItMC4xMiAgICAgICAgIGMwLjM1LTAuMTgsMC42OC0wLjM3LDAuOTctMC42MmMwLjU0LTAuNDUsMC45LTEuMDEsMS4wNy0xLjY4YzAuMS0wLjM2LDAuMS0wLjczLDAuMDctMS4xMWMtMC4wOS0wLjk1LTAuNS0xLjY5LTEuMjYtMi4yNCAgICAgICAgIGMtMC44LTAuNTktMS43My0wLjgzLTIuNy0wLjg1Yy0xLjg2LTAuMDMtMy43NCwwLTUuNjEsMGMtMC41NCwwLTEuMDcsMC4wNC0xLjYyLTAuMDVjLTAuMTEtMC4wMi0wLjI1LTAuMDUtMC4zMywwLjA3ICAgICAgICAgYy0wLjE0LDAuMjItMC4yOCwwLjQ1LTAuMzMsMC43MWMtMC4wMiwwLjEyLDAuMDIsMC4xOSwwLjE1LDAuMmMwLjQsMC4wNiwwLjgsMC4xMywxLjIsMC4xOGMwLjQ2LDAuMDcsMC43OSwwLjMzLDAuODMsMC43NCAgICAgICAgIGMwLjAzLDAuMjksMC4wNSwwLjU3LDAuMDUsMC44NmMwLDEuMDgtMC4wMiwyLjE2LTAuMDQsMy4yM2MtMC4wMywyLjEzLTAuMDEsNC4yNy0wLjAxLDYuNGMwLDAuMzgtMC4wNiwwLjc0LTAuMTMsMS4xMiAgICAgICAgIGMtMC4wNSwwLjI2LTAuMTksMC40My0wLjQ0LDAuNTJDMS4zMyw2NC44LDEsNjQuOTEsMC42NCw2NC45MWMtMC4yMywwLTAuMzYsMC4wOC0wLjQ1LDAuMjljLTAuMDcsMC4xNS0wLjE0LDAuMzMtMC4xNiwwLjQ4ICAgICAgICAgQzAsNjUuODksMC4wNSw2NS45NiwwLjI2LDY1LjkyYzAuMTUtMC4wMSw1Ljg2LDAuMTMsNi45MywwLjAyYzAuNjQtMC4wNywxLjI4LTAuMTUsMS45LTAuMzRjMS4wOS0wLjM1LDIuMDktMC44NSwyLjg4LTEuNyAgICAgICAgIGMwLjY2LTAuNjksMS4wNC0xLjUyLDEuMDctMi40OEMxMy4wOSw2MS4xOSwxMy4wOSw2MC45NywxMy4wOSw2MC43MnogTTQuNzIsNTMuNjZjMC4wMy0wLjQ3LDAuMDMtMC45MiwwLjA1LTEuMzggICAgICAgICBjMC0wLjI2LDAuMS0wLjM4LDAuMzYtMC40NGMwLjQyLTAuMDgsMC44My0wLjA1LDEuMjQtMC4wM2MwLjQyLDAuMDMsMC44MiwwLjA5LDEuMjMsMC4yMWMwLjc2LDAuMjIsMS4zNSwwLjY1LDEuNjksMS4zOCAgICAgICAgIGMwLjE2LDAuMzMsMC4yNSwwLjY5LDAuMjUsMS4wNWMwLjAxLDAuNDktMC4wMiwwLjk1LTAuMjEsMS40MmMtMC4yOSwwLjY0LTAuNzYsMS4wNS0xLjQ0LDEuMTcgICAgICAgICBjLTAuNjcsMC4xMy0yLjU5LDAuMDctMi44OCwwLjA3Yy0wLjI2LDAtMC4yOC0wLjAzLTAuMjgtMC4yOWMwLTAuNTUsMC0xLjExLDAtMS42NGwwLDBDNC43LDU0LjcsNC42OCw1NC4xOCw0LjcyLDUzLjY2eiAgICAgICAgICBNMTAuMzMsNjIuOTVjLTAuMjksMC43OC0wLjgzLDEuMzItMS41OSwxLjYxYy0wLjQxLDAuMTYtMC44MywwLjI0LTEuMjgsMC4yMmMtMC41My0wLjAxLTEuMDcsMC0xLjYtMC4xICAgICAgICAgYy0wLjczLTAuMTUtMS4wNi0wLjg1LTEuMTEtMS4zNWMtMC4wOS0wLjg4LTAuMDMtMS43OC0wLjA1LTIuNDNjMC0wLjkyLDAtMS41OSwwLTIuMjhjMC0wLjI4LDAuMDMtMC4zNywwLjMzLTAuMzcgICAgICAgICBjMC41My0wLjAxLDEuMDctMC4wMywxLjYyLDAuMDJjMC4zOCwwLjA0LDAuNzQsMC4wNywxLjExLDAuMTRjMC43NywwLjE3LDEuNDgsMC40NywyLjA0LDEuMDdjMC40NCwwLjQ4LDAuNjksMS4wNywwLjc0LDEuNzEgICAgICAgICBDMTAuNTksNjEuOCwxMC41Niw2Mi4zOCwxMC4zMyw2Mi45NUMxMC4zMyw2Mi45NSwxMC4zMyw2Mi45NSwxMC4zMyw2Mi45NXoiLz4mI3hhOwkJCQkJCTwvZz4mI3hhOwkJCQkJCTxnIGlkPSJzaGFwZTM5NTItMjEiIHRyYW5zZm9ybT0idHJhbnNsYXRlKDI1LjU4NTIpIj4mI3hhOwkJCQkJCQk8dGl0bGUgaWQ9InRpdGxlMTAxMjY3Ij5wYXRoMTY8L3RpdGxlPiYjeGE7CQkJCQkJCTxwYXRoIGlkPSJwYXRoMTAxMjY5IiBpbmtzY2FwZTpjb25uZWN0b3ItY3VydmF0dXJlPSIwIiBzdHlsZT0iZmlsbDojNDc0NzRBOyIgZD0iTTguNzQsNTEuNzJjMC4xNiwwLjAyLDAuMzEsMC4wNiwwLjQ1LDAuMDcgICAgICAgICBjMC40OCwwLjAyLDEuMDUtMC4xNSwxLjIzLTAuODNjMC4wOC0wLjMyLDAuMS0wLjY0LDAtMC45OGMtMC4xMSwwLTAuMTYsMC4wOS0wLjIxLDAuMTJjLTAuMjYsMC4yMS0wLjU1LDAuMzMtMC44NiwwLjM2ICAgICAgICAgQzguNzIsNTAuNTMsOC4xLDUwLjUsNy41LDUwLjI3Yy0wLjI4LTAuMS0wLjU2LTAuMi0wLjg1LTAuMjljLTAuNTktMC4xOS0xLjIxLTAuMjgtMS44My0wLjI0ICAgICAgICAgYy0wLjg4LDAuMDctMS43MSwwLjM2LTIuNDksMC43N2MtMC44MywwLjQ1LTEuNDEsMS4xMy0xLjY5LDIuMDRjLTAuMTYsMC41NC0wLjE3LDEuMDktMC4xLDEuNjRjMC4xNywxLjI3LDAuODIsMi4xNSwyLDIuNjEgICAgICAgICBjMC4wNywwLjAyLDAuMTIsMC4wNSwwLjE5LDAuMDdjMC4xNiwwLjA5LDAuMTcsMC4xNywwLjAzLDAuM2MtMC4xMywwLjEtMC4yNywwLjItMC40MywwLjI5Yy0wLjM0LDAuMjEtMC42OSwwLjQxLTEuMDMsMC42NCAgICAgICAgIGMtMC4yNiwwLjE1LTAuMywwLjI4LTAuMjEsMC41NWMwLjEsMC4zMywwLjI5LDAuNjEsMC41NSwwLjgzYzAuMjQsMC4yMSwwLjUsMC4zNiwwLjgsMC40OGMwLjE5LDAuMDksMC4xOSwwLjE0LDAuMDEsMC4yOCAgICAgICAgIGMtMC4zMywwLjI0LTAuNjUsMC40Ny0wLjk4LDAuNzFjLTAuMzMsMC4yNC0wLjY2LDAuNTItMC45MywwLjgzYy0wLjQsMC40NS0wLjU0LDAuOTctMC40MiwxLjU1ICAgICAgICAgYzAuMTQsMC42MywwLjQzLDEuMTMsMC45LDEuNTZDMS40Nyw2NS4zLDIsNjUuNiwyLjYxLDY1Ljc1YzAuOTcsMC4yOCwxLjk3LDAuMywyLjk1LDAuMTFjMS40Mi0wLjI2LDIuNjUtMC45LDMuNjMtMS45NiAgICAgICAgIGMwLjY3LTAuNywxLjA3LTEuNTMsMS4xMS0yLjU0YzAuMDUtMS4yMS0wLjY5LTIuMjItMS44Ny0yLjUyYy0wLjMxLTAuMDctMC42Mi0wLjEyLTAuOTMtMC4xN2MtMC45NS0wLjEyLTEuOS0wLjE3LTIuODUtMC4yNCAgICAgICAgIGMtMC4zMS0wLjAyLTAuNjItMC4wNy0wLjg4LTAuMjNjLTAuMzMtMC4yLTAuNDItMC42LTAuMjEtMC44NmMwLjE1LTAuMTksMC4zNC0wLjMxLDAuNTktMC4zM2MwLjE5LTAuMDIsMC4zNi0wLjAzLDAuNTUtMC4wNSAgICAgICAgIGMxLjEyLTAuMTIsMi4wOS0wLjU3LDIuOTItMS4zM2MwLjQzLTAuNCwwLjcyLTAuOSwwLjg4LTEuNDdjMC4yMS0wLjc0LDAuMjEtMS41LDAuMDMtMi4yNkM4LjQ4LDUxLjcxLDguNSw1MS42OSw4Ljc0LDUxLjcyeiAgICAgICAgICBNNC41MSw2MC4zM2MwLjEsMC4wMSwwLjIxLDAsMC4zMSwwQzUuNTUsNjAuMzYsNi4yOSw2MC40MSw3LDYwLjZjMC4yNCwwLjA3LDAuNDUsMC4xNiwwLjY3LDAuMjYgICAgICAgICBjMC42OSwwLjM4LDAuOTUsMS4wNCwwLjg2LDEuNzVDOC40Myw2My4zOSw4LDYzLjk0LDcuMzIsNjQuM2MtMC40NCwwLjI0LTAuOTUsMC4zNi0xLjQ2LDAuNDJjLTAuMTksMC4wMS0wLjM3LDAtMC41NiwwICAgICAgICAgYy0wLjYsMC4wMS0xLjE5LTAuMDYtMS43Ni0wLjNjLTAuNC0wLjE1LTAuNzItMC4zOC0xLjAyLTAuNjljLTAuNi0wLjYtMC45LTEuNzEsMC4wMi0yLjYxQzMuMDksNjAuNiwzLjcxLDYwLjI2LDQuNTEsNjAuMzN6ICAgICAgICAgIE02LjQ4LDU0Ljk0Yy0wLjM2LDAuOTEtMS4xNiwxLjE5LTEuOTUsMS4wN2MtMC43My0wLjExLTEuMjYtMC41LTEuNjEtMS4xNmMtMC40NS0wLjg4LTAuNTctMS44LTAuMzEtMi43NSAgICAgICAgIGMwLjE5LTAuNywwLjYyLTEuMjQsMS4zOC0xLjM2YzAuOTctMC4xNywxLjg4LDAuMTcsMi4zOCwxLjE0YzAuMjUsMC40NywwLjM3LDEuMDQsMC4zNywxLjg1ICAgICAgICAgQzYuNzIsNTQuMDYsNi42NSw1NC41MSw2LjQ4LDU0Ljk0eiIvPiYjeGE7CQkJCQkJPC9nPiYjeGE7CQkJCQkJPGcgaWQ9InNoYXBlMzk1My0yMyIgdHJhbnNmb3JtPSJ0cmFuc2xhdGUoMCwtNS43NTI3NykiPiYjeGE7CQkJCQkJCTx0aXRsZSBpZD0idGl0bGUxMDEyNzIiPnBhdGgxODwvdGl0bGU+JiN4YTsJCQkJCQkJPHBhdGggaWQ9InBhdGgxMDEyNzQiIGlua3NjYXBlOmNvbm5lY3Rvci1jdXJ2YXR1cmU9IjAiIHN0eWxlPSJmaWxsOiM0NzQ3NEE7IiBkPSJNMTAuMyw1OS41MmMtMC4xNi0wLjk0LTAuNS0xLjc4LTEuMTQtMi40OSAgICAgICAgIEM4LjIxLDU1Ljk3LDcsNTUuNTIsNS42Myw1NS41MWMtMS4xOS0wLjAyLTIuMzEsMC4zMy0zLjMyLDAuOTVjLTEsMC42Mi0xLjY5LDEuNS0yLjAyLDIuNjRjLTAuMjksMS0wLjI3LDIuMDItMC4wNSwzLjA0ICAgICAgICAgYzAuNjEsMi43MywyLjcxLDMuOTEsNS4yNCwzLjczYzAuNzQtMC4wNSwxLjQ1LTAuMjksMi4xMi0wLjYyYzEtMC40NywxLjczLTEuMjEsMi4yMy0yLjE5YzAuNC0wLjgyLDAuNTctMS42OCwwLjU1LTIuNjYgICAgICAgICBDMTAuMzcsNjAuMTUsMTAuMzUsNTkuODMsMTAuMyw1OS41MnogTTcuODQsNjMuMzVjLTAuMzEsMC44My0wLjksMS4zMy0xLjc4LDEuNDVjLTAuNzYsMC4xMS0xLjQ2LTAuMDgtMi4xLTAuNTMgICAgICAgICBjLTAuNDctMC4zNS0wLjgzLTAuNzgtMS4wOS0xLjNDMi4xNiw2MS41MiwyLjA0LDYwLDIuNCw1OC40NGMwLjEyLTAuNDgsMC4zNi0wLjkxLDAuNzMtMS4yNmMwLjY0LTAuNTgsMS4zOC0wLjcyLDIuMjEtMC41NSAgICAgICAgIGMwLjc5LDAuMTcsMS40LDAuNiwxLjg4LDEuMjZzMC43MywxLjQyLDAuODYsMi4yMWMwLjA3LDAuNCwwLjA3LDAuODEsMC4wOSwxLjA3QzguMTcsNjIsOC4xLDYyLjY4LDcuODQsNjMuMzV6Ii8+JiN4YTsJCQkJCQk8L2c+JiN4YTsJCQkJCQk8ZyBpZD0ic2hhcGUzOTU0LTI1IiB0cmFuc2Zvcm09InRyYW5zbGF0ZSgzNy42MjYzLC01LjczNTUpIj4mI3hhOwkJCQkJCQk8dGl0bGUgaWQ9InRpdGxlMTAxMjc3Ij5wYXRoMjA8L3RpdGxlPiYjeGE7CQkJCQkJCTxwYXRoIGlkPSJwYXRoMTAxMjc5IiBpbmtzY2FwZTpjb25uZWN0b3ItY3VydmF0dXJlPSIwIiBzdHlsZT0iZmlsbDojNDc0NzRBOyIgZD0iTTEwLjQyLDU5LjY0ICAgICAgICAgYy0wLjE0LTEuMDEtMC41LTEuOTItMS4yMS0yLjY4Yy0wLjkzLTEuMDItMi4xNC0xLjQ1LTMuNDktMS40N2MtMS4xNi0wLjAyLTIuMjMsMC4zMS0zLjIyLDAuODggICAgICAgICBjLTEuMSwwLjY2LTEuODYsMS41OS0yLjE1LDIuODVjLTAuMzUsMS40Mi0wLjIxLDIuOCwwLjQxLDQuMTFjMC41NywxLjIxLDEuNTQsMS45OSwyLjgyLDIuMzRjMS40MSwwLjM4LDIuNzYsMC4yLDQuMDctMC40NCAgICAgICAgIGMxLjE0LTAuNTUsMS45Ni0xLjQxLDIuNDItMi41OWMwLjI4LTAuNjksMC4zOC0xLjQzLDAuNC0yLjNDMTAuNDksNjAuMTksMTAuNDUsNTkuOTEsMTAuNDIsNTkuNjR6IE04LjAzLDYzLjExICAgICAgICAgYy0wLjI3LDAuOTMtMC44NiwxLjU0LTEuODUsMS42N2MtMC43MiwwLjExLTEuNDEtMC4wNi0yLjAzLTAuNDhjLTAuNTQtMC4zNi0wLjkyLTAuODUtMS4yLTEuNDIgICAgICAgICBjLTAuMzEtMC42LTAuNDgtMS4yNC0wLjU1LTEuOWMtMC4xLTAuODEtMC4xLTEuNiwwLjA5LTIuNDFjMC4wMy0wLjE2LDAuMDgtMC4zMiwwLjE1LTAuNDdjMC40OS0xLjIxLDEuNTYtMS43NiwyLjgyLTEuNDkgICAgICAgICBjMC44NSwwLjE5LDEuNDgsMC42NiwxLjk3LDEuMzdjMC40NiwwLjY5LDAuNjksMS40NSwwLjc5LDIuMjZjMC4wNiwwLjMzLDAuMDcsMC42NywwLjA2LDAuOTcgICAgICAgICBDOC4yOCw2MS44OCw4LjIyLDYyLjUsOC4wMyw2My4xMXoiLz4mI3hhOwkJCQkJCTwvZz4mI3hhOwkJCQkJPC9nPiYjeGE7CQkJCTwvZz4mI3hhOwkJCTwvZz4mI3hhOwkJPC9nPiYjeGE7CTwvZz4mI3hhOzwvZz4mI3hhOzwvc3ZnPg==;" parent="1" vertex="1">
          <mxGeometry x="-1510" y="-28" width="101" height="64" as="geometry" />
        </mxCell>
        <mxCell id="LRXPZS-r5NiS0eYnUJOr-209" value="" style="shape=image;verticalLabelPosition=bottom;labelBackgroundColor=#ffffff;verticalAlign=top;aspect=fixed;imageAspect=0;image=data:image/svg+xml,PHN2ZyB4bWxuczpkYz0iaHR0cDovL3B1cmwub3JnL2RjL2VsZW1lbnRzLzEuMS8iIHhtbG5zOmNjPSJodHRwOi8vY3JlYXRpdmVjb21tb25zLm9yZy9ucyMiIHhtbG5zOnJkZj0iaHR0cDovL3d3dy53My5vcmcvMTk5OS8wMi8yMi1yZGYtc3ludGF4LW5zIyIgeG1sbnM6c3ZnPSJodHRwOi8vd3d3LnczLm9yZy8yMDAwL3N2ZyIgeG1sbnM9Imh0dHA6Ly93d3cudzMub3JnLzIwMDAvc3ZnIiB4bWxuczpzb2RpcG9kaT0iaHR0cDovL3NvZGlwb2RpLnNvdXJjZWZvcmdlLm5ldC9EVEQvc29kaXBvZGktMC5kdGQiIHhtbG5zOmlua3NjYXBlPSJodHRwOi8vd3d3Lmlua3NjYXBlLm9yZy9uYW1lc3BhY2VzL2lua3NjYXBlIiB2ZXJzaW9uPSIxLjEiIGlkPSJzdmc5OTM3MyIgaW5rc2NhcGU6dmVyc2lvbj0iMC45Mi4zICgyNDA1NTQ2LCAyMDE4LTAzLTExKSIgc29kaXBvZGk6ZG9jbmFtZT0iZG9jdW1lbnRkYi5zdmciIHg9IjBweCIgeT0iMHB4IiB2aWV3Qm94PSIwIDAgNDYuMDMgNjAuODkiIHhtbDpzcGFjZT0icHJlc2VydmUiIHdpZHRoPSI0Ni4wMjk5OTkiIGhlaWdodD0iNjAuODg5OTk5Ij48bWV0YWRhdGEgaWQ9Im1ldGFkYXRhNzMxIj48cmRmOlJERj48Y2M6V29yayByZGY6YWJvdXQ9IiI+PGRjOmZvcm1hdD5pbWFnZS9zdmcreG1sPC9kYzpmb3JtYXQ+PGRjOnR5cGUgcmRmOnJlc291cmNlPSJodHRwOi8vcHVybC5vcmcvZGMvZGNtaXR5cGUvU3RpbGxJbWFnZSIvPjxkYzp0aXRsZS8+PC9jYzpXb3JrPjwvcmRmOlJERj48L21ldGFkYXRhPjxkZWZzIGlkPSJkZWZzNzI5Ij4mI3hhOwkmI3hhOyYjeGE7CSYjeGE7JiN4YTsJJiN4YTsmI3hhOwkmI3hhOyYjeGE7CSYjeGE7JiN4YTsJJiN4YTsJJiN4YTsJJiN4YTsmI3hhOwkmI3hhOwkmI3hhOwkmI3hhOyYjeGE7CQkmI3hhOwkmI3hhOwkJJiN4YTsJJiN4YTsJCSYjeGE7CSYjeGE7CQkmI3hhOwkmI3hhOwkJJiN4YTsJJiN4YTsJCSYjeGE7CSYjeGE7CQkmI3hhOwkmI3hhOwkJCSYjeGE7CQkmI3hhOwkJCSYjeGE7CQk8L2RlZnM+JiN4YTs8ZmlsdGVyIGlkPSJmaWx0ZXJfMiI+JiN4YTsJPGZlR2F1c3NpYW5CbHVyIGlkPSJmZUdhdXNzaWFuQmx1cjk5MzAzIiBzdGREZXZpYXRpb249IjIiLz4mI3hhOzwvZmlsdGVyPiYjeGE7PHNvZGlwb2RpOm5hbWVkdmlldyBib3JkZXJjb2xvcj0iIzY2NjY2NiIgYm9yZGVyb3BhY2l0eT0iMSIgZml0LW1hcmdpbi1ib3R0b209IjAiIGZpdC1tYXJnaW4tbGVmdD0iMCIgZml0LW1hcmdpbi1yaWdodD0iMCIgZml0LW1hcmdpbi10b3A9IjAiIGdyaWR0b2xlcmFuY2U9IjEwIiBndWlkZXRvbGVyYW5jZT0iMTAiIGlkPSJuYW1lZHZpZXc5OTM3NSIgaW5rc2NhcGU6Y3VycmVudC1sYXllcj0ic3ZnOTkzNzMiIGlua3NjYXBlOmN4PSItMjkuMzEwMTI1IiBpbmtzY2FwZTpjeT0iNDAuNTkxMjM5IiBpbmtzY2FwZTpwYWdlb3BhY2l0eT0iMCIgaW5rc2NhcGU6cGFnZXNoYWRvdz0iMiIgaW5rc2NhcGU6d2luZG93LWhlaWdodD0iMTAxNyIgaW5rc2NhcGU6d2luZG93LW1heGltaXplZD0iMSIgaW5rc2NhcGU6d2luZG93LXdpZHRoPSIxOTIwIiBpbmtzY2FwZTp3aW5kb3cteD0iLTgiIGlua3NjYXBlOndpbmRvdy15PSItOCIgaW5rc2NhcGU6em9vbT0iNy42MTY2MTYiIG9iamVjdHRvbGVyYW5jZT0iMTAiIHBhZ2Vjb2xvcj0iI2ZmZmZmZiIgc2hvd2dyaWQ9ImZhbHNlIj4mI3hhOwk8L3NvZGlwb2RpOm5hbWVkdmlldz4mI3hhOyYjeGE7PHBhdGggaWQ9InBhdGg5OTMxNiIgaW5rc2NhcGU6Y29ubmVjdG9yLWN1cnZhdHVyZT0iMCIgc3R5bGU9ImZpbGw6IzM5OTljNiIgZD0ibSAwLDguMjggdiA0NC4yMSBjIDAsNC42MyAxMC4yMyw4LjI4IDIzLjAyLDguMjggViA4LjI4IFoiLz4mI3hhOyYjeGE7PHBhdGggaWQ9InBhdGg5OTMyNCIgaW5rc2NhcGU6Y29ubmVjdG9yLWN1cnZhdHVyZT0iMCIgc3R5bGU9ImZpbGw6IzU5YjRkOSIgZD0ibSAyMi42NSw2MC44OSBoIDAuMzcgYyAxMi42NiwwIDIzLjAxLC0zLjc3IDIzLjAxLC04LjI4IFYgOC4yOCBIIDIyLjY1IFoiLz4mI3hhOyYjeGE7PHBhdGggaWQ9InBhdGg5OTMzMiIgaW5rc2NhcGU6Y29ubmVjdG9yLWN1cnZhdHVyZT0iMCIgc3R5bGU9ImZpbGw6I2ZmZmZmZiIgZD0ibSA0Ni4wMyw4LjI4IGMgMCw0LjYzIC0xMC4yMyw4LjI4IC0yMy4wMSw4LjI4IEMgMTAuMjMsMTYuNTYgMCwxMi45MSAwLDguMjggMCwzLjc4IDEwLjM1LDAgMjMuMDIsMCAzNS42OCwwIDQ2LjAzLDMuNzggNDYuMDMsOC4yOCBaIi8+JiN4YTsmI3hhOzxwYXRoIGlkPSJwYXRoOTkzNDAiIGlua3NjYXBlOmNvbm5lY3Rvci1jdXJ2YXR1cmU9IjAiIHN0eWxlPSJmaWxsOiM3ZmJhMDAiIGQ9Im0gNDEuMjksNy43OSBjIDAsMy4wNSAtOC4xNiw1LjQ4IC0xOC4yNyw1LjQ4IC0xMC4xMSwwIC0xOC4yNywtMi40MyAtMTguMjcsLTUuNDggMCwtMy4wNCA4LjE2LC01LjQ4IDE4LjI3LC01LjQ4IDEwLjExLDAgMTguMjcsMi40NCAxOC4yNyw1LjQ4IHoiLz4mI3hhOyYjeGE7PHBhdGggaWQ9InBhdGg5OTM0OCIgaW5rc2NhcGU6Y29ubmVjdG9yLWN1cnZhdHVyZT0iMCIgc3R5bGU9ImZpbGw6I2I4ZDQzMiIgZD0ibSAzNy41MSwxMS4yIGMgMi40NCwtMC45NyAzLjc4LC0yLjA3IDMuNzgsLTMuNDEgMCwtMy4wNCAtOC4xNiwtNS40OCAtMTguMjcsLTUuNDggLTEwLjExLDAgLTE4LjI3LDIuNDQgLTE4LjI3LDUuNDggMCwxLjIyIDEuNDYsMi40NCAzLjc4LDMuNDEgMy4yOCwtMS4zNCA4LjUyLC0yLjE5IDE0LjQ5LC0yLjE5IDUuODQsMCAxMS4wOCwwLjg1IDE0LjQ5LDIuMTkgeiIvPiYjeGE7PHBhdGggZD0ibSAxNi40NDE2NDcsNTAuOTAzNTcgYyAtMS44MywwIC0zLjI5LC0wLjI0IC00LjI2LC0wLjYxIC0xLjEsLTAuMzYgLTEuODMsLTAuOTcgLTIuMzIsLTEuNyAtMC40OCwtMC44NSAtMC43MywtMi4wNyAtMC43MywtMy42NSB2IC0yLjY4IGMgMCwtMS43MSAtMC43MywtMi42OCAtMi4xOSwtMi42OCB2IC0zLjI5IGMgMS40NiwwIDIuMTksLTAuODUgMi4xOSwtMi42OCB2IC0yLjQ0IGMgMCwtMS43IDAuMjUsLTMuMDQgMC43MywtMy43NyAwLjQ5LC0wLjg1IDEuMjIsLTEuMzQgMi4xOSwtMS44MyAxLjEsLTAuMzYgMi40NCwtMC42MSA0LjI3LC0wLjYxIHYgMy4yOSBjIC0wLjg2LDAgLTEuMzQsMC4xMiAtMS44MywwLjQ5IC0wLjM2LDAuMzYgLTAuNjEsMC45NyAtMC42MSwxLjgyIHYgMi4wNyBjIDAsMS4zNCAtMC4xMiwyLjQ0IC0wLjQ5LDMuMjkgLTAuMzYsMC44NiAtMC45NywxLjQ2IC0xLjgyLDEuODMgMC44NSwwLjM3IDEuNDYsMC45NyAxLjgyLDEuOTUgMC4zNywwLjg1IDAuNjEsMi4wNyAwLjYxLDMuNDEgdiAxLjgzIGMgMCwwLjg1IDAuMTMsMS40NiAwLjQ5LDEuODIgMC4zNywwLjM3IDAuOTcsMC42MSAxLjgzLDAuNjEgdiAzLjUzIHoiIHN0eWxlPSJmaWxsOiNmZmZmZmYiIGlua3NjYXBlOmNvbm5lY3Rvci1jdXJ2YXR1cmU9IjAiIGlkPSJwYXRoOTkzNTgiLz4mI3hhOzxwYXRoIGQ9Im0gMzcuMTQ3MDQ3LDM5LjU4MzU3IGMgLTEuNDYsMCAtMi4xOSwwLjg1IC0yLjE5LDIuNjggdiAyLjQzIGMgMCwxLjcxIC0wLjI1LDMuMDUgLTAuNzQsMy43OCAtMC40OCwwLjg1IC0xLjIxLDEuMzQgLTIuMTksMS44MiAtMS4wOSwwLjM3IC0yLjQzLDAuNjEgLTQuMjYsMC42MSB2IC0zLjI5IGMgMC44NSwwIDEuNDYsLTAuMTIgMS44MywtMC40OCAwLjM2LC0wLjM3IDAuNjEsLTAuOTggMC42MSwtMS44MyB2IC0yLjA3IGMgMCwtMS4zNCAwLjEyLC0yLjQ0IDAuNDgsLTMuMjkgMC4zNywtMC44NSAwLjk4LC0xLjQ2IDEuODMsLTEuODIgLTAuODUsLTAuMzcgLTEuNDYsLTEuMSAtMS44MywtMS45NSAtMC4zNiwtMC44NiAtMC42MSwtMi4wNyAtMC42MSwtMy40MSB2IC0xLjgzIGMgMCwtMC44NSAtMC4xMiwtMS40NiAtMC40OCwtMS44MyAtMC4zNywtMC4zNiAtMC45OCwtMC42MSAtMS44MywtMC42MSB2IC0zLjI4IGMgMS44MywwIDMuMjksMC4yNCA0LjI2LDAuNiAxLjEsMC4zNyAxLjgzLDAuOTggMi4zMiwxLjcxIDAuNDgsMC44NSAwLjczLDIuMDcgMC43MywzLjY1IHYgMi42OCBjIDAsMS43MSAwLjczLDIuNjggMi4xOSwyLjY4IHYgMy4wNSB6IiBzdHlsZT0iZmlsbDojZmZmZmZmIiBpbmtzY2FwZTpjb25uZWN0b3ItY3VydmF0dXJlPSIwIiBpZD0icGF0aDk5MzY2Ii8+JiN4YTs8L3N2Zz4=;" parent="1" vertex="1">
          <mxGeometry x="-1570" y="-25" width="46" height="61" as="geometry" />
        </mxCell>
        <mxCell id="LRXPZS-r5NiS0eYnUJOr-212" value="Stuyk MongoDB" style="shadow=1;strokeWidth=1;rounded=1;absoluteArcSize=1;arcSize=2;fillColor=none;" parent="1" vertex="1">
          <mxGeometry x="-1390" y="-40" width="107" height="40" as="geometry" />
        </mxCell>
        <mxCell id="LRXPZS-r5NiS0eYnUJOr-213" value="Machine Storage" style="shadow=1;strokeWidth=1;rounded=1;absoluteArcSize=1;arcSize=2;fillColor=none;sketch=1;curveFitting=1;jiggle=2;" parent="1" vertex="1">
          <mxGeometry x="-1307.5" y="-869" width="87.5" height="20" as="geometry" />
        </mxCell>
        <mxCell id="LRXPZS-r5NiS0eYnUJOr-214" value="Fixes / Updates" style="shadow=1;strokeWidth=1;rounded=1;absoluteArcSize=1;arcSize=2;fillColor=none;" parent="1" vertex="1">
          <mxGeometry x="-1207" y="-894" width="87.5" height="20" as="geometry" />
        </mxCell>
        <mxCell id="LRXPZS-r5NiS0eYnUJOr-216" value="Stream Meta" style="shadow=1;strokeWidth=1;rounded=1;absoluteArcSize=1;arcSize=2;fillColor=none;" parent="1" vertex="1">
          <mxGeometry x="-1207" y="-869" width="87.5" height="20" as="geometry" />
        </mxCell>
        <mxCell id="LRXPZS-r5NiS0eYnUJOr-217" value="More Events" style="shadow=1;strokeWidth=1;rounded=1;absoluteArcSize=1;arcSize=2;fillColor=none;" parent="1" vertex="1">
          <mxGeometry x="-1308" y="-845" width="87.5" height="20" as="geometry" />
        </mxCell>
        <mxCell id="LRXPZS-r5NiS0eYnUJOr-218" value="More Injections" style="shadow=1;strokeWidth=1;rounded=1;absoluteArcSize=1;arcSize=2;fillColor=none;" parent="1" vertex="1">
          <mxGeometry x="-1308" y="-821" width="87.5" height="20" as="geometry" />
        </mxCell>
        <mxCell id="LRXPZS-r5NiS0eYnUJOr-219" value="Entity Selector&#xa;Advanced" style="shadow=1;strokeWidth=1;rounded=1;absoluteArcSize=1;arcSize=2;fillColor=none;" parent="1" vertex="1">
          <mxGeometry x="-1306.5" y="-985" width="87" height="45" as="geometry" />
        </mxCell>
        <mxCell id="LRXPZS-r5NiS0eYnUJOr-220" value="Better Keys" style="shadow=1;strokeWidth=1;rounded=1;absoluteArcSize=1;arcSize=2;fillColor=none;" parent="1" vertex="1">
          <mxGeometry x="-1205.5" y="-935" width="87" height="20" as="geometry" />
        </mxCell>
        <mxCell id="LRXPZS-r5NiS0eYnUJOr-221" value="Peaceful Peds" style="shadow=1;strokeWidth=1;rounded=1;absoluteArcSize=1;arcSize=2;fillColor=none;" parent="1" vertex="1">
          <mxGeometry x="-1205.5" y="-960" width="87" height="20" as="geometry" />
        </mxCell>
        <mxCell id="LRXPZS-r5NiS0eYnUJOr-222" value="Sound API" style="shadow=1;strokeWidth=1;rounded=1;absoluteArcSize=1;arcSize=2;fillColor=none;" parent="1" vertex="1">
          <mxGeometry x="-1306.5" y="-935" width="87" height="20" as="geometry" />
        </mxCell>
        <mxCell id="LRXPZS-r5NiS0eYnUJOr-223" value="Weather" style="shadow=1;strokeWidth=1;rounded=1;absoluteArcSize=1;arcSize=2;fillColor=none;sketch=1;curveFitting=1;jiggle=2;" parent="1" vertex="1">
          <mxGeometry x="-1207" y="-845" width="87" height="20" as="geometry" />
        </mxCell>
        <mxCell id="LRXPZS-r5NiS0eYnUJOr-224" value="Drop Items&#xa;Reworked" style="shadow=1;strokeWidth=1;rounded=1;absoluteArcSize=1;arcSize=2;fillColor=none;" parent="1" vertex="1">
          <mxGeometry x="-1308" y="-793" width="87.5" height="33" as="geometry" />
        </mxCell>
        <mxCell id="LRXPZS-r5NiS0eYnUJOr-225" value="getPlayer&#xa;ID Strategies" style="shadow=1;strokeWidth=1;rounded=1;absoluteArcSize=1;arcSize=2;fillColor=none;" parent="1" vertex="1">
          <mxGeometry x="-1207.5" y="-793" width="87.5" height="33" as="geometry" />
        </mxCell>
        <mxCell id="LRXPZS-r5NiS0eYnUJOr-228" value="Storage&#xa;Multi Use" style="shadow=1;strokeWidth=1;rounded=1;absoluteArcSize=1;arcSize=2;fillColor=none;sketch=1;curveFitting=1;jiggle=2;" parent="1" vertex="1">
          <mxGeometry x="-1308" y="-750" width="87.5" height="33" as="geometry" />
        </mxCell>
        <mxCell id="LRXPZS-r5NiS0eYnUJOr-230" value="PermissionSets" style="shadow=1;strokeWidth=1;rounded=1;absoluteArcSize=1;arcSize=2;fillColor=none;" parent="1" vertex="1">
          <mxGeometry x="-1207.5" y="-821" width="87.5" height="21" as="geometry" />
        </mxCell>
        <mxCell id="LRXPZS-r5NiS0eYnUJOr-231" value="Permission&#xa;System" style="shadow=1;strokeWidth=1;rounded=1;absoluteArcSize=1;arcSize=2;fillColor=none;" parent="1" vertex="1">
          <mxGeometry x="-1547.5" y="-837" width="87" height="27" as="geometry" />
        </mxCell>
        <mxCell id="LRXPZS-r5NiS0eYnUJOr-232" value="Overrides" style="shadow=1;strokeWidth=1;rounded=1;absoluteArcSize=1;arcSize=2;fillColor=none;dashed=1;" parent="1" vertex="1">
          <mxGeometry x="-1547.5" y="-804" width="87" height="27" as="geometry" />
        </mxCell>
        <UserObject label="Athena&#xa;Toolkit" link="https://athenaframework.com/tools/toolkit" linkTarget="_blank" id="LRXPZS-r5NiS0eYnUJOr-234">
          <mxCell style="shadow=1;strokeWidth=1;rounded=1;absoluteArcSize=1;arcSize=2;fillColor=none;" parent="1" vertex="1">
            <mxGeometry x="-1450.5" y="-837" width="87" height="27" as="geometry" />
          </mxCell>
        </UserObject>
        <UserObject label="API Docs" link="https://athenaframework.com/api/" linkTarget="_blank" id="LRXPZS-r5NiS0eYnUJOr-235">
          <mxCell style="shadow=1;strokeWidth=1;rounded=1;absoluteArcSize=1;arcSize=2;fillColor=none;" parent="1" vertex="1">
            <mxGeometry x="-1450.5" y="-804" width="87" height="27" as="geometry" />
          </mxCell>
        </UserObject>
        <UserObject label="VUE DEV" link="http://localhost:3000" linkTarget="_blank" id="LRXPZS-r5NiS0eYnUJOr-236">
          <mxCell style="shadow=1;strokeWidth=1;rounded=1;absoluteArcSize=1;arcSize=2;fillColor=none;" parent="1" vertex="1">
            <mxGeometry x="-1547.5" y="-768.5" width="87" height="27" as="geometry" />
          </mxCell>
        </UserObject>
        <UserObject label="Installation and Update" link="https://discord.com/channels/899586018183872573/1222591422503321641" linkTarget="_blank" id="IPUG4N9_TtiLt6nAQQPi-1">
          <mxCell style="whiteSpace=wrap;html=1;rounded=1;shadow=0;strokeColor=none;strokeWidth=2;fillColor=#009BFF;fontSize=20;fontColor=#FFFFFF;align=center;arcSize=3;verticalAlign=top;spacingTop=4;" vertex="1" parent="1">
            <mxGeometry x="-140" y="-1184.25" width="840" height="535.5" as="geometry" />
          </mxCell>
        </UserObject>
        <mxCell id="IPUG4N9_TtiLt6nAQQPi-4" style="edgeStyle=orthogonalEdgeStyle;rounded=0;orthogonalLoop=1;jettySize=auto;html=1;exitX=1;exitY=0.5;exitDx=0;exitDy=0;entryX=0;entryY=0.5;entryDx=0;entryDy=0;startArrow=classic;startFill=1;" edge="1" parent="1" source="IPUG4N9_TtiLt6nAQQPi-2" target="IPUG4N9_TtiLt6nAQQPi-3">
          <mxGeometry relative="1" as="geometry" />
        </mxCell>
        <mxCell id="IPUG4N9_TtiLt6nAQQPi-2" value="&lt;div&gt;&lt;br&gt;&lt;/div&gt;&lt;div&gt;&lt;br&gt;&lt;/div&gt;ATHENA" style="rounded=1;whiteSpace=wrap;html=1;shadow=0;strokeWidth=2;fillColor=#60a917;fontSize=12;align=center;strokeColor=#2D7600;arcSize=6;verticalAlign=top;fontColor=#ffffff;" vertex="1" parent="1">
          <mxGeometry x="-100" y="-1103.5" width="360" height="98.5" as="geometry" />
        </mxCell>
        <mxCell id="IPUG4N9_TtiLt6nAQQPi-3" value="&lt;div&gt;&lt;br&gt;&lt;/div&gt;&lt;div&gt;&lt;br&gt;&lt;/div&gt;GP-CORE&lt;div&gt;&lt;/div&gt;" style="rounded=1;whiteSpace=wrap;html=1;shadow=0;strokeWidth=2;fillColor=#f8cecc;fontSize=12;align=center;strokeColor=#b85450;arcSize=6;verticalAlign=top;" vertex="1" parent="1">
          <mxGeometry x="300" y="-1103.5" width="350" height="98.5" as="geometry" />
        </mxCell>
        <mxCell id="IPUG4N9_TtiLt6nAQQPi-6" style="edgeStyle=orthogonalEdgeStyle;rounded=0;orthogonalLoop=1;jettySize=auto;html=1;exitX=0.5;exitY=0;exitDx=0;exitDy=0;entryX=0.855;entryY=1.02;entryDx=0;entryDy=0;entryPerimeter=0;" edge="1" parent="1" source="IPUG4N9_TtiLt6nAQQPi-5" target="IPUG4N9_TtiLt6nAQQPi-3">
          <mxGeometry relative="1" as="geometry">
            <mxPoint x="600" y="-1000" as="targetPoint" />
          </mxGeometry>
        </mxCell>
        <mxCell id="IPUG4N9_TtiLt6nAQQPi-7" value="&lt;b&gt;Pull Requests (PR)&lt;/b&gt;" style="edgeLabel;html=1;align=center;verticalAlign=middle;resizable=0;points=[];" vertex="1" connectable="0" parent="IPUG4N9_TtiLt6nAQQPi-6">
          <mxGeometry x="-0.0064" y="-1" relative="1" as="geometry">
            <mxPoint as="offset" />
          </mxGeometry>
        </mxCell>
        <mxCell id="IPUG4N9_TtiLt6nAQQPi-5" value="&lt;div&gt;&lt;br&gt;&lt;/div&gt;&lt;div&gt;YOUR&lt;/div&gt;GP-CORE&lt;div&gt;FORK&lt;br&gt;&lt;br&gt;&lt;br&gt;&lt;div&gt;&lt;/div&gt;&lt;/div&gt;" style="rounded=1;whiteSpace=wrap;html=1;shadow=0;strokeWidth=2;fillColor=#f8cecc;fontSize=12;align=center;strokeColor=#b85450;arcSize=6;verticalAlign=top;" vertex="1" parent="1">
          <mxGeometry x="530" y="-905" width="140" height="85.5" as="geometry" />
        </mxCell>
        <mxCell id="IPUG4N9_TtiLt6nAQQPi-9" style="edgeStyle=orthogonalEdgeStyle;rounded=0;orthogonalLoop=1;jettySize=auto;html=1;exitX=0.414;exitY=-0.031;exitDx=0;exitDy=0;endArrow=none;endFill=0;startArrow=classic;startFill=1;entryX=0.849;entryY=1.005;entryDx=0;entryDy=0;entryPerimeter=0;exitPerimeter=0;" edge="1" parent="1" source="IPUG4N9_TtiLt6nAQQPi-8" target="IPUG4N9_TtiLt6nAQQPi-2">
          <mxGeometry relative="1" as="geometry">
            <mxPoint x="73" y="-1010" as="targetPoint" />
          </mxGeometry>
        </mxCell>
        <mxCell id="IPUG4N9_TtiLt6nAQQPi-10" value="git pull upstream master" style="edgeLabel;html=1;align=center;verticalAlign=middle;resizable=0;points=[];fontStyle=1" vertex="1" connectable="0" parent="IPUG4N9_TtiLt6nAQQPi-9">
          <mxGeometry x="0.04" y="1" relative="1" as="geometry">
            <mxPoint x="-15" y="-46" as="offset" />
          </mxGeometry>
        </mxCell>
        <mxCell id="IPUG4N9_TtiLt6nAQQPi-12" style="edgeStyle=orthogonalEdgeStyle;rounded=0;orthogonalLoop=1;jettySize=auto;html=1;endArrow=none;endFill=0;startArrow=classic;startFill=1;exitX=0.582;exitY=0.014;exitDx=0;exitDy=0;exitPerimeter=0;" edge="1" parent="1" source="IPUG4N9_TtiLt6nAQQPi-8">
          <mxGeometry relative="1" as="geometry">
            <mxPoint x="362" y="-762" as="sourcePoint" />
            <mxPoint x="340" y="-1000" as="targetPoint" />
          </mxGeometry>
        </mxCell>
        <mxCell id="IPUG4N9_TtiLt6nAQQPi-13" value="git pull gp-upstream 5.3.0" style="edgeLabel;html=1;align=center;verticalAlign=middle;resizable=0;points=[];fontStyle=1" vertex="1" connectable="0" parent="IPUG4N9_TtiLt6nAQQPi-12">
          <mxGeometry x="0.0991" y="-4" relative="1" as="geometry">
            <mxPoint x="-4" y="-44" as="offset" />
          </mxGeometry>
        </mxCell>
        <mxCell id="IPUG4N9_TtiLt6nAQQPi-8" value="&lt;div&gt;&lt;br&gt;&lt;/div&gt;&lt;div&gt;YOUR&lt;/div&gt;PRIVATE GIT REPO / PROJECT&lt;div&gt;&lt;br&gt;&lt;br&gt;&lt;div&gt;&lt;/div&gt;&lt;/div&gt;" style="rounded=1;whiteSpace=wrap;html=1;shadow=0;strokeWidth=2;fillColor=#dae8fc;fontSize=12;align=center;strokeColor=#6c8ebf;arcSize=6;verticalAlign=top;" vertex="1" parent="1">
          <mxGeometry x="-130" y="-760.5" width="810" height="80.5" as="geometry" />
        </mxCell>
        <mxCell id="IPUG4N9_TtiLt6nAQQPi-14" value="&lt;div&gt;&lt;br&gt;&lt;/div&gt;&lt;div&gt;YOUR&lt;/div&gt;&lt;div&gt;LOCAL GP-CORE&lt;/div&gt;&lt;div&gt;CLONE&lt;/div&gt;&lt;div&gt;&lt;div&gt;&lt;/div&gt;&lt;/div&gt;" style="rounded=1;whiteSpace=wrap;html=1;shadow=0;strokeWidth=2;fillColor=#f8cecc;fontSize=12;align=center;strokeColor=#b85450;arcSize=6;verticalAlign=top;" vertex="1" parent="1">
          <mxGeometry x="380" y="-905" width="140" height="85.5" as="geometry" />
        </mxCell>
        <mxCell id="IPUG4N9_TtiLt6nAQQPi-15" style="edgeStyle=orthogonalEdgeStyle;rounded=0;orthogonalLoop=1;jettySize=auto;html=1;exitX=0.5;exitY=0;exitDx=0;exitDy=0;entryX=0.429;entryY=0.989;entryDx=0;entryDy=0;entryPerimeter=0;" edge="1" parent="1" source="IPUG4N9_TtiLt6nAQQPi-14" target="IPUG4N9_TtiLt6nAQQPi-3">
          <mxGeometry relative="1" as="geometry" />
        </mxCell>
        <mxCell id="IPUG4N9_TtiLt6nAQQPi-16" value="Normal Commit" style="edgeLabel;html=1;align=center;verticalAlign=middle;resizable=0;points=[];fontStyle=1" vertex="1" connectable="0" parent="IPUG4N9_TtiLt6nAQQPi-15">
          <mxGeometry x="0.0265" y="1" relative="1" as="geometry">
            <mxPoint as="offset" />
          </mxGeometry>
        </mxCell>
        <mxCell id="IPUG4N9_TtiLt6nAQQPi-17" value="&lt;div&gt;&lt;br&gt;&lt;/div&gt;&lt;div&gt;YOUR&lt;/div&gt;&lt;div&gt;ATHENA&lt;/div&gt;&lt;div&gt;FORK&lt;br&gt;&lt;br&gt;&lt;br&gt;&lt;div&gt;&lt;/div&gt;&lt;/div&gt;" style="rounded=1;whiteSpace=wrap;html=1;shadow=0;strokeWidth=2;fillColor=#60a917;fontSize=12;align=center;strokeColor=#2D7600;arcSize=6;verticalAlign=top;fontColor=#ffffff;" vertex="1" parent="1">
          <mxGeometry x="-110" y="-911.5" width="140" height="85.5" as="geometry" />
        </mxCell>
        <mxCell id="IPUG4N9_TtiLt6nAQQPi-21" style="edgeStyle=orthogonalEdgeStyle;rounded=0;orthogonalLoop=1;jettySize=auto;html=1;exitX=0.5;exitY=0;exitDx=0;exitDy=0;entryX=0.167;entryY=1.008;entryDx=0;entryDy=0;entryPerimeter=0;" edge="1" parent="1" source="IPUG4N9_TtiLt6nAQQPi-17" target="IPUG4N9_TtiLt6nAQQPi-2">
          <mxGeometry relative="1" as="geometry">
            <mxPoint x="-49" y="-875" as="sourcePoint" />
            <mxPoint x="-40" y="-1000" as="targetPoint" />
          </mxGeometry>
        </mxCell>
        <mxCell id="IPUG4N9_TtiLt6nAQQPi-22" value="&lt;b&gt;Pull Requests (PR)&lt;/b&gt;" style="edgeLabel;html=1;align=center;verticalAlign=middle;resizable=0;points=[];" vertex="1" connectable="0" parent="IPUG4N9_TtiLt6nAQQPi-21">
          <mxGeometry x="-0.0064" y="-1" relative="1" as="geometry">
            <mxPoint as="offset" />
          </mxGeometry>
        </mxCell>
        <mxCell id="IPUG4N9_TtiLt6nAQQPi-23" style="edgeStyle=orthogonalEdgeStyle;rounded=0;orthogonalLoop=1;jettySize=auto;html=1;exitX=0.5;exitY=1;exitDx=0;exitDy=0;entryX=0.715;entryY=0.014;entryDx=0;entryDy=0;entryPerimeter=0;endArrow=none;endFill=0;startArrow=classic;startFill=1;" edge="1" parent="1" source="IPUG4N9_TtiLt6nAQQPi-14" target="IPUG4N9_TtiLt6nAQQPi-8">
          <mxGeometry relative="1" as="geometry" />
        </mxCell>
        <mxCell id="IPUG4N9_TtiLt6nAQQPi-27" style="edgeStyle=orthogonalEdgeStyle;rounded=0;orthogonalLoop=1;jettySize=auto;html=1;exitX=0.5;exitY=1;exitDx=0;exitDy=0;entryX=0.902;entryY=0.025;entryDx=0;entryDy=0;entryPerimeter=0;endArrow=none;endFill=0;startArrow=classic;startFill=1;" edge="1" parent="1" source="IPUG4N9_TtiLt6nAQQPi-5" target="IPUG4N9_TtiLt6nAQQPi-8">
          <mxGeometry relative="1" as="geometry" />
        </mxCell>
        <mxCell id="IPUG4N9_TtiLt6nAQQPi-28" value="manually copy your changes&lt;div&gt;use some diff tool like winmerge&lt;/div&gt;" style="edgeLabel;html=1;align=center;verticalAlign=middle;resizable=0;points=[];labelBackgroundColor=none;fontColor=#FF9999;" vertex="1" connectable="0" parent="1">
          <mxGeometry x="523.9950341204623" y="-785.5000004442011" as="geometry" />
        </mxCell>
        <mxCell id="IPUG4N9_TtiLt6nAQQPi-31" style="edgeStyle=orthogonalEdgeStyle;rounded=0;orthogonalLoop=1;jettySize=auto;html=1;exitX=0.5;exitY=1;exitDx=0;exitDy=0;entryX=0.111;entryY=0.031;entryDx=0;entryDy=0;entryPerimeter=0;endArrow=none;endFill=0;startArrow=classic;startFill=1;" edge="1" parent="1" source="IPUG4N9_TtiLt6nAQQPi-17" target="IPUG4N9_TtiLt6nAQQPi-8">
          <mxGeometry relative="1" as="geometry" />
        </mxCell>
        <mxCell id="IPUG4N9_TtiLt6nAQQPi-32" value="manually copy your changes&lt;div&gt;use some diff tool like winmerge&lt;/div&gt;" style="edgeLabel;html=1;align=center;verticalAlign=middle;resizable=0;points=[];textShadow=0;labelBorderColor=none;labelBackgroundColor=none;fontColor=#FF9999;" vertex="1" connectable="0" parent="1">
          <mxGeometry x="-40.004965879537735" y="-790.5000004442011" as="geometry" />
        </mxCell>
        <mxCell id="IPUG4N9_TtiLt6nAQQPi-33" value="" style="rounded=1;whiteSpace=wrap;html=1;shadow=0;strokeWidth=2;fillColor=#60a917;fontSize=12;align=center;strokeColor=none;arcSize=6;verticalAlign=top;fontColor=#ffffff;" vertex="1" parent="1">
          <mxGeometry x="-1354" y="-280" width="280" height="175" as="geometry" />
        </mxCell>
        <mxCell id="IPUG4N9_TtiLt6nAQQPi-34" value="MIGRATED PLUGINS" style="rounded=1;whiteSpace=wrap;html=1;shadow=0;strokeWidth=2;fillColor=#60a917;fontSize=12;align=center;strokeColor=none;arcSize=6;verticalAlign=top;fontColor=#ffffff;" vertex="1" parent="1">
          <mxGeometry x="-1580.5" y="-645" width="250" height="540" as="geometry" />
        </mxCell>
        <mxCell id="IPUG4N9_TtiLt6nAQQPi-35" value="ATM" style="shadow=1;strokeWidth=1;rounded=1;absoluteArcSize=1;arcSize=2;fillColor=none;" vertex="1" parent="1">
          <mxGeometry x="-1566" y="-615" width="107" height="35" as="geometry" />
        </mxCell>
        <mxCell id="IPUG4N9_TtiLt6nAQQPi-36" value="Cayo Perico" style="shadow=1;strokeWidth=1;rounded=1;absoluteArcSize=1;arcSize=2;fillColor=none;" vertex="1" parent="1">
          <mxGeometry x="-1566" y="-565" width="107" height="40" as="geometry" />
        </mxCell>
        <mxCell id="IPUG4N9_TtiLt6nAQQPi-37" value="Clothing" style="shadow=1;strokeWidth=1;rounded=1;absoluteArcSize=1;arcSize=2;fillColor=none;" vertex="1" parent="1">
          <mxGeometry x="-1450.5" y="-565" width="107" height="40" as="geometry" />
        </mxCell>
        <mxCell id="IPUG4N9_TtiLt6nAQQPi-38" value="Dealership" style="shadow=1;strokeWidth=1;rounded=1;absoluteArcSize=1;arcSize=2;fillColor=none;glass=0;textShadow=0;fontStyle=0;dashed=1;" vertex="1" parent="1">
          <mxGeometry x="-1567.5" y="-515" width="107" height="40" as="geometry" />
        </mxCell>
        <mxCell id="IPUG4N9_TtiLt6nAQQPi-39" value="Allow List" style="shadow=1;strokeWidth=1;rounded=1;absoluteArcSize=1;arcSize=2;fillColor=none;" vertex="1" parent="1">
          <mxGeometry x="-1450.5" y="-515" width="107" height="40" as="geometry" />
        </mxCell>
        <mxCell id="IPUG4N9_TtiLt6nAQQPi-40" value="Factions" style="shadow=1;strokeWidth=1;rounded=1;absoluteArcSize=1;arcSize=2;fillColor=none;" vertex="1" parent="1">
          <mxGeometry x="-1567.5" y="-465" width="107" height="40" as="geometry" />
        </mxCell>
        <mxCell id="IPUG4N9_TtiLt6nAQQPi-41" value="Factions &#xa;Paychecks" style="shadow=1;strokeWidth=1;rounded=1;absoluteArcSize=1;arcSize=2;fillColor=none;dashed=1;" vertex="1" parent="1">
          <mxGeometry x="-1450.5" y="-465" width="107" height="40" as="geometry" />
        </mxCell>
        <mxCell id="IPUG4N9_TtiLt6nAQQPi-42" value="Food &amp; Water" style="shadow=1;strokeWidth=1;rounded=1;absoluteArcSize=1;arcSize=2;fillColor=none;" vertex="1" parent="1">
          <mxGeometry x="-1567.5" y="-415" width="107" height="40" as="geometry" />
        </mxCell>
        <mxCell id="IPUG4N9_TtiLt6nAQQPi-43" value="Fuel" style="shadow=1;strokeWidth=1;rounded=1;absoluteArcSize=1;arcSize=2;fillColor=none;" vertex="1" parent="1">
          <mxGeometry x="-1567.5" y="-365" width="107" height="40" as="geometry" />
        </mxCell>
        <mxCell id="IPUG4N9_TtiLt6nAQQPi-44" value="Fuel Stations" style="shadow=1;strokeWidth=1;rounded=1;absoluteArcSize=1;arcSize=2;fillColor=none;" vertex="1" parent="1">
          <mxGeometry x="-1450.5" y="-365" width="107" height="40" as="geometry" />
        </mxCell>
        <mxCell id="IPUG4N9_TtiLt6nAQQPi-45" value="Garages" style="shadow=1;strokeWidth=1;rounded=1;absoluteArcSize=1;arcSize=2;fillColor=none;" vertex="1" parent="1">
          <mxGeometry x="-1567.5" y="-315" width="107" height="40" as="geometry" />
        </mxCell>
        <mxCell id="IPUG4N9_TtiLt6nAQQPi-46" value="Interiors" style="shadow=1;strokeWidth=1;rounded=1;absoluteArcSize=1;arcSize=2;fillColor=none;" vertex="1" parent="1">
          <mxGeometry x="-1450.5" y="-315" width="107" height="40" as="geometry" />
        </mxCell>
        <mxCell id="IPUG4N9_TtiLt6nAQQPi-47" value="Nametags" style="shadow=1;strokeWidth=1;rounded=1;absoluteArcSize=1;arcSize=2;fillColor=none;" vertex="1" parent="1">
          <mxGeometry x="-1566" y="-265" width="107" height="40" as="geometry" />
        </mxCell>
        <mxCell id="IPUG4N9_TtiLt6nAQQPi-48" value="Weapon Recoil" style="shadow=1;strokeWidth=1;rounded=1;absoluteArcSize=1;arcSize=2;fillColor=none;" vertex="1" parent="1">
          <mxGeometry x="-1450.5" y="-265" width="107" height="40" as="geometry" />
        </mxCell>
        <mxCell id="IPUG4N9_TtiLt6nAQQPi-49" value="Attachment Editor" style="shadow=1;strokeWidth=1;rounded=1;absoluteArcSize=1;arcSize=2;fillColor=none;" vertex="1" parent="1">
          <mxGeometry x="-1564" y="-215" width="107" height="40" as="geometry" />
        </mxCell>
        <mxCell id="IPUG4N9_TtiLt6nAQQPi-50" value="Inventory / Toolbar" style="shadow=1;strokeWidth=1;rounded=1;absoluteArcSize=1;arcSize=2;fillColor=none;" vertex="1" parent="1">
          <mxGeometry x="-1450.5" y="-615" width="110.5" height="35" as="geometry" />
        </mxCell>
        <mxCell id="IPUG4N9_TtiLt6nAQQPi-51" value="Factions &#xa;Storage" style="shadow=1;strokeWidth=1;rounded=1;absoluteArcSize=1;arcSize=2;fillColor=none;dashed=1;" vertex="1" parent="1">
          <mxGeometry x="-1450.5" y="-415" width="107" height="40" as="geometry" />
        </mxCell>
        <mxCell id="IPUG4N9_TtiLt6nAQQPi-52" value="Hotkeys" style="shadow=1;strokeWidth=1;rounded=1;absoluteArcSize=1;arcSize=2;fillColor=none;" vertex="1" parent="1">
          <mxGeometry x="-1450.5" y="-215" width="107" height="40" as="geometry" />
        </mxCell>
        <mxCell id="IPUG4N9_TtiLt6nAQQPi-53" value="Pause Menu" style="shadow=1;strokeWidth=1;rounded=1;absoluteArcSize=1;arcSize=2;fillColor=none;" vertex="1" parent="1">
          <mxGeometry x="-1564" y="-163" width="107" height="40" as="geometry" />
        </mxCell>
        <mxCell id="IPUG4N9_TtiLt6nAQQPi-54" value="Barbershop" style="shadow=1;strokeWidth=1;rounded=1;absoluteArcSize=1;arcSize=2;fillColor=none;" vertex="1" parent="1">
          <mxGeometry x="-1450.5" y="-163" width="107" height="40" as="geometry" />
        </mxCell>
        <UserObject label="Athena API" link="http://localhost:9090/" linkTarget="_blank" id="IPUG4N9_TtiLt6nAQQPi-55">
          <mxCell style="shadow=1;strokeWidth=1;rounded=1;absoluteArcSize=1;arcSize=2;fillColor=none;" vertex="1" parent="1">
            <mxGeometry x="-1327.5" y="-265" width="107" height="40" as="geometry" />
          </mxCell>
        </UserObject>
        <mxCell id="IPUG4N9_TtiLt6nAQQPi-56" value="GP Admin" style="shadow=1;strokeWidth=1;rounded=1;absoluteArcSize=1;arcSize=2;fillColor=none;strokeColor=#FF6666;" vertex="1" parent="1">
          <mxGeometry x="-340.00000000000006" y="-595" width="107" height="25" as="geometry" />
        </mxCell>
        <mxCell id="IPUG4N9_TtiLt6nAQQPi-57" value="GP Admin &#xa;Standalone" style="shadow=1;strokeWidth=1;rounded=1;absoluteArcSize=1;arcSize=2;fillColor=none;strokeColor=#FF6666;" vertex="1" parent="1">
          <mxGeometry x="-591" y="-465" width="107" height="25" as="geometry" />
        </mxCell>
        <UserObject label="Servers for Gangsta&#39;s Paradise" link="https://discord.com/channels/899586018183872573/1222591422503321641" linkTarget="_blank" id="IPUG4N9_TtiLt6nAQQPi-58">
          <mxCell style="whiteSpace=wrap;html=1;rounded=1;shadow=0;strokeColor=default;strokeWidth=2;fillColor=#009BFF;fontSize=20;fontColor=#FFFFFF;align=center;arcSize=3;verticalAlign=top;spacingTop=4;" vertex="1" parent="1">
            <mxGeometry x="-140" y="-630" width="840" height="535.5" as="geometry" />
          </mxCell>
        </UserObject>
        <mxCell id="IPUG4N9_TtiLt6nAQQPi-59" value="Gameserver&lt;div&gt;&lt;/div&gt;&lt;div&gt;&lt;br&gt;&lt;/div&gt;&lt;div&gt;Port: 7788&lt;/div&gt;" style="rounded=1;whiteSpace=wrap;html=1;shadow=0;strokeWidth=2;fillColor=#60a917;fontSize=12;align=center;strokeColor=#2D7600;arcSize=6;verticalAlign=top;fontColor=#ffffff;" vertex="1" parent="1">
          <mxGeometry x="-100" y="-544.25" width="380" height="98.5" as="geometry" />
        </mxCell>
        <mxCell id="IPUG4N9_TtiLt6nAQQPi-60" value="CDN&lt;div&gt;&lt;/div&gt;&lt;div&gt;&lt;br&gt;&lt;/div&gt;&lt;div&gt;Port: 80&lt;/div&gt;" style="rounded=1;whiteSpace=wrap;html=1;shadow=0;strokeWidth=2;fillColor=#60a917;fontSize=12;align=center;strokeColor=#2D7600;arcSize=6;verticalAlign=top;fontColor=#ffffff;" vertex="1" parent="1">
          <mxGeometry x="-100" y="-425" width="380" height="155" as="geometry" />
        </mxCell>
        <mxCell id="IPUG4N9_TtiLt6nAQQPi-61" value="Dynamic Content&lt;div&gt;Generated Audio Files for TTS&lt;/div&gt;" style="rounded=1;whiteSpace=wrap;html=1;shadow=0;strokeWidth=2;fillColor=#60a917;fontSize=12;align=center;strokeColor=#2D7600;arcSize=6;verticalAlign=top;fontColor=#ffffff;" vertex="1" parent="1">
          <mxGeometry x="150" y="-345" width="110" height="58.5" as="geometry" />
        </mxCell>
        <mxCell id="IPUG4N9_TtiLt6nAQQPi-62" value="Client&lt;div&gt;Resources&lt;/div&gt;&lt;div&gt;(Encrypted)&lt;/div&gt;" style="rounded=1;whiteSpace=wrap;html=1;shadow=0;strokeWidth=2;fillColor=#60a917;fontSize=12;align=center;strokeColor=#2D7600;arcSize=6;verticalAlign=top;fontColor=#ffffff;" vertex="1" parent="1">
          <mxGeometry x="-80" y="-345" width="110" height="58.5" as="geometry" />
        </mxCell>
        <mxCell id="IPUG4N9_TtiLt6nAQQPi-63" value="Webservices&lt;div&gt;&lt;/div&gt;&lt;div&gt;&lt;br&gt;&lt;/div&gt;&lt;div&gt;Port: 443&lt;/div&gt;" style="rounded=1;whiteSpace=wrap;html=1;shadow=0;strokeWidth=2;fillColor=#60a917;fontSize=12;align=center;strokeColor=#2D7600;arcSize=6;verticalAlign=top;fontColor=#ffffff;" vertex="1" parent="1">
          <mxGeometry x="290" y="-544.25" width="340" height="274.25" as="geometry" />
        </mxCell>
        <mxCell id="IPUG4N9_TtiLt6nAQQPi-64" value="API&lt;div&gt;&lt;br&gt;&lt;/div&gt;&lt;div&gt;Port: 9090&lt;/div&gt;" style="rounded=1;whiteSpace=wrap;html=1;shadow=0;strokeWidth=2;fillColor=#60a917;fontSize=12;align=center;strokeColor=#2D7600;arcSize=6;verticalAlign=top;fontColor=#ffffff;" vertex="1" parent="1">
          <mxGeometry x="140" y="-515" width="110" height="58.5" as="geometry" />
        </mxCell>
        <mxCell id="IPUG4N9_TtiLt6nAQQPi-67" value="German Instance" style="text;strokeColor=none;align=center;fillColor=none;html=1;verticalAlign=middle;whiteSpace=wrap;rounded=0;" vertex="1" parent="1">
          <mxGeometry x="-119.5" y="-94.5" width="120" height="30" as="geometry" />
        </mxCell>
        <mxCell id="IPUG4N9_TtiLt6nAQQPi-68" value="France Instance" style="text;strokeColor=none;align=center;fillColor=none;html=1;verticalAlign=middle;whiteSpace=wrap;rounded=0;" vertex="1" parent="1">
          <mxGeometry x="-100" y="-57.25" width="120" height="30" as="geometry" />
        </mxCell>
        <mxCell id="IPUG4N9_TtiLt6nAQQPi-69" value="Multilingual Instance" style="text;strokeColor=none;align=center;fillColor=none;html=1;verticalAlign=middle;whiteSpace=wrap;rounded=0;" vertex="1" parent="1">
          <mxGeometry x="-130" y="-135" width="120" height="30" as="geometry" />
        </mxCell>
        <mxCell id="IPUG4N9_TtiLt6nAQQPi-78" value="" style="edgeStyle=orthogonalEdgeStyle;rounded=0;orthogonalLoop=1;jettySize=auto;html=1;startArrow=classic;startFill=1;" edge="1" parent="1" source="IPUG4N9_TtiLt6nAQQPi-70" target="IPUG4N9_TtiLt6nAQQPi-76">
          <mxGeometry relative="1" as="geometry" />
        </mxCell>
        <mxCell id="IPUG4N9_TtiLt6nAQQPi-70" value="GP-ADMIN&lt;div&gt;Website&lt;/div&gt;&lt;div&gt;&lt;br&gt;&lt;/div&gt;&lt;div&gt;Port 443&lt;/div&gt;" style="rounded=1;whiteSpace=wrap;html=1;shadow=0;strokeWidth=2;fillColor=#60a917;fontSize=12;align=center;strokeColor=#2D7600;arcSize=6;verticalAlign=top;fontColor=#ffffff;" vertex="1" parent="1">
          <mxGeometry x="490" y="-465" width="130" height="75" as="geometry" />
        </mxCell>
        <mxCell id="IPUG4N9_TtiLt6nAQQPi-73" value="Authentication (OAUTH2)" style="shape=image;html=1;verticalAlign=top;verticalLabelPosition=bottom;labelBackgroundColor=#ffffff;imageAspect=0;aspect=fixed;image=https://cdn1.iconfinder.com/data/icons/ionicons-fill-vol-2/512/logo-discord-128.png;fontSize=8;" vertex="1" parent="1">
          <mxGeometry x="445" y="-415" width="30" height="30" as="geometry" />
        </mxCell>
        <mxCell id="IPUG4N9_TtiLt6nAQQPi-79" style="edgeStyle=orthogonalEdgeStyle;rounded=0;orthogonalLoop=1;jettySize=auto;html=1;exitX=0.5;exitY=0;exitDx=0;exitDy=0;entryX=1;entryY=0.5;entryDx=0;entryDy=0;startArrow=classic;startFill=1;" edge="1" parent="1" source="IPUG4N9_TtiLt6nAQQPi-76" target="IPUG4N9_TtiLt6nAQQPi-64">
          <mxGeometry relative="1" as="geometry" />
        </mxCell>
        <mxCell id="IPUG4N9_TtiLt6nAQQPi-76" value="GP-ADMIN&lt;div&gt;Server&lt;/div&gt;" style="rounded=1;whiteSpace=wrap;html=1;shadow=0;strokeWidth=2;fillColor=#60a917;fontSize=12;align=center;strokeColor=#2D7600;arcSize=6;verticalAlign=top;fontColor=#ffffff;" vertex="1" parent="1">
          <mxGeometry x="300" y="-465" width="130" height="75" as="geometry" />
        </mxCell>
        <mxCell id="IPUG4N9_TtiLt6nAQQPi-80" value="" style="image;aspect=fixed;html=1;points=[];align=center;fontSize=12;image=data:image/svg+xml,PD94bWwgdmVyc2lvbj0iMS4wIiBlbmNvZGluZz0iVVRGLTgiIHN0YW5kYWxvbmU9Im5vIj8+CjxzdmcKICAgeG1sbnM6ZGM9Imh0dHA6Ly9wdXJsLm9yZy9kYy9lbGVtZW50cy8xLjEvIgogICB4bWxuczpjYz0iaHR0cDovL2NyZWF0aXZlY29tbW9ucy5vcmcvbnMjIgogICB4bWxuczpyZGY9Imh0dHA6Ly93d3cudzMub3JnLzE5OTkvMDIvMjItcmRmLXN5bnRheC1ucyMiCiAgIHhtbG5zOnN2Zz0iaHR0cDovL3d3dy53My5vcmcvMjAwMC9zdmciCiAgIHhtbG5zPSJodHRwOi8vd3d3LnczLm9yZy8yMDAwL3N2ZyIKICAgeG1sbnM6c29kaXBvZGk9Imh0dHA6Ly9zb2RpcG9kaS5zb3VyY2Vmb3JnZS5uZXQvRFREL3NvZGlwb2RpLTAuZHRkIgogICB4bWxuczppbmtzY2FwZT0iaHR0cDovL3d3dy5pbmtzY2FwZS5vcmcvbmFtZXNwYWNlcy9pbmtzY2FwZSIKICAgd2lkdGg9IjE4LjAwMDEwMSIKICAgaGVpZ2h0PSIxNS4zODgxMTYiCiAgIHZpZXdCb3g9IjAgMCAxOC4wMDAxMDEgMTUuMzg4MTE2IgogICB2ZXJzaW9uPSIxLjEiCiAgIGlkPSJzdmc2MzQxNyIKICAgc29kaXBvZGk6ZG9jbmFtZT0iQXp1cmVfRmlyZXdhbGxfTWFuYWdlci5zdmciCiAgIGlua3NjYXBlOnZlcnNpb249IjAuOTIuMyAoMjQwNTU0NiwgMjAxOC0wMy0xMSkiPgogIDxzb2RpcG9kaTpuYW1lZHZpZXcKICAgICBwYWdlY29sb3I9IiNmZmZmZmYiCiAgICAgYm9yZGVyY29sb3I9IiM2NjY2NjYiCiAgICAgYm9yZGVyb3BhY2l0eT0iMSIKICAgICBvYmplY3R0b2xlcmFuY2U9IjEwIgogICAgIGdyaWR0b2xlcmFuY2U9IjEwIgogICAgIGd1aWRldG9sZXJhbmNlPSIxMCIKICAgICBpbmtzY2FwZTpwYWdlb3BhY2l0eT0iMCIKICAgICBpbmtzY2FwZTpwYWdlc2hhZG93PSIyIgogICAgIGlua3NjYXBlOndpbmRvdy13aWR0aD0iMTkyMCIKICAgICBpbmtzY2FwZTp3aW5kb3ctaGVpZ2h0PSIxMDE3IgogICAgIGlkPSJuYW1lZHZpZXc2MzQxOSIKICAgICBzaG93Z3JpZD0iZmFsc2UiCiAgICAgZml0LW1hcmdpbi10b3A9IjAiCiAgICAgZml0LW1hcmdpbi1sZWZ0PSIwIgogICAgIGZpdC1tYXJnaW4tcmlnaHQ9IjAiCiAgICAgZml0LW1hcmdpbi1ib3R0b209IjAiCiAgICAgaW5rc2NhcGU6em9vbT0iNC4yNTI0NjE2IgogICAgIGlua3NjYXBlOmN4PSI1Mi45OTI1NDMiCiAgICAgaW5rc2NhcGU6Y3k9IjEzLjM3MzI4IgogICAgIGlua3NjYXBlOndpbmRvdy14PSIxOTEyIgogICAgIGlua3NjYXBlOndpbmRvdy15PSItOCIKICAgICBpbmtzY2FwZTp3aW5kb3ctbWF4aW1pemVkPSIxIgogICAgIGlua3NjYXBlOmN1cnJlbnQtbGF5ZXI9InN2ZzYzNDE3IiAvPgogIDxkZWZzCiAgICAgaWQ9ImRlZnM2MzM2OSI+CiAgICA8bGluZWFyR3JhZGllbnQKICAgICAgIGlkPSJiOWVkYTE0ZC01MDE4LTQwNjktODQ2MS1lOWMxNTIyNzY1ZmYiCiAgICAgICB4MT0iMTMuNDUiCiAgICAgICB5MT0iNi4zMDAwMDAyIgogICAgICAgeDI9IjEzLjQ1IgogICAgICAgeTI9IjE2LjQ1OTk5OSIKICAgICAgIGdyYWRpZW50VW5pdHM9InVzZXJTcGFjZU9uVXNlIgogICAgICAgZ3JhZGllbnRUcmFuc2Zvcm09InRyYW5zbGF0ZSgtMS4wMDIxNzdlLTQsMS41MTkyMTg0KSI+CiAgICAgIDxzdG9wCiAgICAgICAgIG9mZnNldD0iMCIKICAgICAgICAgc3RvcC1jb2xvcj0iI2ZmZDcwZiIKICAgICAgICAgaWQ9InN0b3A2MzM1OCIgLz4KICAgICAgPHN0b3AKICAgICAgICAgb2Zmc2V0PSIwLjEyIgogICAgICAgICBzdG9wLWNvbG9yPSIjZmMxIgogICAgICAgICBpZD0ic3RvcDYzMzYwIiAvPgogICAgICA8c3RvcAogICAgICAgICBvZmZzZXQ9IjAuNDQiCiAgICAgICAgIHN0b3AtY29sb3I9IiNmZWI1MTciCiAgICAgICAgIGlkPSJzdG9wNjMzNjIiIC8+CiAgICAgIDxzdG9wCiAgICAgICAgIG9mZnNldD0iMC43NSIKICAgICAgICAgc3RvcC1jb2xvcj0iI2ZlYTYxYSIKICAgICAgICAgaWQ9InN0b3A2MzM2NCIgLz4KICAgICAgPHN0b3AKICAgICAgICAgb2Zmc2V0PSIxIgogICAgICAgICBzdG9wLWNvbG9yPSIjZmVhMTFiIgogICAgICAgICBpZD0ic3RvcDYzMzY2IiAvPgogICAgPC9saW5lYXJHcmFkaWVudD4KICA8L2RlZnM+CiAgPHRpdGxlCiAgICAgaWQ9InRpdGxlNjMzNzEiPkFydGJvYXJkIDE8L3RpdGxlPgogIDxnCiAgICAgaWQ9ImJlMzgyMmNlLWE4NzYtNDk5Mi04YjJjLThmMmJjZWM2OGE0ZSIKICAgICB0cmFuc2Zvcm09InRyYW5zbGF0ZSgxLjAwMjE3N2UtNCwtMS41MTkyMTg0KSI+CiAgICA8cG9seWdvbgogICAgICAgcG9pbnRzPSIxMy45NiwxNS44MSAxMy45NSwxNS44MSAiCiAgICAgICBpZD0icG9seWdvbjYzMzc2IgogICAgICAgc3R5bGU9ImZpbGw6IzZiYjlmMiIgLz4KICAgIDxnCiAgICAgICBpZD0iZzYzNDEyIj4KICAgICAgPGcKICAgICAgICAgaWQ9Imc2MzM5OCI+CiAgICAgICAgPHBhdGgKICAgICAgICAgICBkPSJNIDE0LjQ0LDEuNTIgSCAwLjYxIEEgMC41OCwwLjU4IDAgMCAwIDAsMi4xMSBWIDkuMjIgQSAwLjU4LDAuNTggMCAwIDAgMC41OSw5LjggSCA4LjI1IFYgNyBBIDAuNDksMC40OSAwIDAgMSA4LjU5LDYuNTMgSCA4LjcyIEEgNC44OSw0Ljg5IDAgMCAwIDExLjkxLDUuMzcgMi4zMiwyLjMyIDAgMCAxIDEyLjYsNS4xMiA0LDQgMCAwIDEgMTMuNDQsNSAzLjkyLDMuOTIgMCAwIDEgMTQuMjgsNS4wOCAyLjQ0LDIuNDQgMCAwIDEgMTUuMDIsNS4zNSBWIDIuMTEgQSAwLjU4LDAuNTggMCAwIDAgMTQuNDQsMS41MiBaIE0gMTAuMjIsNy4xNiBWIDkgaCA0LjA2IFYgNy4xNiBaIgogICAgICAgICAgIGlkPSJwYXRoNjMzNzgiCiAgICAgICAgICAgaW5rc2NhcGU6Y29ubmVjdG9yLWN1cnZhdHVyZT0iMCIKICAgICAgICAgICBzdHlsZT0iZmlsbDojODIxMDEwIiAvPgogICAgICAgIDxyZWN0CiAgICAgICAgICAgeD0iMC44NTAwMDAwMiIKICAgICAgICAgICB5PSIyLjMzOTk5OTkiCiAgICAgICAgICAgd2lkdGg9IjQuMDcwMDAwMiIKICAgICAgICAgICBoZWlnaHQ9IjEuOCIKICAgICAgICAgICBpZD0icmVjdDYzMzgwIgogICAgICAgICAgIHN0eWxlPSJmaWxsOiNlNjIzMjMiIC8+CiAgICAgICAgPHJlY3QKICAgICAgICAgICB4PSI1LjUzMDAwMDIiCiAgICAgICAgICAgeT0iMi4zMzk5OTk5IgogICAgICAgICAgIHdpZHRoPSI0LjA3MDAwMDIiCiAgICAgICAgICAgaGVpZ2h0PSIxLjgiCiAgICAgICAgICAgaWQ9InJlY3Q2MzM4MiIKICAgICAgICAgICBzdHlsZT0iZmlsbDojZmY3MzgxIiAvPgogICAgICAgIDxyZWN0CiAgICAgICAgICAgeD0iMTAuMjIiCiAgICAgICAgICAgeT0iMi4zMzk5OTk5IgogICAgICAgICAgIHdpZHRoPSI0LjA3MDAwMDIiCiAgICAgICAgICAgaGVpZ2h0PSIxLjgiCiAgICAgICAgICAgaWQ9InJlY3Q2MzM4NCIKICAgICAgICAgICBzdHlsZT0iZmlsbDojZTYyMzIzIiAvPgogICAgICAgIDxyZWN0CiAgICAgICAgICAgeD0iMC44NTAwMDAwMiIKICAgICAgICAgICB5PSI0Ljc1IgogICAgICAgICAgIHdpZHRoPSIxLjY5MDAwMDEiCiAgICAgICAgICAgaGVpZ2h0PSIxLjgiCiAgICAgICAgICAgaWQ9InJlY3Q2MzM4NiIKICAgICAgICAgICBzdHlsZT0iZmlsbDojZTYyMzIzIiAvPgogICAgICAgIDxwYXRoCiAgICAgICAgICAgZD0iTSAxNC4yOCw0Ljc1IFYgNS4xMSBBIDMuOTIsMy45MiAwIDAgMCAxMy40NCw1IDQsNCAwIDAgMCAxMi42LDUuMDggViA0Ljc1IFoiCiAgICAgICAgICAgaWQ9InBhdGg2MzM4OCIKICAgICAgICAgICBpbmtzY2FwZTpjb25uZWN0b3ItY3VydmF0dXJlPSIwIgogICAgICAgICAgIHN0eWxlPSJmaWxsOiNmZjczODEiIC8+CiAgICAgICAgPHJlY3QKICAgICAgICAgICB4PSIzLjE2MDAwMDEiCiAgICAgICAgICAgeT0iNC43NSIKICAgICAgICAgICB3aWR0aD0iNC4wNzAwMDAyIgogICAgICAgICAgIGhlaWdodD0iMS44IgogICAgICAgICAgIGlkPSJyZWN0NjMzOTAiCiAgICAgICAgICAgc3R5bGU9ImZpbGw6I2ZmNzM4MSIgLz4KICAgICAgICA8cGF0aAogICAgICAgICAgIGQ9Ik0gMTEuOTEsNC43NSBWIDUuMzYgQSA0Ljg5LDQuODkgMCAwIDEgOC43Miw2LjUyIEggOC41OSA3Ljg0IFYgNC43NSBaIgogICAgICAgICAgIGlkPSJwYXRoNjMzOTIiCiAgICAgICAgICAgaW5rc2NhcGU6Y29ubmVjdG9yLWN1cnZhdHVyZT0iMCIKICAgICAgICAgICBzdHlsZT0iZmlsbDojZTYyMzIzIiAvPgogICAgICAgIDxyZWN0CiAgICAgICAgICAgeD0iMC44NTAwMDAwMiIKICAgICAgICAgICB5PSI3LjE3MDAwMDEiCiAgICAgICAgICAgd2lkdGg9IjQuMDcwMDAwMiIKICAgICAgICAgICBoZWlnaHQ9IjEuOCIKICAgICAgICAgICBpZD0icmVjdDYzMzk0IgogICAgICAgICAgIHN0eWxlPSJmaWxsOiNlNjIzMjMiIC8+CiAgICAgICAgPHJlY3QKICAgICAgICAgICB4PSI1LjUzMDAwMDIiCiAgICAgICAgICAgeT0iNy4xNTk5OTk4IgogICAgICAgICAgIHdpZHRoPSIyLjcyIgogICAgICAgICAgIGhlaWdodD0iMS44IgogICAgICAgICAgIGlkPSJyZWN0NjMzOTYiCiAgICAgICAgICAgc3R5bGU9ImZpbGw6I2ZmNzM4MSIgLz4KICAgICAgPC9nPgogICAgICA8ZwogICAgICAgICBpZD0iZzYzNDEwIj4KICAgICAgICA8cGF0aAogICAgICAgICAgIGQ9Im0gMTgsMTEgYyAwLDMgLTMuNiw1LjM4IC00LjM4LDUuODcgYSAwLjMyLDAuMzIgMCAwIDEgLTAuMywwIEMgMTIuNTEsMTYuMzkgOC45MSwxNCA4LjkxLDExIFYgNy40MyBBIDAuMjksMC4yOSAwIDAgMSA5LjE5LDcuMTQgYyAyLjgsLTAuMDcgMi4xNSwtMS4zIDQuMjUsLTEuMyAyLjEsMCAxLjQ1LDEuMjMgNC4yNSwxLjMgYSAwLjI5LDAuMjkgMCAwIDEgMC4yOCwwLjI5IHoiCiAgICAgICAgICAgaWQ9InBhdGg2MzQwMCIKICAgICAgICAgICBpbmtzY2FwZTpjb25uZWN0b3ItY3VydmF0dXJlPSIwIgogICAgICAgICAgIHN0eWxlPSJmaWxsOiNkZmE1MDAiIC8+CiAgICAgICAgPGcKICAgICAgICAgICBpZD0iZzYzNDA4Ij4KICAgICAgICAgIDxwYXRoCiAgICAgICAgICAgICBkPSJNIDEzLjQ0LDExLjM4IFYgNi4zIGMgMS45MywwIDEuMzMsMS4xMyAzLjksMS4yIEEgMC4yNiwwLjI2IDAgMCAxIDE3LjYsNy43NiBWIDExIGMgMCwwLjEyIDAsMC4yMyAwLDAuMzQgeiBtIDAsMCBIIDkuMyBjIDAuMjUsMi41NyAzLjMyLDQuNjEgNCw1IGggMC4xMiB2IDAgeiIKICAgICAgICAgICAgIGlkPSJwYXRoNjM0MDIiCiAgICAgICAgICAgICBpbmtzY2FwZTpjb25uZWN0b3ItY3VydmF0dXJlPSIwIgogICAgICAgICAgICAgc3R5bGU9ImZpbGw6dXJsKCNiOWVkYTE0ZC01MDE4LTQwNjktODQ2MS1lOWMxNTIyNzY1ZmYpIiAvPgogICAgICAgICAgPHBhdGgKICAgICAgICAgICAgIGQ9Im0gOS41NCw3LjUgYyAyLjU3LC0wLjA3IDIsLTEuMiAzLjksLTEuMiB2IDUuMDggSCA5LjMgYyAwLC0wLjExIDAsLTAuMjIgMCwtMC4zNCBWIDcuNzYgQSAwLjI2LDAuMjYgMCAwIDEgOS41NCw3LjUgWiIKICAgICAgICAgICAgIGlkPSJwYXRoNjM0MDQiCiAgICAgICAgICAgICBpbmtzY2FwZTpjb25uZWN0b3ItY3VydmF0dXJlPSIwIgogICAgICAgICAgICAgc3R5bGU9ImZpbGw6I2ZmZDQwMCIgLz4KICAgICAgICAgIDxwYXRoCiAgICAgICAgICAgICBkPSJtIDE3LjU4LDExLjM4IGggLTQuMTQgdiA1LjA4IDAgaCAwLjExIEMgMTQuMjcsMTYgMTcuMzMsMTQgMTcuNTgsMTEuMzggWiIKICAgICAgICAgICAgIGlkPSJwYXRoNjM0MDYiCiAgICAgICAgICAgICBpbmtzY2FwZTpjb25uZWN0b3ItY3VydmF0dXJlPSIwIgogICAgICAgICAgICAgc3R5bGU9ImZpbGw6I2ZmZDQwMCIgLz4KICAgICAgICA8L2c+CiAgICAgIDwvZz4KICAgIDwvZz4KICA8L2c+CiAgPG1ldGFkYXRhCiAgICAgaWQ9Im1ldGFkYXRhNjM0MTUiPgogICAgPHJkZjpSREY+CiAgICAgIDxyZGY6bGk+cHVibGljOnRydWU8L3JkZjpsaT4KICAgICAgPHJkZjpsaT5zZGs6ZmFsc2U8L3JkZjpsaT4KICAgICAgPHJkZjpsaT5jYXRlZ29yeTogTmV0d29ya2luZzwvcmRmOmxpPgogICAgICA8Y2M6V29yawogICAgICAgICByZGY6YWJvdXQ9IiI+CiAgICAgICAgPGRjOmZvcm1hdD5pbWFnZS9zdmcreG1sPC9kYzpmb3JtYXQ+CiAgICAgICAgPGRjOnR5cGUKICAgICAgICAgICByZGY6cmVzb3VyY2U9Imh0dHA6Ly9wdXJsLm9yZy9kYy9kY21pdHlwZS9TdGlsbEltYWdlIiAvPgogICAgICAgIDxkYzp0aXRsZT5BcnRib2FyZCAxPC9kYzp0aXRsZT4KICAgICAgPC9jYzpXb3JrPgogICAgPC9yZGY6UkRGPgogIDwvbWV0YWRhdGE+Cjwvc3ZnPgo=;" vertex="1" parent="1">
          <mxGeometry x="215" y="-495" width="36" height="30" as="geometry" />
        </mxCell>
        <mxCell id="IPUG4N9_TtiLt6nAQQPi-83" value="" style="image;aspect=fixed;html=1;points=[];align=center;fontSize=12;image=data:image/svg+xml,PD94bWwgdmVyc2lvbj0iMS4wIiBlbmNvZGluZz0iVVRGLTgiIHN0YW5kYWxvbmU9Im5vIj8+CjxzdmcKICAgeG1sbnM6ZGM9Imh0dHA6Ly9wdXJsLm9yZy9kYy9lbGVtZW50cy8xLjEvIgogICB4bWxuczpjYz0iaHR0cDovL2NyZWF0aXZlY29tbW9ucy5vcmcvbnMjIgogICB4bWxuczpyZGY9Imh0dHA6Ly93d3cudzMub3JnLzE5OTkvMDIvMjItcmRmLXN5bnRheC1ucyMiCiAgIHhtbG5zOnN2Zz0iaHR0cDovL3d3dy53My5vcmcvMjAwMC9zdmciCiAgIHhtbG5zPSJodHRwOi8vd3d3LnczLm9yZy8yMDAwL3N2ZyIKICAgeG1sbnM6c29kaXBvZGk9Imh0dHA6Ly9zb2RpcG9kaS5zb3VyY2Vmb3JnZS5uZXQvRFREL3NvZGlwb2RpLTAuZHRkIgogICB4bWxuczppbmtzY2FwZT0iaHR0cDovL3d3dy5pbmtzY2FwZS5vcmcvbmFtZXNwYWNlcy9pbmtzY2FwZSIKICAgaWQ9ImFiZDBmMjAzLWJiM2YtNDBiMS1hYTcwLWQzYzQ1MjNiNjllOSIKICAgd2lkdGg9IjE0LjcyIgogICBoZWlnaHQ9IjE3Ljk5NzU3MiIKICAgdmlld0JveD0iMCAwIDE0LjcyIDE3Ljk5NzU3MiIKICAgdmVyc2lvbj0iMS4xIgogICBzb2RpcG9kaTpkb2NuYW1lPSJERG9TX1Byb3RlY3Rpb25fUGxhbnMuc3ZnIgogICBpbmtzY2FwZTp2ZXJzaW9uPSIwLjkyLjMgKDI0MDU1NDYsIDIwMTgtMDMtMTEpIj4KICA8c29kaXBvZGk6bmFtZWR2aWV3CiAgICAgcGFnZWNvbG9yPSIjZmZmZmZmIgogICAgIGJvcmRlcmNvbG9yPSIjNjY2NjY2IgogICAgIGJvcmRlcm9wYWNpdHk9IjEiCiAgICAgb2JqZWN0dG9sZXJhbmNlPSIxMCIKICAgICBncmlkdG9sZXJhbmNlPSIxMCIKICAgICBndWlkZXRvbGVyYW5jZT0iMTAiCiAgICAgaW5rc2NhcGU6cGFnZW9wYWNpdHk9IjAiCiAgICAgaW5rc2NhcGU6cGFnZXNoYWRvdz0iMiIKICAgICBpbmtzY2FwZTp3aW5kb3ctd2lkdGg9IjE5MjAiCiAgICAgaW5rc2NhcGU6d2luZG93LWhlaWdodD0iMTAxNyIKICAgICBpZD0ibmFtZWR2aWV3NjM3ODgiCiAgICAgc2hvd2dyaWQ9ImZhbHNlIgogICAgIGZpdC1tYXJnaW4tdG9wPSIwIgogICAgIGZpdC1tYXJnaW4tbGVmdD0iMCIKICAgICBmaXQtbWFyZ2luLXJpZ2h0PSIwIgogICAgIGZpdC1tYXJnaW4tYm90dG9tPSIwIgogICAgIGlua3NjYXBlOnpvb209IjQ4LjExMTExMSIKICAgICBpbmtzY2FwZTpjeD0iNy4zNiIKICAgICBpbmtzY2FwZTpjeT0iOC45OTc1NzE3IgogICAgIGlua3NjYXBlOndpbmRvdy14PSItOCIKICAgICBpbmtzY2FwZTp3aW5kb3cteT0iLTgiCiAgICAgaW5rc2NhcGU6d2luZG93LW1heGltaXplZD0iMSIKICAgICBpbmtzY2FwZTpjdXJyZW50LWxheWVyPSJhYmQwZjIwMy1iYjNmLTQwYjEtYWE3MC1kM2M0NTIzYjY5ZTkiIC8+CiAgPGRlZnMKICAgICBpZD0iZGVmczYzNzY3Ij4KICAgIDxsaW5lYXJHcmFkaWVudAogICAgICAgaWQ9ImJmMzRmZDE1LTJhYjItNDliZi04MGQyLTczMWMxOWIyMGRjMyIKICAgICAgIHgxPSI5IgogICAgICAgeTE9IjEuMzYiCiAgICAgICB4Mj0iOSIKICAgICAgIHkyPSIxNy44NzAwMDEiCiAgICAgICBncmFkaWVudFVuaXRzPSJ1c2VyU3BhY2VPblVzZSI+CiAgICAgIDxzdG9wCiAgICAgICAgIG9mZnNldD0iMC4xOCIKICAgICAgICAgc3RvcC1jb2xvcj0iIzVlYTBlZiIKICAgICAgICAgaWQ9InN0b3A2Mzc2MiIgLz4KICAgICAgPHN0b3AKICAgICAgICAgb2Zmc2V0PSIxIgogICAgICAgICBzdG9wLWNvbG9yPSIjMDA3OGQ0IgogICAgICAgICBpZD0ic3RvcDYzNzY0IiAvPgogICAgPC9saW5lYXJHcmFkaWVudD4KICA8L2RlZnM+CiAgPHRpdGxlCiAgICAgaWQ9InRpdGxlNjM3NjkiPkljb24tbmV0d29ya2luZy03MjwvdGl0bGU+CiAgPHBhdGgKICAgICBkPSJtIDE0LjcyLDguNCBjIDAsNC44NCAtNS44NSw4Ljc0IC03LjEyLDkuNTMgYSAwLjQ2LDAuNDYgMCAwIDEgLTAuNDgsMCBDIDUuODUsMTcuMTQgMS4yODQ1MDg1ZS04LDEzLjI0IDEuMjg0NTA4NWUtOCw4LjQgViAyLjU4IEEgMC40NiwwLjQ2IDAgMCAxIDAuNDUwMDAwMDEsMi4xMiBDIDUsMiAzLjk1LDAgNy4zNiwwIGMgMy40MSwwIDIuMzYsMiA2LjkxLDIuMTIgYSAwLjQ2LDAuNDYgMCAwIDEgMC40NSwwLjQ2IHoiCiAgICAgaWQ9InBhdGg2Mzc3MSIKICAgICBpbmtzY2FwZTpjb25uZWN0b3ItY3VydmF0dXJlPSIwIgogICAgIHN0eWxlPSJmaWxsOiMwMDc4ZDQiIC8+CiAgPHBhdGgKICAgICBkPSJtIDE0LjExLDguNDUgYyAwLDQuNDQgLTUuMzYsOCAtNi41Myw4Ljc0IGEgMC40MywwLjQzIDAgMCAxIC0wLjQ0LDAgQyA1Ljk3LDE2LjQ3IDAuNjEwMDAwMDEsMTIuODkgMC42MTAwMDAwMSw4LjQ1IFYgMy4xMSBBIDAuNDIsMC40MiAwIDAgMSAxLjAyLDIuNjkgQyA1LjE5LDIuNTggNC4yMywwLjc1IDcuMzYsMC43NSBjIDMuMTMsMCAyLjE3LDEuODMgNi4zNCwxLjk0IGEgMC40MiwwLjQyIDAgMCAxIDAuNDEsMC40MiB6IgogICAgIGlkPSJwYXRoNjM3NzMiCiAgICAgaW5rc2NhcGU6Y29ubmVjdG9yLWN1cnZhdHVyZT0iMCIKICAgICBzdHlsZT0iZmlsbDp1cmwoI2JmMzRmZDE1LTJhYjItNDliZi04MGQyLTczMWMxOWIyMGRjMykiIC8+CiAgPHBhdGgKICAgICBkPSJNIDEwLjE2LDEyLjUyIEEgMC40OCwwLjQ4IDAgMCAxIDkuNjgsMTMgSCA1LjA0IEEgMC40OCwwLjQ4IDAgMCAxIDQuNTYsMTIuNTIgViAzLjk0IEEgMC40OCwwLjQ4IDAgMCAxIDUuMDQsMy40NSBoIDQuNjQgYSAwLjQ4LDAuNDggMCAwIDEgMC40OCwwLjQ5IHoiCiAgICAgaWQ9InBhdGg2Mzc3NSIKICAgICBpbmtzY2FwZTpjb25uZWN0b3ItY3VydmF0dXJlPSIwIgogICAgIHN0eWxlPSJmaWxsOiNlNmU2ZTYiIC8+CiAgPHBhdGgKICAgICBkPSJtIDUuMzYsNSBhIDAuNiwwLjYgMCAwIDEgMC42LC0wLjYgaCAyLjggQSAwLjYsMC42IDAgMCAxIDkuMzYsNSBWIDUgQSAwLjYsMC42IDAgMCAxIDguNzYsNS42MSBIIDUuOTYgQSAwLjYsMC42IDAgMCAxIDUuMzYsNSBaIgogICAgIGlkPSJwYXRoNjM3NzciCiAgICAgaW5rc2NhcGU6Y29ubmVjdG9yLWN1cnZhdHVyZT0iMCIKICAgICBzdHlsZT0iZmlsbDojMDAzMDY3IiAvPgogIDxjaXJjbGUKICAgICBjeD0iNS45OTAwMDAyIgogICAgIGN5PSI0Ljk4OTk5OTgiCiAgICAgcj0iMC40MSIKICAgICBpZD0iY2lyY2xlNjM3NzkiCiAgICAgc3R5bGU9ImZpbGw6IzUwZTZmZiIgLz4KICA8cGF0aAogICAgIGQ9Im0gNS4zNiw2LjkgYSAwLjYxLDAuNjEgMCAwIDEgMC42LC0wLjYxIGggMi44IGEgMC42MSwwLjYxIDAgMCAxIDAuNiwwLjYxIHYgMCBBIDAuNiwwLjYgMCAwIDEgOC43Niw3LjUxIEggNS45NiBBIDAuNiwwLjYgMCAwIDEgNS4zNiw2LjkgWiIKICAgICBpZD0icGF0aDYzNzgxIgogICAgIGlua3NjYXBlOmNvbm5lY3Rvci1jdXJ2YXR1cmU9IjAiCiAgICAgc3R5bGU9ImZpbGw6IzAwMzA2NyIgLz4KICA8Y2lyY2xlCiAgICAgY3g9IjUuOTkwMDAwMiIKICAgICBjeT0iNi45MDAwMDAxIgogICAgIHI9IjAuNDEiCiAgICAgaWQ9ImNpcmNsZTYzNzgzIgogICAgIHN0eWxlPSJmaWxsOiM1MGU2ZmYiIC8+CiAgPG1ldGFkYXRhCiAgICAgaWQ9Im1ldGFkYXRhNjM3ODUiPgogICAgPHJkZjpSREY+CiAgICAgIDxyZGY6bGk+cHVibGljOnRydWU8L3JkZjpsaT4KICAgICAgPHJkZjpsaT5zZGs6ZmFsc2U8L3JkZjpsaT4KICAgICAgPHJkZjpsaT5jYXRlZ29yeTogTmV0d29ya2luZzwvcmRmOmxpPgogICAgICA8Y2M6V29yawogICAgICAgICByZGY6YWJvdXQ9IiI+CiAgICAgICAgPGRjOmZvcm1hdD5pbWFnZS9zdmcreG1sPC9kYzpmb3JtYXQ+CiAgICAgICAgPGRjOnR5cGUKICAgICAgICAgICByZGY6cmVzb3VyY2U9Imh0dHA6Ly9wdXJsLm9yZy9kYy9kY21pdHlwZS9TdGlsbEltYWdlIiAvPgogICAgICAgIDxkYzp0aXRsZT5JY29uLW5ldHdvcmtpbmctNzI8L2RjOnRpdGxlPgogICAgICA8L2NjOldvcms+CiAgICA8L3JkZjpSREY+CiAgPC9tZXRhZGF0YT4KPC9zdmc+Cg==;" vertex="1" parent="1">
          <mxGeometry x="55.12" y="-316.25" width="31" height="38" as="geometry" />
        </mxCell>
        <mxCell id="IPUG4N9_TtiLt6nAQQPi-84" value="" style="sketch=0;outlineConnect=0;fontColor=#232F3E;gradientColor=none;fillColor=#FFFF99;strokeColor=none;dashed=0;verticalLabelPosition=bottom;verticalAlign=top;align=center;html=1;fontSize=12;fontStyle=0;aspect=fixed;pointerEvents=1;shape=mxgraph.aws4.cache_node;" vertex="1" parent="1">
          <mxGeometry x="90" y="-316.25" width="35" height="35" as="geometry" />
        </mxCell>
        <mxCell id="IPUG4N9_TtiLt6nAQQPi-87" style="edgeStyle=orthogonalEdgeStyle;rounded=0;orthogonalLoop=1;jettySize=auto;html=1;" edge="1" parent="1" source="IPUG4N9_TtiLt6nAQQPi-86" target="IPUG4N9_TtiLt6nAQQPi-60">
          <mxGeometry relative="1" as="geometry" />
        </mxCell>
        <mxCell id="IPUG4N9_TtiLt6nAQQPi-86" value="" style="shape=image;html=1;verticalAlign=top;verticalLabelPosition=bottom;labelBackgroundColor=#ffffff;imageAspect=0;aspect=fixed;image=data:image/png,iVBORw0KGgoAAAANSUhEUgAAAIAAAACACAYAAADDPmHLAAAAAXNSR0IArs4c6QAAFIJJREFUeF7tXXuYFNWV/53qYRjiyiv4mq5GMCiCyIiiq1FjfGyIS9RNUIjZNRt11yd09aBGzEbFmBATDdPdiJFs1C8azQYJm6hLPvlEExeNL4yCri980dWDIGEEVAZmus5O1SAfM911b9169LRj1b997u887q/v49xTdQnx85mOAH2mvY+dR0yAzzgJYgLEBAgnApwfMxj4+CSwdiSIx8GifUE82EEnDAFDE2pi2hvgugoy20FYD8JaWFiGTl5GV7ZuCsfqcFH4Z40pJLSzAGsqoI0CIQVgr0BamDsAfAiNW8HaqwCvAtOj+MB8lubCCoTtdE2Ah+eOr8fwbdNQ4u9AwykAKnVgAA0VmjK3g3AbEphHM4t/CxfcHxrP15NIWHPB2vkgJPyhKLZimCC6ByVeSLPNomLr3eK+CMCLkcB7qYvAPAfASL/KA7bbBPB0MoqPBcQJ1JyzqTNB/GsAewcC8tuYeUfXSHMHSnQtzTY3q8IoE4Bbkkcgod0B5iNVlUUg3wnQRWQU7ooAWwrJOX0WgCwgmd6kSKEI2H+Iy8koLlZBUyIA55IXgZEDUYOKkohlOwH+KhnFFRHr6QG/65//3zXS+XvathBtZobmotNLPDwRgBmEvD4PgD3k1+DDm1HfOY4u3bCxGsZ1z/l4pc+GfamT9CBKPINmm9tlot4I0KLfDA1XysD69HfCrZQ27SE58odz+i8BXBi5okAK6EG0Fb4hGwmkBOCcbuya5wKZE31j3gmrbhQ1v7s+Sl27tnpvV221H8QZD38KIQE4nzwWFh4H0QBPdjBKYF6JBP0PLLwF5lZoiZ2AtRWWVhJiNOz4EDzQ3vP2fD7uTKAucSrIugmgUUIM4ksoXVzkyVafQpzVZ4KwQGwHCrDQjB3ty+nqTdt8qnKa8c377YWGRArQRsPCVDDOAkH3jEl8DqWLS9zkXQnA+TEDwe1rABwsVWYnK5hvR339PLr8nfek8j4EODt6P3DH09BwoKD5Q2SYZ/iA99yEs/oyEE53bUAooBNH+NmSeTGC56IOQ/XzAZ4LokZpG8b7qNfG0mXr2irJCgiQ+j6Yb5QqIOtlWJhGmdbXpLIBBTifOhfM9wlgXiPDPDSgGmFzzum2n4e4CjHOpoz5uyhtcEaGn4zYGw2D7u3KDMoJL5gKKhLASevy9ncBGip0xMJyJBrOofTarVE77Dh928hh6LBEyY5tZJjd6eeIHs7ptq/uSZ/29sFBh32vpvNcaBiu58CYKWYt70BCO4hmFVp7y1UmQC51pT37SAx5ATs7TqCrNnzk1eAw5Dincxg4UWGQYUoX1mHqdkgwLPV76UhANI/Shf/wRoB840tg7TCBoduQKB1OM9e/G6YzXrBiApRHadeI/SpABwhiuA5t5ujeB0hlbOX5Iw9DwnpJ2BmE6ylt/sBLh4UtExOgckSdLC1IvAMi/D2lzWf2RCgnQF5PO+le14c3o27ngXT5+x+G3ble8GICuBDA3h0MS74DUNI1joQ5lDZ/IiZAVr8PhHPdQehuShf+1UtnRSEjXYRFodQrJvMWyhTFC2evWD7kOJdcCNBlgqZLyDDPkYwAqVXCkz5JYsGH3UpNONe4FNC+rtSoWsIWLabmwoxqqeuth/PJqWB6SDB6ryGjOFE2AmwEYR/3EUA7jNLr/q/PnMw2jgXRkwAN7ysbXAbhzSA0Ubpo9pVdvKDxUFiafUjl9mwiw+zRt+VrgGxyu/C4d4A23C2rVC3HOZ/UAW0+LJ4CQqT7fqlPDDsv8Ajs+dUw35DKRyjQnRxqcM/JMO+gTLHHUX45AST77GrvcyOMV7+Eli2Se/dfTIB+RoOYAP2sQ1XdiQmgGrF+Jh8ToJ91qKo7MQFUI9bP5GMC9LMOVXUnJoBqxPqZfE0SgJ+ZkEIi0QLGVyoUU9g1cyvst4zo6NWRVxX1RX9X0/+aI4DjvJZ4AYA4dctoA5ea6JiXCn3RSVHprLb/tUeAVU1LwJjmMcD30+QXp3uU/VSIcZX9rz0CPNckrqHr0Y3WVpq8Zsinomc9GslV9r8WCaBUw0eTX6xqTZ3HfvQtpkYA3kKTVweqJ4gJ4LuromnIzx2uUL9gLabJawLVE8QEiKYffaPysxN31S9IFsHAZnRyEx27OlA9QUwA310VXUN+aqKOOpoPWFO66hh61S9YW8HaI6ijOTTphcD1BH1CAMk+N2hklfMEivaEja+M1ztAQfIGVSeA531uUBp4zBP4tidsfI94FTs/QN6k+gRQ2+cGpYE0T6C47+5tT9j4UrwyAqjFswy/+gRQ2ucG7X95nkBt29XbnrDx5XhlBFCKZzl+XxBAaZ8flAKyPAE/1xTIHg/4Cokt9X29GoHL8WMCRE6AaPf1QfMGMQGiJkDE+/qgeYOYABETwJ7Cot7XB8HvCwIozIlBVwDyOVVtDi1bggXOxVfyMMi+XjVifUAAlTlR1Z2yVbo0V642h6rjq3rgOS/hM29QRmHFF3sCvxiiMGepxq63vKdceQB7POGrOqGYl1DOG/Q5AeRzomrIyvfmqrly8RwaHF/FI7UpST1vUBMEEAVEdV8u24erBL8WZNUIIF/jyHyq+hpAapDiqrz/EUBljRTXA6DfESDivEE8BciGoBr4Pci+XtX8WpwCFPIEwedA1YD1N/kaJEB158D+1qGq/tQeAao8B6oGrL/J1xwB5HmCcGvi+luHqvpTkwRQdSKW9x+BmAD+Y9cvWsYE6Bfd6N+JyAmANnOA7CIi/+bHLYNEwLlNZJhefu3OHqDyz8Rl9S3Cjy9aPImai/br3vFTYxFwLvXU6K+uZjG2Usbs8fJthS+FplaC+Hh33/hiMoq/qDHfY3PsSqV88mIw3S7ou5VdF2yeuOfvFeoBUvMBbnYHsX5JRuu/xxGvvQjI7zPk+WQUrxATQHYxk4UXqdk8ovbcjy3inP4igB5fA+8ZFTqXjMJ/iQkwXx+DBEQvKXaiwRpCF7d+/GkIefe8qE0HSseDtXEAD3W9B9G+/g70Ach6BUg8ASrdT+lW9zm1hgLAixo/h3ZtC4A6V7NKOJhmm2vFBHDuCU5uEn6OXbNOoFmtT9SQ/2WmcDZ1tH25GggnB7KT8CdY9F3KFJ4NhBNxY86OPAFk/a9g/t+MdHEEEXq8OFP51rAW/WFozhe9Kj/MsylTbInYJ1/wzkXXueQPALomtOtd7RtRwT+GUbyudwB9GRlBI84mm0H2K+guj4Xl1GxO6f1rZQJkkzeC6PvuBMBvKGN+KwI/AkF2X6HWeA+gRWSbdR/aWs/rffNWIKNDasyyq36Yf0iZ4rUeCZA6E8R/cLWNeC2li/IrZUNyzisM52Q7GK9IAjmmLGUKgl1SCDp8QHA++QaYxrj/aeksyhQe8EaAlgMPgFYqu2Vyd2MGw8KIqO7H9eE/ODvyHwDrYRCi/ciU7TvodMoUHvZjZxRteL4+HBo2CX23Eo2VblZ3vzs4qxeEt1QTTaF0YXkUDqli8mIksD65BqBxqm19yr+Ohv0m0MWrhGlXn9jKzTinfxXAH91HbBQobY6s9Ls7AWS3cxFdS+nCD5WtjaAB5/R/A/CfEUCL5oKayYhyLnUtwO4XeTKWUsas+LFO0QgwB4QfC9YBD1C6eFZ1g16uje8a1YBtna+DkRLawngMGm5AJ56h2eb2SrI8Xx8Ejezt4/UgnCLG41YM4oNrIR/C+eQfwHSm+/yPayhj3qQ4AiRPBegR9yDw+q4zAfn99REzhHOp2QD/TKJmGQ4wz6Tp9nZO/ji7iSH6UmgQE5zdAyvXEp5E17WxreJ7g/m0rjOAFWoEWHTQELTvtK9q1wSjQKpP78mzr0kb2LAWhH3d2c/tKPEhdEWr0keouXshbGdE9xL8CT5AAmNoZvFv4XWnGhJnG0eCNPdLvO1FK9cNp+Z3PlAigC3MOf1VAGMFi4tplDaXqpkcnjTn9LldZl4vRiw/APFqAedS8wC+RiL/UzLMq71ihi3Hef0bYPxOgPsaGeahbr8Lt0zcot8NDecJwG8iw5QFKGyfHTy+pXEE6rQ3JRdHbkN9xxi6dMNGP0awPQpu32nr+LxgFNgOwiF9NRJyVr8JBHcCkviuZzEBcvqsru/85wXBW0GGeZqf4AZtw9lUC4gzYhy6jozCjUF0cU7/LoAeN26X4/HPySiKLm0OYoKwLWf1FcIFK2MWZcxb/Y0A+eSxYPqLYH7dAqM4rNr5cWfeA70mvOKWsRE72sfQ1ZvsL3f6fpydQYLfEF7Lbp8iato4Shfe9K3IR0NnsTo0uRlE7p/YJz6O0sWn/BHA3mJt7dgCUL07CaxDKdNa1ateOKffAeACScwyZJg5H3EtayKvtLGbWPeS0fovYejzisEtB4yDlnC/yNsmpkVD3La9th5p2pTzkuvkwd8mo3iPV6ODyu26IXuN8NwbWAdqOITSa3cE1eesNxYdNQDtG14GIDr/sMCYRBlzdRg6vWBwLnkeQHe7yhI9T+nCUSIsOQFyqZ8DfIkriGUtoObWtBeDw5DhXOoBgM8QYhFdSOnCnWHo+wSDc7p9wniveELGo5QxTw1TrwiL8/oCMGa6y8jXJnIC5FMXgNkecis/jKcoYx5XDac5lzwZoEclul5Hm3lY2KXr3UfN+ioAsnK4qWSYy6oUj6cBOsZdF11ARuGuYCPAAv1wWHAf1pjbMWj/wVEfjDgHPkV9FTQ0iYPLM8goLo6iAzib/BqIHpTofwVtxYlhE7C3Tp47vh5Dt2wRLoQ1TKRZpj1dus8SskB1n7Tpdq2Ze0bMKh1Fzeufl2EF+b0r3XlRV7pzkQTjaaTN46LclXBefwyML4unIBiUNkXb5yChcNpybuRRgPWcAOgjHGAOkaW/pVNAtzL98a7LHXvUk/dUzJeSURTUowfzl29Nfh4lsrOSI4RIrJ1ImXUrg2mT/L+7X76wpwL3FDljKyyMp9lmMSpbOJ+6FMy3ueNbj5PRepJMvzcC5JO3gKlHPXkv4DvJMC+UKfP7O2eTd4HoO+J/Hd1P6UJV7hzkfOpXYP622B7+LaWL3/Trs6wd55J3AnS+q5yFW6jZvEqG440A2dQMEPeoJ+81AqwhoyioR5eZ4f4751MnwuI/iyt9eCdIG1+tRAznkzosOxGFz0lIGVnRDOecApgJrvqZvkmZwm9lkfdGgJaRB0Gz3LNcdtVsR8cQumrDRzKFKr/zwn3+DqX6vwpr3WxAj2xX0S2T9XYQhXVoqJ9IF79lr6FCe5y4dAz8QFj1bGlfoOZ1b8mUeiKADcJZfSMI+7gCEn2J0gVBXbrMlPLfOafbi76LxP8yFJDYMZ4uf/9DdQ3+W3B+zEBwu/0mjvtpaTc576FmUzxdKJrRtRA9qWsh+idBs01kmO59tUdDFQIsA+F0wZBzJWUKssIMz65yPjkVFj0oL/KkfyKj4F7B7FmjuqBTiEqWvC6ScTZlTNGRrZJyzqWuBPhm977AHylj/qMXUBUC3ADCde4jQHiLHl5w4GiUSk8LR5xuQ5aRYU714mhUMtJ6fGf4tHcF2hdp9jo7nRz44XxqMZjPEQDdQIZp10pIHwUCSJIgjLcpYx4k1SgRcM7g23f8xUOF7zawNYEyreuC6gzSnheO2h+dHS8LX6XrVvAGSjg2jFJ6ziXfBmiU+wjAZ1Cm+JAXvxQIMHo/UMd7QlCNjqZZBVFyQtjcmVdL7Q8IX0vbjVDdQyiR4ZzVp4GwRBpwuzDVwlTR6ZwMg/P6MWA8LQ7kgP0p8/YGGZb9u2cCOCNZLvlm1+mT+7+c6QkMSZxG57/T7kX5njJ828hh6ODFAHsoMLHuI6P1n1V1RCnPef0XYMi/m9BNgrP9jARObUIdVoAhOHvht7pOZ7/g1Vc1AkhPn2xK0fNgvhZW3ZNuhYg9Oj4/ZjC4/WsA/0g4rH3SiPE2BtVPCntr5TVgbnLO69nbtVUguNbf7dHWnrauATU8ROm19qd0xX/ollFDoXV+EUQ3gvlIsTDylDENGeYnv6sSQLb98KrXpxxvB9PJlDHFQ6BP9KDNOJ9sApO9Fd47KJbv9orpcCUCdE8DjX8GtC/5NtBvQzvZpGF6X1YhezGdFyRPQQnLQDTQi3y4Mlz2DSAZvjoB7EWIxStdv7Ih0+j3d+JLKF2UnQb6RQ+1nVOpw/QreQ4jTLW8E5p2vOoiXJkA3aOAl0rZEJ2rofcQvXrlvLHEfEv1SEBXkFFw/0CEi+G+COCQIKv/FATpaZPXgLnIdQI8K8qj5oD2iddjdjWVZd1ehdHS9/sZvgngkCCvp8F8E0CDQg8kw4RG3wr7fCF0OyWA3JI8DqDfQMOB4evm7QBdTYa5wC92IAI4JLBLkxOJeWDYb6e6F0l4tZBhf31sAXa0/yhoTb9XlVHLOad3nQ3fA7MhPUL2Zoxdgfx7wPpe0JL8wAT4xF7ONo4FtK+D+JQuxo/tqlbZV1ivtttR3gngfcD5xOlyDNB+TZeta/MWh0+XFHfv5+1X7b4C8CTAPl0VvHOxO7jcDqKNAL8GpkdRx0tpZvH1MLwPjQBhGBNjVD8CMQGqH/Oa0hgToKa6o/rGxASofsxrSmNMgJrqjuobExOg+jGvKY0xAWqqO6pvTEyA6se8pjRWJAA/MyGFRKIF7HwxvO/OtsMJlf2FkBVgnkNHr674IQtFf8PGC8dLdxShvWUEcIKhJexLoYZHbVlV8Rlt4FITHfNSj8/F+fY3bLyog+FibzkBVjUtAaPiZ0WjtrEK+PfT5Bd7vD/IwfwNGy/qEJTZW06A55oUrnuP2t6w8a2tNHlNjw8qcSB/w8YL29/eeOX2fsYIwFto8uqhe4YlGAHCxouaAOX2ViDA4UudU71++ViLafKaGT0JEMTfsPGiDnq5veUEeHbiWBA92e8WgcBmdHITHbva7EEA//6GjRd171e0t/I28KmJOursC4isKYA2OGrLosW3toK1R1BHc2jSCxWvw2Mlf8PGi9Z7QGxvnAiKOv41jh8ToMY7KGrzYgJEHeEax48JUOMdFLV5/w/2g80Irc9A+wAAAABJRU5ErkJggg==;clipPath=inset(10.94% 10.94% 10.94% 10.94%);" vertex="1" parent="1">
          <mxGeometry x="60" y="-213" width="60" height="60" as="geometry" />
        </mxCell>
        <mxCell id="IPUG4N9_TtiLt6nAQQPi-88" style="edgeStyle=orthogonalEdgeStyle;rounded=0;orthogonalLoop=1;jettySize=auto;html=1;exitX=0;exitY=0.5;exitDx=0;exitDy=0;entryX=0;entryY=0.448;entryDx=0;entryDy=0;entryPerimeter=0;" edge="1" parent="1" source="IPUG4N9_TtiLt6nAQQPi-86" target="IPUG4N9_TtiLt6nAQQPi-59">
          <mxGeometry relative="1" as="geometry" />
        </mxCell>
        <mxCell id="IPUG4N9_TtiLt6nAQQPi-89" value="" style="shape=image;html=1;verticalAlign=top;verticalLabelPosition=bottom;labelBackgroundColor=#ffffff;imageAspect=0;aspect=fixed;image=https://cdn1.iconfinder.com/data/icons/ionicons-fill-vol-2/512/logo-discord-128.png;fontSize=8;" vertex="1" parent="1">
          <mxGeometry x="-130" y="-530" width="30" height="30" as="geometry" />
        </mxCell>
        <mxCell id="IPUG4N9_TtiLt6nAQQPi-91" value="" style="edgeStyle=orthogonalEdgeStyle;rounded=0;orthogonalLoop=1;jettySize=auto;html=1;" edge="1" parent="1" source="IPUG4N9_TtiLt6nAQQPi-90" target="IPUG4N9_TtiLt6nAQQPi-63">
          <mxGeometry relative="1" as="geometry" />
        </mxCell>
        <mxCell id="IPUG4N9_TtiLt6nAQQPi-90" value="" style="sketch=0;pointerEvents=1;shadow=0;dashed=0;html=1;strokeColor=none;fillColor=#FFFF99;labelPosition=center;verticalLabelPosition=bottom;verticalAlign=top;outlineConnect=0;align=center;shape=mxgraph.office.users.tenant_admin;" vertex="1" parent="1">
          <mxGeometry x="432" y="-221" width="56" height="58" as="geometry" />
        </mxCell>
        <mxCell id="IPUG4N9_TtiLt6nAQQPi-92" value="" style="image;aspect=fixed;perimeter=ellipsePerimeter;html=1;align=center;shadow=0;dashed=0;spacingTop=3;image=img/lib/active_directory/database.svg;" vertex="1" parent="1">
          <mxGeometry x="125" y="-476" width="26.35" height="19.5" as="geometry" />
        </mxCell>
      </root>
    </mxGraphModel>
  </diagram>
</mxfile>
